<svg width="551" height="318" viewBox="0 0 551 318" fill="none" xmlns="http://www.w3.org/2000/svg">
<circle cx="159" cy="159" r="159" fill="#FFF4E2"/>
<circle cx="392" cy="159" r="159" fill="#C2E8FF" fill-opacity="0.5"/>
<path d="M114.801 156.364H115.994C115.94 154.827 114.523 153.679 112.554 153.679C110.605 153.679 109.074 154.812 109.074 156.523C109.074 157.895 110.068 158.71 111.659 159.168L112.912 159.526C113.986 159.824 114.94 160.202 114.94 161.216C114.94 162.33 113.866 163.065 112.455 163.065C111.241 163.065 110.168 162.528 110.068 161.375H108.795C108.915 163.045 110.267 164.179 112.455 164.179C114.801 164.179 116.134 162.886 116.134 161.236C116.134 159.327 114.324 158.71 113.27 158.432L112.236 158.153C111.48 157.955 110.267 157.557 110.267 156.463C110.267 155.489 111.162 154.773 112.514 154.773C113.747 154.773 114.682 155.359 114.801 156.364ZM120.109 164.179C121.441 164.179 122.137 163.463 122.376 162.966H122.435V164H123.609V158.969C123.609 156.543 121.759 156.264 120.785 156.264C119.631 156.264 118.319 156.662 117.722 158.054L118.836 158.452C119.095 157.895 119.706 157.298 120.825 157.298C121.904 157.298 122.435 157.87 122.435 158.849V158.889C122.435 159.456 121.859 159.406 120.467 159.585C119.05 159.769 117.504 160.082 117.504 161.832C117.504 163.324 118.657 164.179 120.109 164.179ZM120.288 163.125C119.353 163.125 118.677 162.707 118.677 161.892C118.677 160.997 119.492 160.719 120.407 160.599C120.904 160.54 122.237 160.401 122.435 160.162V161.236C122.435 162.19 121.68 163.125 120.288 163.125ZM126.784 153.818H125.61V164H126.784V153.818ZM131.994 164.159C133.545 164.159 134.679 163.384 135.037 162.23L133.903 161.912C133.605 162.707 132.914 163.105 131.994 163.105C130.617 163.105 129.668 162.215 129.613 160.58H135.156V160.082C135.156 157.239 133.466 156.264 131.875 156.264C129.807 156.264 128.435 157.895 128.435 160.241C128.435 162.588 129.787 164.159 131.994 164.159ZM129.613 159.565C129.692 158.377 130.533 157.318 131.875 157.318C133.148 157.318 133.963 158.273 133.963 159.565H129.613ZM142.21 158.074C141.842 156.99 141.017 156.264 139.506 156.264C137.895 156.264 136.702 157.179 136.702 158.472C136.702 159.526 137.328 160.232 138.73 160.56L140.003 160.858C140.773 161.037 141.136 161.405 141.136 161.932C141.136 162.588 140.44 163.125 139.346 163.125C138.387 163.125 137.785 162.712 137.577 161.892L136.463 162.17C136.736 163.468 137.805 164.159 139.366 164.159C141.141 164.159 142.349 163.19 142.349 161.872C142.349 160.808 141.683 160.137 140.321 159.804L139.187 159.526C138.283 159.302 137.875 158.999 137.875 158.412C137.875 157.756 138.571 157.278 139.506 157.278C140.53 157.278 140.952 157.845 141.156 158.372L142.21 158.074ZM150.02 164.179C151.352 164.179 152.048 163.463 152.287 162.966H152.347V164H153.52V158.969C153.52 156.543 151.671 156.264 150.696 156.264C149.543 156.264 148.23 156.662 147.634 158.054L148.747 158.452C149.006 157.895 149.617 157.298 150.736 157.298C151.815 157.298 152.347 157.87 152.347 158.849V158.889C152.347 159.456 151.77 159.406 150.378 159.585C148.961 159.769 147.415 160.082 147.415 161.832C147.415 163.324 148.568 164.179 150.02 164.179ZM150.199 163.125C149.264 163.125 148.588 162.707 148.588 161.892C148.588 160.997 149.404 160.719 150.318 160.599C150.816 160.54 152.148 160.401 152.347 160.162V161.236C152.347 162.19 151.591 163.125 150.199 163.125ZM158.624 164.159C160.314 164.159 161.428 163.125 161.627 161.773H160.453C160.235 162.608 159.539 163.105 158.624 163.105C157.232 163.105 156.337 161.952 156.337 160.182C156.337 158.452 157.252 157.318 158.624 157.318C159.658 157.318 160.274 157.955 160.453 158.651H161.627C161.428 157.219 160.215 156.264 158.604 156.264C156.536 156.264 155.164 157.895 155.164 160.222C155.164 162.509 156.476 164.159 158.624 164.159ZM166.523 156.364H164.892V154.534H163.719V156.364H162.566V157.358H163.719V162.131C163.719 163.463 164.793 164.099 165.787 164.099C166.225 164.099 166.503 164.02 166.662 163.96L166.424 162.906C166.324 162.926 166.165 162.966 165.906 162.966C165.389 162.966 164.892 162.807 164.892 161.812V157.358H166.523V156.364ZM168.148 164H169.321V156.364H168.148V164ZM168.744 155.091C169.202 155.091 169.58 154.733 169.58 154.295C169.58 153.858 169.202 153.5 168.744 153.5C168.287 153.5 167.909 153.858 167.909 154.295C167.909 154.733 168.287 155.091 168.744 155.091ZM177.574 156.364H176.302L174.194 162.449H174.114L172.006 156.364H170.734L173.557 164H174.751L177.574 156.364ZM180.998 164.179C182.33 164.179 183.026 163.463 183.265 162.966H183.325V164H184.498V158.969C184.498 156.543 182.648 156.264 181.674 156.264C180.521 156.264 179.208 156.662 178.611 158.054L179.725 158.452C179.984 157.895 180.595 157.298 181.714 157.298C182.793 157.298 183.325 157.87 183.325 158.849V158.889C183.325 159.456 182.748 159.406 181.356 159.585C179.939 159.769 178.393 160.082 178.393 161.832C178.393 163.324 179.546 164.179 180.998 164.179ZM181.177 163.125C180.242 163.125 179.566 162.707 179.566 161.892C179.566 160.997 180.381 160.719 181.296 160.599C181.793 160.54 183.126 160.401 183.325 160.162V161.236C183.325 162.19 182.569 163.125 181.177 163.125ZM189.82 156.364H188.19V154.534H187.016V156.364H185.863V157.358H187.016V162.131C187.016 163.463 188.09 164.099 189.085 164.099C189.522 164.099 189.8 164.02 189.96 163.96L189.721 162.906C189.621 162.926 189.462 162.966 189.204 162.966C188.687 162.966 188.19 162.807 188.19 161.812V157.358H189.82V156.364ZM191.445 164H192.619V156.364H191.445V164ZM192.042 155.091C192.499 155.091 192.877 154.733 192.877 154.295C192.877 153.858 192.499 153.5 192.042 153.5C191.584 153.5 191.207 153.858 191.207 154.295C191.207 154.733 191.584 155.091 192.042 155.091ZM197.73 164.159C199.798 164.159 201.19 162.588 201.19 160.222C201.19 157.835 199.798 156.264 197.73 156.264C195.662 156.264 194.27 157.835 194.27 160.222C194.27 162.588 195.662 164.159 197.73 164.159ZM197.73 163.105C196.159 163.105 195.443 161.753 195.443 160.222C195.443 158.69 196.159 157.318 197.73 157.318C199.301 157.318 200.017 158.69 200.017 160.222C200.017 161.753 199.301 163.105 197.73 163.105ZM204.014 159.406C204.014 158.074 204.84 157.318 205.963 157.318C207.052 157.318 207.713 158.029 207.713 159.227V164H208.887V159.148C208.887 157.199 207.847 156.264 206.301 156.264C205.148 156.264 204.432 156.781 204.074 157.557H203.975V156.364H202.841V164H204.014V159.406Z" fill="#7C5212"/>
<path d="M330.233 164H331.466V160.281H333.693C336.065 160.281 337.134 158.839 337.134 157.04C337.134 155.24 336.065 153.818 333.673 153.818H330.233V164ZM331.466 159.188V154.912H333.634C335.289 154.912 335.92 155.817 335.92 157.04C335.92 158.263 335.289 159.188 333.653 159.188H331.466ZM338.821 164H339.994V159.168C339.994 158.134 340.809 157.378 341.923 157.378C342.236 157.378 342.559 157.438 342.639 157.457V156.264C342.505 156.254 342.196 156.244 342.022 156.244C341.108 156.244 340.312 156.761 340.034 157.517H339.954V156.364H338.821V164ZM346.759 164.159C348.828 164.159 350.22 162.588 350.22 160.222C350.22 157.835 348.828 156.264 346.759 156.264C344.691 156.264 343.299 157.835 343.299 160.222C343.299 162.588 344.691 164.159 346.759 164.159ZM346.759 163.105C345.188 163.105 344.472 161.753 344.472 160.222C344.472 158.69 345.188 157.318 346.759 157.318C348.33 157.318 349.046 158.69 349.046 160.222C349.046 161.753 348.33 163.105 346.759 163.105ZM354.754 164.159C356.226 164.159 356.723 163.244 356.981 162.827H357.121V164H358.254V153.818H357.081V157.577H356.981C356.723 157.179 356.266 156.264 354.774 156.264C352.845 156.264 351.513 157.795 351.513 160.202C351.513 162.628 352.845 164.159 354.754 164.159ZM354.913 163.105C353.442 163.105 352.686 161.812 352.686 160.182C352.686 158.571 353.422 157.318 354.913 157.318C356.345 157.318 357.101 158.472 357.101 160.182C357.101 161.912 356.325 163.105 354.913 163.105ZM365.238 160.878C365.238 162.31 364.145 162.966 363.27 162.966C362.295 162.966 361.599 162.25 361.599 161.136V156.364H360.426V161.216C360.426 163.165 361.46 164.099 362.892 164.099C364.045 164.099 364.801 163.483 365.159 162.707H365.238V164H366.412V156.364H365.238V160.878ZM371.523 164.159C373.213 164.159 374.327 163.125 374.526 161.773H373.353C373.134 162.608 372.438 163.105 371.523 163.105C370.131 163.105 369.236 161.952 369.236 160.182C369.236 158.452 370.151 157.318 371.523 157.318C372.557 157.318 373.174 157.955 373.353 158.651H374.526C374.327 157.219 373.114 156.264 371.503 156.264C369.435 156.264 368.063 157.895 368.063 160.222C368.063 162.509 369.375 164.159 371.523 164.159ZM379.422 156.364H377.791V154.534H376.618V156.364H375.465V157.358H376.618V162.131C376.618 163.463 377.692 164.099 378.686 164.099C379.124 164.099 379.402 164.02 379.561 163.96L379.323 162.906C379.223 162.926 379.064 162.966 378.806 162.966C378.289 162.966 377.791 162.807 377.791 161.812V157.358H379.422V156.364ZM384.844 166.864H386.018V162.827H386.117C386.376 163.244 386.873 164.159 388.344 164.159C390.254 164.159 391.586 162.628 391.586 160.202C391.586 157.795 390.254 156.264 388.325 156.264C386.833 156.264 386.376 157.179 386.117 157.577H385.978V156.364H384.844V166.864ZM385.998 160.182C385.998 158.472 386.754 157.318 388.185 157.318C389.677 157.318 390.413 158.571 390.413 160.182C390.413 161.812 389.657 163.105 388.185 163.105C386.773 163.105 385.998 161.912 385.998 160.182ZM396.338 164.159C398.406 164.159 399.798 162.588 399.798 160.222C399.798 157.835 398.406 156.264 396.338 156.264C394.27 156.264 392.878 157.835 392.878 160.222C392.878 162.588 394.27 164.159 396.338 164.159ZM396.338 163.105C394.767 163.105 394.051 161.753 394.051 160.222C394.051 158.69 394.767 157.318 396.338 157.318C397.909 157.318 398.625 158.69 398.625 160.222C398.625 161.753 397.909 163.105 396.338 163.105ZM406.858 158.074C406.49 156.99 405.665 156.264 404.154 156.264C402.543 156.264 401.35 157.179 401.35 158.472C401.35 159.526 401.976 160.232 403.378 160.56L404.651 160.858C405.422 161.037 405.784 161.405 405.784 161.932C405.784 162.588 405.088 163.125 403.995 163.125C403.035 163.125 402.434 162.712 402.225 161.892L401.111 162.17C401.385 163.468 402.454 164.159 404.015 164.159C405.789 164.159 406.998 163.19 406.998 161.872C406.998 160.808 406.331 160.137 404.969 159.804L403.836 159.526C402.931 159.302 402.523 158.999 402.523 158.412C402.523 157.756 403.219 157.278 404.154 157.278C405.178 157.278 405.601 157.845 405.804 158.372L406.858 158.074ZM408.624 164H409.797V156.364H408.624V164ZM409.22 155.091C409.678 155.091 410.056 154.733 410.056 154.295C410.056 153.858 409.678 153.5 409.22 153.5C408.763 153.5 408.385 153.858 408.385 154.295C408.385 154.733 408.763 155.091 409.22 155.091ZM415.127 156.364H413.496V154.534H412.323V156.364H411.17V157.358H412.323V162.131C412.323 163.463 413.397 164.099 414.391 164.099C414.829 164.099 415.107 164.02 415.266 163.96L415.028 162.906C414.928 162.926 414.769 162.966 414.511 162.966C413.993 162.966 413.496 162.807 413.496 161.812V157.358H415.127V156.364ZM416.752 164H417.925V156.364H416.752V164ZM417.349 155.091C417.806 155.091 418.184 154.733 418.184 154.295C418.184 153.858 417.806 153.5 417.349 153.5C416.891 153.5 416.513 153.858 416.513 154.295C416.513 154.733 416.891 155.091 417.349 155.091ZM423.036 164.159C425.105 164.159 426.497 162.588 426.497 160.222C426.497 157.835 425.105 156.264 423.036 156.264C420.968 156.264 419.576 157.835 419.576 160.222C419.576 162.588 420.968 164.159 423.036 164.159ZM423.036 163.105C421.465 163.105 420.75 161.753 420.75 160.222C420.75 158.69 421.465 157.318 423.036 157.318C424.607 157.318 425.323 158.69 425.323 160.222C425.323 161.753 424.607 163.105 423.036 163.105ZM429.321 159.406C429.321 158.074 430.146 157.318 431.27 157.318C432.359 157.318 433.02 158.029 433.02 159.227V164H434.193V159.148C434.193 157.199 433.154 156.264 431.608 156.264C430.455 156.264 429.739 156.781 429.381 157.557H429.281V156.364H428.148V164H429.321V159.406ZM436.197 164H437.37V156.364H436.197V164ZM436.794 155.091C437.251 155.091 437.629 154.733 437.629 154.295C437.629 153.858 437.251 153.5 436.794 153.5C436.336 153.5 435.959 153.858 435.959 154.295C435.959 154.733 436.336 155.091 436.794 155.091ZM440.553 159.406C440.553 158.074 441.378 157.318 442.502 157.318C443.59 157.318 444.252 158.029 444.252 159.227V164H445.425V159.148C445.425 157.199 444.386 156.264 442.84 156.264C441.686 156.264 440.97 156.781 440.612 157.557H440.513V156.364H439.379V164H440.553V159.406ZM450.511 167.023C452.341 167.023 453.812 166.188 453.812 164.219V156.364H452.679V157.577H452.56C452.301 157.179 451.824 156.264 450.332 156.264C448.403 156.264 447.071 157.795 447.071 160.142C447.071 162.528 448.463 163.881 450.312 163.881C451.804 163.881 452.281 163.006 452.54 162.588H452.639V164.139C452.639 165.412 451.744 165.989 450.511 165.989C449.124 165.989 448.637 165.258 448.324 164.835L447.389 165.491C447.866 166.292 448.806 167.023 450.511 167.023ZM450.471 162.827C449 162.827 448.244 161.713 448.244 160.122C448.244 158.571 448.98 157.318 450.471 157.318C451.903 157.318 452.659 158.472 452.659 160.122C452.659 161.812 451.883 162.827 450.471 162.827Z" fill="#283D49"/>
</svg>
