<svg width="2781" height="578" viewBox="0 0 2781 578" fill="none" xmlns="http://www.w3.org/2000/svg">
<rect width="2781" height="578" fill="#ECF0F5"/>
<rect x="384" y="241" width="406" height="96" rx="48" fill="#76A5FF"/>
<path d="M418.582 302V275.818H435.611V279.794H423.325V286.902H434.729V290.878H423.325V298.024H435.713V302H418.582ZM444.816 302.396C443.571 302.396 442.451 302.175 441.453 301.732C440.465 301.28 439.681 300.615 439.101 299.737C438.53 298.859 438.245 297.777 438.245 296.49C438.245 295.382 438.449 294.466 438.858 293.741C439.267 293.017 439.826 292.438 440.533 292.003C441.24 291.568 442.037 291.24 442.924 291.018C443.818 290.788 444.743 290.622 445.698 290.52C446.848 290.401 447.782 290.294 448.497 290.2C449.213 290.098 449.733 289.945 450.057 289.74C450.389 289.527 450.556 289.199 450.556 288.756V288.679C450.556 287.716 450.27 286.97 449.699 286.442C449.128 285.913 448.306 285.649 447.232 285.649C446.098 285.649 445.199 285.896 444.534 286.391C443.878 286.885 443.435 287.469 443.205 288.142L438.884 287.528C439.225 286.335 439.787 285.338 440.571 284.537C441.355 283.727 442.314 283.122 443.448 282.722C444.581 282.312 445.834 282.108 447.206 282.108C448.152 282.108 449.094 282.219 450.032 282.44C450.969 282.662 451.826 283.028 452.601 283.54C453.377 284.043 453.999 284.729 454.468 285.598C454.945 286.467 455.183 287.554 455.183 288.858V302H450.735V299.303H450.581C450.3 299.848 449.904 300.359 449.392 300.837C448.889 301.305 448.255 301.685 447.487 301.974C446.729 302.256 445.838 302.396 444.816 302.396ZM446.017 298.996C446.946 298.996 447.752 298.812 448.433 298.446C449.115 298.071 449.639 297.577 450.006 296.963C450.381 296.349 450.568 295.68 450.568 294.956V292.642C450.424 292.761 450.176 292.872 449.827 292.974C449.486 293.077 449.103 293.166 448.676 293.243C448.25 293.32 447.828 293.388 447.411 293.447C446.993 293.507 446.631 293.558 446.324 293.601C445.634 293.695 445.016 293.848 444.47 294.061C443.925 294.274 443.495 294.572 443.179 294.956C442.864 295.331 442.706 295.817 442.706 296.413C442.706 297.266 443.017 297.909 443.639 298.344C444.262 298.778 445.054 298.996 446.017 298.996ZM474.277 287.554L470.058 288.014C469.939 287.588 469.73 287.188 469.432 286.812C469.142 286.438 468.75 286.135 468.255 285.905C467.761 285.675 467.156 285.56 466.44 285.56C465.477 285.56 464.667 285.768 464.011 286.186C463.363 286.604 463.044 287.145 463.052 287.81C463.044 288.381 463.253 288.845 463.679 289.203C464.113 289.561 464.829 289.855 465.827 290.085L469.176 290.801C471.034 291.202 472.415 291.837 473.318 292.706C474.23 293.575 474.69 294.713 474.699 296.119C474.69 297.355 474.328 298.446 473.612 299.392C472.905 300.33 471.92 301.062 470.659 301.591C469.398 302.119 467.949 302.384 466.312 302.384C463.909 302.384 461.974 301.881 460.508 300.875C459.042 299.861 458.169 298.45 457.888 296.643L462.4 296.209C462.605 297.095 463.04 297.764 463.704 298.216C464.369 298.668 465.234 298.893 466.3 298.893C467.399 298.893 468.281 298.668 468.946 298.216C469.619 297.764 469.956 297.206 469.956 296.541C469.956 295.979 469.738 295.514 469.304 295.148C468.878 294.781 468.213 294.5 467.309 294.304L463.96 293.601C462.077 293.209 460.683 292.548 459.78 291.619C458.876 290.682 458.429 289.497 458.437 288.065C458.429 286.855 458.757 285.807 459.422 284.92C460.095 284.026 461.028 283.335 462.221 282.849C463.423 282.355 464.808 282.108 466.376 282.108C468.677 282.108 470.488 282.598 471.809 283.578C473.139 284.558 473.961 285.884 474.277 287.554ZM480.311 309.364C479.68 309.364 479.097 309.313 478.56 309.21C478.031 309.116 477.609 309.006 477.294 308.878L478.368 305.273C479.041 305.469 479.642 305.563 480.171 305.554C480.699 305.545 481.163 305.379 481.564 305.055C481.973 304.74 482.318 304.212 482.599 303.47L482.996 302.409L475.875 282.364H480.784L485.31 297.193H485.514L490.053 282.364H494.974L487.112 304.378C486.746 305.418 486.26 306.308 485.655 307.05C485.05 307.8 484.308 308.371 483.43 308.763C482.561 309.163 481.521 309.364 480.311 309.364ZM514.752 282.364V285.943H503.464V282.364H514.752ZM506.251 277.659H510.878V296.094C510.878 296.716 510.972 297.193 511.16 297.526C511.356 297.849 511.611 298.071 511.927 298.19C512.242 298.31 512.591 298.369 512.975 298.369C513.265 298.369 513.529 298.348 513.768 298.305C514.015 298.263 514.202 298.224 514.33 298.19L515.11 301.808C514.863 301.893 514.509 301.987 514.049 302.089C513.597 302.192 513.043 302.251 512.387 302.268C511.228 302.303 510.184 302.128 509.255 301.744C508.326 301.352 507.589 300.747 507.043 299.929C506.506 299.111 506.242 298.088 506.251 296.861V277.659ZM525.897 302.384C523.979 302.384 522.317 301.962 520.911 301.118C519.505 300.274 518.414 299.094 517.638 297.577C516.871 296.06 516.488 294.287 516.488 292.259C516.488 290.23 516.871 288.453 517.638 286.928C518.414 285.402 519.505 284.217 520.911 283.374C522.317 282.53 523.979 282.108 525.897 282.108C527.814 282.108 529.476 282.53 530.883 283.374C532.289 284.217 533.375 285.402 534.143 286.928C534.918 288.453 535.306 290.23 535.306 292.259C535.306 294.287 534.918 296.06 534.143 297.577C533.375 299.094 532.289 300.274 530.883 301.118C529.476 301.962 527.814 302.384 525.897 302.384ZM525.922 298.676C526.962 298.676 527.831 298.391 528.53 297.82C529.229 297.24 529.749 296.464 530.09 295.493C530.439 294.521 530.614 293.439 530.614 292.246C530.614 291.044 530.439 289.957 530.09 288.986C529.749 288.006 529.229 287.226 528.53 286.646C527.831 286.067 526.962 285.777 525.922 285.777C524.857 285.777 523.971 286.067 523.263 286.646C522.564 287.226 522.04 288.006 521.691 288.986C521.35 289.957 521.179 291.044 521.179 292.246C521.179 293.439 521.35 294.521 521.691 295.493C522.04 296.464 522.564 297.24 523.263 297.82C523.971 298.391 524.857 298.676 525.922 298.676ZM561.523 287.554L557.305 288.014C557.185 287.588 556.976 287.188 556.678 286.812C556.388 286.438 555.996 286.135 555.502 285.905C555.008 285.675 554.403 285.56 553.687 285.56C552.724 285.56 551.914 285.768 551.258 286.186C550.61 286.604 550.29 287.145 550.299 287.81C550.29 288.381 550.499 288.845 550.925 289.203C551.36 289.561 552.076 289.855 553.073 290.085L556.423 290.801C558.28 291.202 559.661 291.837 560.565 292.706C561.476 293.575 561.937 294.713 561.945 296.119C561.937 297.355 561.574 298.446 560.859 299.392C560.151 300.33 559.167 301.062 557.905 301.591C556.644 302.119 555.195 302.384 553.559 302.384C551.155 302.384 549.221 301.881 547.755 300.875C546.289 299.861 545.415 298.45 545.134 296.643L549.647 296.209C549.851 297.095 550.286 297.764 550.951 298.216C551.616 298.668 552.481 298.893 553.546 298.893C554.646 298.893 555.528 298.668 556.192 298.216C556.866 297.764 557.202 297.206 557.202 296.541C557.202 295.979 556.985 295.514 556.55 295.148C556.124 294.781 555.459 294.5 554.556 294.304L551.207 293.601C549.323 293.209 547.93 292.548 547.026 291.619C546.123 290.682 545.675 289.497 545.684 288.065C545.675 286.855 546.003 285.807 546.668 284.92C547.342 284.026 548.275 283.335 549.468 282.849C550.67 282.355 552.055 282.108 553.623 282.108C555.924 282.108 557.735 282.598 559.056 283.578C560.386 284.558 561.208 285.884 561.523 287.554ZM573.374 302.384C571.406 302.384 569.705 301.974 568.274 301.156C566.85 300.33 565.755 299.162 564.988 297.653C564.221 296.136 563.838 294.351 563.838 292.297C563.838 290.277 564.221 288.504 564.988 286.979C565.764 285.445 566.846 284.251 568.235 283.399C569.624 282.538 571.257 282.108 573.132 282.108C574.342 282.108 575.484 282.304 576.558 282.696C577.64 283.08 578.595 283.676 579.421 284.486C580.257 285.295 580.913 286.327 581.39 287.58C581.867 288.824 582.106 290.307 582.106 292.028V293.447H566.011V290.328H577.67C577.661 289.442 577.47 288.653 577.095 287.963C576.72 287.264 576.195 286.714 575.522 286.314C574.857 285.913 574.082 285.713 573.195 285.713C572.249 285.713 571.418 285.943 570.703 286.403C569.987 286.855 569.428 287.452 569.028 288.193C568.636 288.926 568.436 289.732 568.427 290.609V293.332C568.427 294.474 568.636 295.455 569.053 296.273C569.471 297.082 570.055 297.705 570.805 298.139C571.555 298.565 572.433 298.778 573.438 298.778C574.112 298.778 574.721 298.685 575.267 298.497C575.812 298.301 576.285 298.016 576.686 297.641C577.086 297.266 577.389 296.801 577.593 296.247L581.914 296.733C581.642 297.875 581.122 298.872 580.355 299.724C579.596 300.568 578.624 301.224 577.44 301.693C576.255 302.153 574.9 302.384 573.374 302.384ZM594.747 282.364V285.943H583.458V282.364H594.747ZM586.245 277.659H590.873V296.094C590.873 296.716 590.967 297.193 591.154 297.526C591.35 297.849 591.606 298.071 591.921 298.19C592.237 298.31 592.586 298.369 592.97 298.369C593.259 298.369 593.524 298.348 593.762 298.305C594.009 298.263 594.197 298.224 594.325 298.19L595.104 301.808C594.857 301.893 594.504 301.987 594.043 302.089C593.592 302.192 593.038 302.251 592.381 302.268C591.222 302.303 590.178 302.128 589.249 301.744C588.32 301.352 587.583 300.747 587.038 299.929C586.501 299.111 586.237 298.088 586.245 296.861V277.659ZM610.053 293.741V282.364H614.68V302H610.193V298.51H609.989C609.545 299.609 608.817 300.509 607.803 301.207C606.797 301.906 605.557 302.256 604.082 302.256C602.795 302.256 601.658 301.97 600.669 301.399C599.689 300.82 598.922 299.98 598.368 298.881C597.814 297.773 597.537 296.435 597.537 294.866V282.364H602.165V294.151C602.165 295.395 602.506 296.384 603.187 297.116C603.869 297.849 604.764 298.216 605.872 298.216C606.554 298.216 607.214 298.05 607.854 297.717C608.493 297.385 609.017 296.891 609.426 296.234C609.844 295.57 610.053 294.739 610.053 293.741ZM618.359 309.364V282.364H622.91V285.611H623.179C623.417 285.134 623.754 284.626 624.189 284.089C624.623 283.544 625.212 283.08 625.953 282.696C626.694 282.304 627.64 282.108 628.791 282.108C630.308 282.108 631.676 282.496 632.895 283.271C634.122 284.038 635.094 285.176 635.81 286.685C636.534 288.185 636.896 290.026 636.896 292.207C636.896 294.364 636.542 296.196 635.835 297.705C635.128 299.213 634.165 300.364 632.946 301.156C631.727 301.949 630.346 302.345 628.804 302.345C627.679 302.345 626.746 302.158 626.004 301.783C625.263 301.408 624.666 300.956 624.214 300.428C623.771 299.891 623.426 299.384 623.179 298.906H622.987V309.364H618.359ZM622.898 292.182C622.898 293.452 623.077 294.564 623.435 295.518C623.801 296.473 624.325 297.219 625.007 297.756C625.697 298.284 626.533 298.548 627.513 298.548C628.535 298.548 629.392 298.276 630.082 297.73C630.773 297.176 631.292 296.422 631.642 295.467C632 294.504 632.179 293.409 632.179 292.182C632.179 290.963 632.004 289.881 631.655 288.935C631.305 287.989 630.785 287.247 630.095 286.71C629.405 286.173 628.544 285.905 627.513 285.905C626.524 285.905 625.685 286.165 624.994 286.685C624.304 287.205 623.78 287.933 623.422 288.871C623.072 289.808 622.898 290.912 622.898 292.182ZM656.322 302.384C654.353 302.384 652.653 301.974 651.221 301.156C649.798 300.33 648.703 299.162 647.936 297.653C647.169 296.136 646.785 294.351 646.785 292.297C646.785 290.277 647.169 288.504 647.936 286.979C648.711 285.445 649.794 284.251 651.183 283.399C652.572 282.538 654.204 282.108 656.079 282.108C657.289 282.108 658.431 282.304 659.505 282.696C660.588 283.08 661.542 283.676 662.369 284.486C663.204 285.295 663.86 286.327 664.338 287.58C664.815 288.824 665.054 290.307 665.054 292.028V293.447H648.958V290.328H660.618C660.609 289.442 660.417 288.653 660.042 287.963C659.667 287.264 659.143 286.714 658.47 286.314C657.805 285.913 657.03 285.713 656.143 285.713C655.197 285.713 654.366 285.943 653.65 286.403C652.934 286.855 652.376 287.452 651.976 288.193C651.583 288.926 651.383 289.732 651.375 290.609V293.332C651.375 294.474 651.583 295.455 652.001 296.273C652.419 297.082 653.003 297.705 653.753 298.139C654.503 298.565 655.38 298.778 656.386 298.778C657.059 298.778 657.669 298.685 658.214 298.497C658.76 298.301 659.233 298.016 659.633 297.641C660.034 297.266 660.336 296.801 660.541 296.247L664.862 296.733C664.589 297.875 664.069 298.872 663.302 299.724C662.544 300.568 661.572 301.224 660.387 301.693C659.203 302.153 657.848 302.384 656.322 302.384ZM684.866 282.364L677.873 302H672.76L665.767 282.364H670.701L675.214 296.95H675.419L679.944 282.364H684.866ZM695.014 302.384C693.045 302.384 691.345 301.974 689.913 301.156C688.49 300.33 687.394 299.162 686.627 297.653C685.86 296.136 685.477 294.351 685.477 292.297C685.477 290.277 685.86 288.504 686.627 286.979C687.403 285.445 688.485 284.251 689.874 283.399C691.264 282.538 692.896 282.108 694.771 282.108C695.981 282.108 697.123 282.304 698.197 282.696C699.279 283.08 700.234 283.676 701.061 284.486C701.896 285.295 702.552 286.327 703.029 287.58C703.507 288.824 703.745 290.307 703.745 292.028V293.447H687.65V290.328H699.309C699.301 289.442 699.109 288.653 698.734 287.963C698.359 287.264 697.835 286.714 697.161 286.314C696.497 285.913 695.721 285.713 694.835 285.713C693.889 285.713 693.058 285.943 692.342 286.403C691.626 286.855 691.068 287.452 690.667 288.193C690.275 288.926 690.075 289.732 690.066 290.609V293.332C690.066 294.474 690.275 295.455 690.693 296.273C691.11 297.082 691.694 297.705 692.444 298.139C693.194 298.565 694.072 298.778 695.078 298.778C695.751 298.778 696.36 298.685 696.906 298.497C697.451 298.301 697.924 298.016 698.325 297.641C698.725 297.266 699.028 296.801 699.232 296.247L703.553 296.733C703.281 297.875 702.761 298.872 701.994 299.724C701.235 300.568 700.264 301.224 699.079 301.693C697.894 302.153 696.539 302.384 695.014 302.384ZM711.208 290.494V302H706.58V282.364H711.004V285.7H711.234C711.685 284.601 712.406 283.727 713.394 283.08C714.391 282.432 715.623 282.108 717.089 282.108C718.444 282.108 719.624 282.398 720.63 282.977C721.644 283.557 722.428 284.396 722.982 285.496C723.545 286.595 723.822 287.929 723.813 289.497V302H719.185V290.213C719.185 288.901 718.845 287.874 718.163 287.132C717.489 286.391 716.556 286.02 715.363 286.02C714.553 286.02 713.833 286.199 713.202 286.557C712.58 286.906 712.09 287.413 711.732 288.078C711.383 288.743 711.208 289.548 711.208 290.494ZM737.243 282.364V285.943H725.955V282.364H737.243ZM728.742 277.659H733.37V296.094C733.37 296.716 733.463 297.193 733.651 297.526C733.847 297.849 734.103 298.071 734.418 298.19C734.733 298.31 735.083 298.369 735.466 298.369C735.756 298.369 736.02 298.348 736.259 298.305C736.506 298.263 736.694 298.224 736.821 298.19L737.601 301.808C737.354 301.893 737 301.987 736.54 302.089C736.088 302.192 735.534 302.251 734.878 302.268C733.719 302.303 732.675 302.128 731.746 301.744C730.817 301.352 730.08 300.747 729.534 299.929C728.997 299.111 728.733 298.088 728.742 296.861V277.659ZM755.272 287.554L751.054 288.014C750.934 287.588 750.725 287.188 750.427 286.812C750.137 286.438 749.745 286.135 749.251 285.905C748.757 285.675 748.152 285.56 747.436 285.56C746.473 285.56 745.663 285.768 745.007 286.186C744.359 286.604 744.039 287.145 744.048 287.81C744.039 288.381 744.248 288.845 744.674 289.203C745.109 289.561 745.825 289.855 746.822 290.085L750.171 290.801C752.029 291.202 753.41 291.837 754.313 292.706C755.225 293.575 755.686 294.713 755.694 296.119C755.686 297.355 755.323 298.446 754.607 299.392C753.9 300.33 752.916 301.062 751.654 301.591C750.393 302.119 748.944 302.384 747.308 302.384C744.904 302.384 742.97 301.881 741.504 300.875C740.038 299.861 739.164 298.45 738.883 296.643L743.396 296.209C743.6 297.095 744.035 297.764 744.7 298.216C745.365 298.668 746.23 298.893 747.295 298.893C748.394 298.893 749.277 298.668 749.941 298.216C750.615 297.764 750.951 297.206 750.951 296.541C750.951 295.979 750.734 295.514 750.299 295.148C749.873 294.781 749.208 294.5 748.305 294.304L744.956 293.601C743.072 293.209 741.679 292.548 740.775 291.619C739.872 290.682 739.424 289.497 739.433 288.065C739.424 286.855 739.752 285.807 740.417 284.92C741.09 284.026 742.024 283.335 743.217 282.849C744.419 282.355 745.804 282.108 747.372 282.108C749.673 282.108 751.484 282.598 752.805 283.578C754.134 284.558 754.957 285.884 755.272 287.554Z" fill="#F4F4F4"/>
<rect x="808" y="241" width="683" height="96" rx="48" fill="#638EE0"/>
<path d="M842.582 302V275.818H859.611V279.794H847.325V286.902H858.729V290.878H847.325V298.024H859.713V302H842.582ZM880.705 282.364L873.712 302H868.598L861.605 282.364H866.54L871.053 296.95H871.257L875.783 282.364H880.705ZM890.852 302.384C888.884 302.384 887.183 301.974 885.752 301.156C884.328 300.33 883.233 299.162 882.466 297.653C881.699 296.136 881.315 294.351 881.315 292.297C881.315 290.277 881.699 288.504 882.466 286.979C883.242 285.445 884.324 284.251 885.713 283.399C887.102 282.538 888.735 282.108 890.61 282.108C891.82 282.108 892.962 282.304 894.036 282.696C895.118 283.08 896.073 283.676 896.899 284.486C897.735 285.295 898.391 286.327 898.868 287.58C899.345 288.824 899.584 290.307 899.584 292.028V293.447H883.489V290.328H895.148C895.139 289.442 894.948 288.653 894.573 287.963C894.198 287.264 893.673 286.714 893 286.314C892.335 285.913 891.56 285.713 890.673 285.713C889.727 285.713 888.896 285.943 888.181 286.403C887.465 286.855 886.906 287.452 886.506 288.193C886.114 288.926 885.914 289.732 885.905 290.609V293.332C885.905 294.474 886.114 295.455 886.531 296.273C886.949 297.082 887.533 297.705 888.283 298.139C889.033 298.565 889.911 298.778 890.916 298.778C891.59 298.778 892.199 298.685 892.744 298.497C893.29 298.301 893.763 298.016 894.164 297.641C894.564 297.266 894.867 296.801 895.071 296.247L899.392 296.733C899.119 297.875 898.6 298.872 897.833 299.724C897.074 300.568 896.102 301.224 894.918 301.693C893.733 302.153 892.378 302.384 890.852 302.384ZM907.047 290.494V302H902.419V282.364H906.842V285.7H907.072C907.524 284.601 908.244 283.727 909.233 283.08C910.23 282.432 911.462 282.108 912.928 282.108C914.283 282.108 915.463 282.398 916.469 282.977C917.483 283.557 918.267 284.396 918.821 285.496C919.384 286.595 919.661 287.929 919.652 289.497V302H915.024V290.213C915.024 288.901 914.683 287.874 914.001 287.132C913.328 286.391 912.395 286.02 911.202 286.02C910.392 286.02 909.672 286.199 909.041 286.557C908.419 286.906 907.929 287.413 907.571 288.078C907.222 288.743 907.047 289.548 907.047 290.494ZM933.082 282.364V285.943H921.794V282.364H933.082ZM924.581 277.659H929.208V296.094C929.208 296.716 929.302 297.193 929.49 297.526C929.686 297.849 929.941 298.071 930.257 298.19C930.572 298.31 930.921 298.369 931.305 298.369C931.595 298.369 931.859 298.348 932.098 298.305C932.345 298.263 932.532 298.224 932.66 298.19L933.44 301.808C933.193 301.893 932.839 301.987 932.379 302.089C931.927 302.192 931.373 302.251 930.717 302.268C929.558 302.303 928.514 302.128 927.585 301.744C926.656 301.352 925.919 300.747 925.373 299.929C924.836 299.111 924.572 298.088 924.581 296.861V277.659ZM951.111 287.554L946.892 288.014C946.773 287.588 946.564 287.188 946.266 286.812C945.976 286.438 945.584 286.135 945.09 285.905C944.595 285.675 943.99 285.56 943.274 285.56C942.311 285.56 941.502 285.768 940.845 286.186C940.198 286.604 939.878 287.145 939.887 287.81C939.878 288.381 940.087 288.845 940.513 289.203C940.948 289.561 941.664 289.855 942.661 290.085L946.01 290.801C947.868 291.202 949.249 291.837 950.152 292.706C951.064 293.575 951.524 294.713 951.533 296.119C951.524 297.355 951.162 298.446 950.446 299.392C949.739 300.33 948.754 301.062 947.493 301.591C946.232 302.119 944.783 302.384 943.147 302.384C940.743 302.384 938.808 301.881 937.343 300.875C935.877 299.861 935.003 298.45 934.722 296.643L939.235 296.209C939.439 297.095 939.874 297.764 940.539 298.216C941.203 298.668 942.068 298.893 943.134 298.893C944.233 298.893 945.115 298.668 945.78 298.216C946.453 297.764 946.79 297.206 946.79 296.541C946.79 295.979 946.573 295.514 946.138 295.148C945.712 294.781 945.047 294.5 944.144 294.304L940.794 293.601C938.911 293.209 937.517 292.548 936.614 291.619C935.71 290.682 935.263 289.497 935.272 288.065C935.263 286.855 935.591 285.807 936.256 284.92C936.929 284.026 937.862 283.335 939.056 282.849C940.257 282.355 941.642 282.108 943.21 282.108C945.512 282.108 947.323 282.598 948.644 283.578C949.973 284.558 950.796 285.884 951.111 287.554ZM966.746 290.494V302H962.119V282.364H966.542V285.7H966.772C967.224 284.601 967.944 283.727 968.933 283.08C969.93 282.432 971.161 282.108 972.627 282.108C973.982 282.108 975.163 282.398 976.168 282.977C977.183 283.557 977.967 284.396 978.521 285.496C979.083 286.595 979.36 287.929 979.352 289.497V302H974.724V290.213C974.724 288.901 974.383 287.874 973.701 287.132C973.028 286.391 972.094 286.02 970.901 286.02C970.092 286.02 969.371 286.199 968.741 286.557C968.119 286.906 967.629 287.413 967.271 288.078C966.921 288.743 966.746 289.548 966.746 290.494ZM991.669 302.384C989.701 302.384 988 301.974 986.568 301.156C985.145 300.33 984.05 299.162 983.283 297.653C982.516 296.136 982.132 294.351 982.132 292.297C982.132 290.277 982.516 288.504 983.283 286.979C984.059 285.445 985.141 284.251 986.53 283.399C987.919 282.538 989.551 282.108 991.426 282.108C992.637 282.108 993.779 282.304 994.853 282.696C995.935 283.08 996.889 283.676 997.716 284.486C998.551 285.295 999.208 286.327 999.685 287.58C1000.16 288.824 1000.4 290.307 1000.4 292.028V293.447H984.306V290.328H995.965C995.956 289.442 995.764 288.653 995.389 287.963C995.014 287.264 994.49 286.714 993.817 286.314C993.152 285.913 992.377 285.713 991.49 285.713C990.544 285.713 989.713 285.943 988.997 286.403C988.282 286.855 987.723 287.452 987.323 288.193C986.931 288.926 986.73 289.732 986.722 290.609V293.332C986.722 294.474 986.931 295.455 987.348 296.273C987.766 297.082 988.35 297.705 989.1 298.139C989.85 298.565 990.728 298.778 991.733 298.778C992.407 298.778 993.016 298.685 993.561 298.497C994.107 298.301 994.58 298.016 994.98 297.641C995.381 297.266 995.684 296.801 995.888 296.247L1000.21 296.733C999.936 297.875 999.416 298.872 998.649 299.724C997.891 300.568 996.919 301.224 995.735 301.693C994.55 302.153 993.195 302.384 991.669 302.384ZM1011.93 302.384C1009.96 302.384 1008.26 301.974 1006.83 301.156C1005.4 300.33 1004.31 299.162 1003.54 297.653C1002.78 296.136 1002.39 294.351 1002.39 292.297C1002.39 290.277 1002.78 288.504 1003.54 286.979C1004.32 285.445 1005.4 284.251 1006.79 283.399C1008.18 282.538 1009.81 282.108 1011.69 282.108C1012.9 282.108 1014.04 282.304 1015.11 282.696C1016.19 283.08 1017.15 283.676 1017.98 284.486C1018.81 285.295 1019.47 286.327 1019.94 287.58C1020.42 288.824 1020.66 290.307 1020.66 292.028V293.447H1004.57V290.328H1016.22C1016.22 289.442 1016.02 288.653 1015.65 287.963C1015.27 287.264 1014.75 286.714 1014.08 286.314C1013.41 285.913 1012.64 285.713 1011.75 285.713C1010.8 285.713 1009.97 285.943 1009.26 286.403C1008.54 286.855 1007.98 287.452 1007.58 288.193C1007.19 288.926 1006.99 289.732 1006.98 290.609V293.332C1006.98 294.474 1007.19 295.455 1007.61 296.273C1008.03 297.082 1008.61 297.705 1009.36 298.139C1010.11 298.565 1010.99 298.778 1011.99 298.778C1012.67 298.778 1013.28 298.685 1013.82 298.497C1014.37 298.301 1014.84 298.016 1015.24 297.641C1015.64 297.266 1015.94 296.801 1016.15 296.247L1020.47 296.733C1020.2 297.875 1019.68 298.872 1018.91 299.724C1018.15 300.568 1017.18 301.224 1015.99 301.693C1014.81 302.153 1013.45 302.384 1011.93 302.384ZM1030.78 302.345C1029.24 302.345 1027.86 301.949 1026.64 301.156C1025.42 300.364 1024.46 299.213 1023.75 297.705C1023.04 296.196 1022.69 294.364 1022.69 292.207C1022.69 290.026 1023.05 288.185 1023.76 286.685C1024.49 285.176 1025.46 284.038 1026.69 283.271C1027.92 282.496 1029.29 282.108 1030.8 282.108C1031.95 282.108 1032.89 282.304 1033.63 282.696C1034.38 283.08 1034.96 283.544 1035.4 284.089C1035.83 284.626 1036.17 285.134 1036.41 285.611H1036.6V275.818H1041.24V302H1036.69V298.906H1036.41C1036.17 299.384 1035.82 299.891 1035.37 300.428C1034.92 300.956 1034.32 301.408 1033.58 301.783C1032.84 302.158 1031.91 302.345 1030.78 302.345ZM1032.07 298.548C1033.05 298.548 1033.89 298.284 1034.58 297.756C1035.27 297.219 1035.79 296.473 1036.15 295.518C1036.51 294.564 1036.69 293.452 1036.69 292.182C1036.69 290.912 1036.51 289.808 1036.15 288.871C1035.8 287.933 1035.28 287.205 1034.59 286.685C1033.91 286.165 1033.07 285.905 1032.07 285.905C1031.04 285.905 1030.18 286.173 1029.49 286.71C1028.8 287.247 1028.28 287.989 1027.93 288.935C1027.58 289.881 1027.41 290.963 1027.41 292.182C1027.41 293.409 1027.58 294.504 1027.93 295.467C1028.29 296.422 1028.81 297.176 1029.5 297.73C1030.2 298.276 1031.06 298.548 1032.07 298.548ZM1062.75 282.364V285.943H1051.46V282.364H1062.75ZM1054.25 277.659H1058.87V296.094C1058.87 296.716 1058.97 297.193 1059.15 297.526C1059.35 297.849 1059.61 298.071 1059.92 298.19C1060.24 298.31 1060.59 298.369 1060.97 298.369C1061.26 298.369 1061.52 298.348 1061.76 298.305C1062.01 298.263 1062.2 298.224 1062.32 298.19L1063.1 301.808C1062.86 301.893 1062.5 301.987 1062.04 302.089C1061.59 302.192 1061.04 302.251 1060.38 302.268C1059.22 302.303 1058.18 302.128 1057.25 301.744C1056.32 301.352 1055.58 300.747 1055.04 299.929C1054.5 299.111 1054.24 298.088 1054.25 296.861V277.659ZM1073.89 302.384C1071.97 302.384 1070.31 301.962 1068.91 301.118C1067.5 300.274 1066.41 299.094 1065.63 297.577C1064.87 296.06 1064.48 294.287 1064.48 292.259C1064.48 290.23 1064.87 288.453 1065.63 286.928C1066.41 285.402 1067.5 284.217 1068.91 283.374C1070.31 282.53 1071.97 282.108 1073.89 282.108C1075.81 282.108 1077.47 282.53 1078.88 283.374C1080.28 284.217 1081.37 285.402 1082.14 286.928C1082.91 288.453 1083.3 290.23 1083.3 292.259C1083.3 294.287 1082.91 296.06 1082.14 297.577C1081.37 299.094 1080.28 300.274 1078.88 301.118C1077.47 301.962 1075.81 302.384 1073.89 302.384ZM1073.92 298.676C1074.96 298.676 1075.83 298.391 1076.52 297.82C1077.22 297.24 1077.74 296.464 1078.08 295.493C1078.43 294.521 1078.61 293.439 1078.61 292.246C1078.61 291.044 1078.43 289.957 1078.08 288.986C1077.74 288.006 1077.22 287.226 1076.52 286.646C1075.83 286.067 1074.96 285.777 1073.92 285.777C1072.85 285.777 1071.97 286.067 1071.26 286.646C1070.56 287.226 1070.03 288.006 1069.69 288.986C1069.34 289.957 1069.17 291.044 1069.17 292.246C1069.17 293.439 1069.34 294.521 1069.69 295.493C1070.03 296.464 1070.56 297.24 1071.26 297.82C1071.97 298.391 1072.85 298.676 1073.92 298.676ZM1103.94 282.364V285.943H1092.34V282.364H1103.94ZM1095.24 302V280.51C1095.24 279.189 1095.51 278.089 1096.06 277.212C1096.61 276.334 1097.35 275.678 1098.28 275.243C1099.21 274.808 1100.24 274.591 1101.37 274.591C1102.18 274.591 1102.89 274.655 1103.51 274.783C1104.13 274.911 1104.59 275.026 1104.89 275.128L1103.97 278.707C1103.77 278.648 1103.53 278.588 1103.23 278.528C1102.93 278.46 1102.6 278.426 1102.23 278.426C1101.37 278.426 1100.76 278.635 1100.4 279.053C1100.05 279.462 1099.88 280.05 1099.88 280.817V302H1095.24ZM1114.44 302.384C1112.47 302.384 1110.77 301.974 1109.34 301.156C1107.92 300.33 1106.82 299.162 1106.06 297.653C1105.29 296.136 1104.91 294.351 1104.91 292.297C1104.91 290.277 1105.29 288.504 1106.06 286.979C1106.83 285.445 1107.91 284.251 1109.3 283.399C1110.69 282.538 1112.33 282.108 1114.2 282.108C1115.41 282.108 1116.55 282.304 1117.63 282.696C1118.71 283.08 1119.66 283.676 1120.49 284.486C1121.33 285.295 1121.98 286.327 1122.46 287.58C1122.94 288.824 1123.17 290.307 1123.17 292.028V293.447H1107.08V290.328H1118.74C1118.73 289.442 1118.54 288.653 1118.16 287.963C1117.79 287.264 1117.26 286.714 1116.59 286.314C1115.93 285.913 1115.15 285.713 1114.26 285.713C1113.32 285.713 1112.49 285.943 1111.77 286.403C1111.06 286.855 1110.5 287.452 1110.1 288.193C1109.7 288.926 1109.5 289.732 1109.5 290.609V293.332C1109.5 294.474 1109.7 295.455 1110.12 296.273C1110.54 297.082 1111.12 297.705 1111.87 298.139C1112.62 298.565 1113.5 298.778 1114.51 298.778C1115.18 298.778 1115.79 298.685 1116.34 298.497C1116.88 298.301 1117.35 298.016 1117.75 297.641C1118.16 297.266 1118.46 296.801 1118.66 296.247L1122.98 296.733C1122.71 297.875 1122.19 298.872 1121.42 299.724C1120.66 300.568 1119.69 301.224 1118.51 301.693C1117.32 302.153 1115.97 302.384 1114.44 302.384ZM1134.7 302.384C1132.73 302.384 1131.03 301.974 1129.6 301.156C1128.18 300.33 1127.08 299.162 1126.32 297.653C1125.55 296.136 1125.17 294.351 1125.17 292.297C1125.17 290.277 1125.55 288.504 1126.32 286.979C1127.09 285.445 1128.17 284.251 1129.56 283.399C1130.95 282.538 1132.59 282.108 1134.46 282.108C1135.67 282.108 1136.81 282.304 1137.89 282.696C1138.97 283.08 1139.92 283.676 1140.75 284.486C1141.59 285.295 1142.24 286.327 1142.72 287.58C1143.2 288.824 1143.43 290.307 1143.43 292.028V293.447H1127.34V290.328H1139C1138.99 289.442 1138.8 288.653 1138.42 287.963C1138.05 287.264 1137.52 286.714 1136.85 286.314C1136.19 285.913 1135.41 285.713 1134.52 285.713C1133.58 285.713 1132.75 285.943 1132.03 286.403C1131.32 286.855 1130.76 287.452 1130.36 288.193C1129.96 288.926 1129.76 289.732 1129.76 290.609V293.332C1129.76 294.474 1129.96 295.455 1130.38 296.273C1130.8 297.082 1131.38 297.705 1132.13 298.139C1132.88 298.565 1133.76 298.778 1134.77 298.778C1135.44 298.778 1136.05 298.685 1136.6 298.497C1137.14 298.301 1137.61 298.016 1138.01 297.641C1138.41 297.266 1138.72 296.801 1138.92 296.247L1143.24 296.733C1142.97 297.875 1142.45 298.872 1141.68 299.724C1140.92 300.568 1139.95 301.224 1138.77 301.693C1137.58 302.153 1136.23 302.384 1134.7 302.384ZM1150.9 275.818V302H1146.27V275.818H1150.9ZM1172.37 282.364V285.943H1160.76V282.364H1172.37ZM1163.67 302V280.51C1163.67 279.189 1163.94 278.089 1164.48 277.212C1165.04 276.334 1165.78 275.678 1166.71 275.243C1167.64 274.808 1168.67 274.591 1169.8 274.591C1170.6 274.591 1171.32 274.655 1171.94 274.783C1172.56 274.911 1173.02 275.026 1173.32 275.128L1172.4 278.707C1172.2 278.648 1171.95 278.588 1171.66 278.528C1171.36 278.46 1171.03 278.426 1170.66 278.426C1169.8 278.426 1169.19 278.635 1168.83 279.053C1168.48 279.462 1168.31 280.05 1168.31 280.817V302H1163.67ZM1187.43 293.741V282.364H1192.06V302H1187.57V298.51H1187.37C1186.93 299.609 1186.2 300.509 1185.18 301.207C1184.18 301.906 1182.94 302.256 1181.46 302.256C1180.18 302.256 1179.04 301.97 1178.05 301.399C1177.07 300.82 1176.3 299.98 1175.75 298.881C1175.19 297.773 1174.92 296.435 1174.92 294.866V282.364H1179.54V294.151C1179.54 295.395 1179.89 296.384 1180.57 297.116C1181.25 297.849 1182.14 298.216 1183.25 298.216C1183.93 298.216 1184.59 298.05 1185.23 297.717C1185.87 297.385 1186.4 296.891 1186.81 296.234C1187.22 295.57 1187.43 294.739 1187.43 293.741ZM1200.37 290.494V302H1195.74V282.364H1200.16V285.7H1200.39C1200.84 284.601 1201.56 283.727 1202.55 283.08C1203.55 282.432 1204.78 282.108 1206.25 282.108C1207.6 282.108 1208.78 282.398 1209.79 282.977C1210.8 283.557 1211.59 284.396 1212.14 285.496C1212.7 286.595 1212.98 287.929 1212.97 289.497V302H1208.34V290.213C1208.34 288.901 1208 287.874 1207.32 287.132C1206.65 286.391 1205.71 286.02 1204.52 286.02C1203.71 286.02 1202.99 286.199 1202.36 286.557C1201.74 286.906 1201.25 287.413 1200.89 288.078C1200.54 288.743 1200.37 289.548 1200.37 290.494ZM1230.1 302.396C1228.85 302.396 1227.73 302.175 1226.73 301.732C1225.75 301.28 1224.96 300.615 1224.38 299.737C1223.81 298.859 1223.53 297.777 1223.53 296.49C1223.53 295.382 1223.73 294.466 1224.14 293.741C1224.55 293.017 1225.11 292.438 1225.81 292.003C1226.52 291.568 1227.32 291.24 1228.2 291.018C1229.1 290.788 1230.02 290.622 1230.98 290.52C1232.13 290.401 1233.06 290.294 1233.78 290.2C1234.49 290.098 1235.01 289.945 1235.34 289.74C1235.67 289.527 1235.84 289.199 1235.84 288.756V288.679C1235.84 287.716 1235.55 286.97 1234.98 286.442C1234.41 285.913 1233.59 285.649 1232.51 285.649C1231.38 285.649 1230.48 285.896 1229.82 286.391C1229.16 286.885 1228.72 287.469 1228.49 288.142L1224.16 287.528C1224.51 286.335 1225.07 285.338 1225.85 284.537C1226.64 283.727 1227.6 283.122 1228.73 282.722C1229.86 282.312 1231.12 282.108 1232.49 282.108C1233.43 282.108 1234.38 282.219 1235.31 282.44C1236.25 282.662 1237.11 283.028 1237.88 283.54C1238.66 284.043 1239.28 284.729 1239.75 285.598C1240.23 286.467 1240.46 287.554 1240.46 288.858V302H1236.02V299.303H1235.86C1235.58 299.848 1235.18 300.359 1234.67 300.837C1234.17 301.305 1233.54 301.685 1232.77 301.974C1232.01 302.256 1231.12 302.396 1230.1 302.396ZM1231.3 298.996C1232.23 298.996 1233.03 298.812 1233.71 298.446C1234.4 298.071 1234.92 297.577 1235.29 296.963C1235.66 296.349 1235.85 295.68 1235.85 294.956V292.642C1235.7 292.761 1235.46 292.872 1235.11 292.974C1234.77 293.077 1234.38 293.166 1233.96 293.243C1233.53 293.32 1233.11 293.388 1232.69 293.447C1232.27 293.507 1231.91 293.558 1231.61 293.601C1230.91 293.695 1230.3 293.848 1229.75 294.061C1229.21 294.274 1228.78 294.572 1228.46 294.956C1228.14 295.331 1227.99 295.817 1227.99 296.413C1227.99 297.266 1228.3 297.909 1228.92 298.344C1229.54 298.778 1230.34 298.996 1231.3 298.996ZM1248.67 290.494V302H1244.04V282.364H1248.46V285.7H1248.69C1249.14 284.601 1249.86 283.727 1250.85 283.08C1251.85 282.432 1253.08 282.108 1254.55 282.108C1255.9 282.108 1257.08 282.398 1258.09 282.977C1259.1 283.557 1259.89 284.396 1260.44 285.496C1261 286.595 1261.28 287.929 1261.27 289.497V302H1256.64V290.213C1256.64 288.901 1256.3 287.874 1255.62 287.132C1254.95 286.391 1254.01 286.02 1252.82 286.02C1252.01 286.02 1251.29 286.199 1250.66 286.557C1250.04 286.906 1249.55 287.413 1249.19 288.078C1248.84 288.743 1248.67 289.548 1248.67 290.494ZM1272.18 302.345C1270.64 302.345 1269.26 301.949 1268.04 301.156C1266.82 300.364 1265.86 299.213 1265.15 297.705C1264.44 296.196 1264.09 294.364 1264.09 292.207C1264.09 290.026 1264.45 288.185 1265.16 286.685C1265.89 285.176 1266.86 284.038 1268.09 283.271C1269.32 282.496 1270.69 282.108 1272.2 282.108C1273.35 282.108 1274.29 282.304 1275.03 282.696C1275.77 283.08 1276.36 283.544 1276.8 284.089C1277.23 284.626 1277.57 285.134 1277.81 285.611H1278V275.818H1282.64V302H1278.09V298.906H1277.81C1277.57 299.384 1277.22 299.891 1276.77 300.428C1276.32 300.956 1275.72 301.408 1274.98 301.783C1274.24 302.158 1273.31 302.345 1272.18 302.345ZM1273.47 298.548C1274.45 298.548 1275.29 298.284 1275.98 297.756C1276.67 297.219 1277.19 296.473 1277.55 295.518C1277.91 294.564 1278.09 293.452 1278.09 292.182C1278.09 290.912 1277.91 289.808 1277.55 288.871C1277.2 287.933 1276.68 287.205 1275.99 286.685C1275.31 286.165 1274.47 285.905 1273.47 285.905C1272.44 285.905 1271.58 286.173 1270.89 286.71C1270.2 287.247 1269.68 287.989 1269.33 288.935C1268.98 289.881 1268.81 290.963 1268.81 292.182C1268.81 293.409 1268.98 294.504 1269.33 295.467C1269.69 296.422 1270.21 297.176 1270.9 297.73C1271.6 298.276 1272.46 298.548 1273.47 298.548ZM1294.34 302V282.364H1298.83V285.636H1299.03C1299.39 284.503 1300 283.629 1300.87 283.016C1301.75 282.393 1302.75 282.082 1303.88 282.082C1304.13 282.082 1304.42 282.095 1304.73 282.121C1305.06 282.138 1305.33 282.168 1305.54 282.21V286.467C1305.34 286.399 1305.03 286.339 1304.61 286.288C1304.19 286.229 1303.78 286.199 1303.39 286.199C1302.55 286.199 1301.79 286.382 1301.12 286.749C1300.45 287.107 1299.93 287.605 1299.54 288.244C1299.16 288.884 1298.97 289.621 1298.97 290.456V302H1294.34ZM1315.42 302.384C1313.45 302.384 1311.75 301.974 1310.32 301.156C1308.89 300.33 1307.8 299.162 1307.03 297.653C1306.27 296.136 1305.88 294.351 1305.88 292.297C1305.88 290.277 1306.27 288.504 1307.03 286.979C1307.81 285.445 1308.89 284.251 1310.28 283.399C1311.67 282.538 1313.3 282.108 1315.18 282.108C1316.39 282.108 1317.53 282.304 1318.6 282.696C1319.68 283.08 1320.64 283.676 1321.47 284.486C1322.3 285.295 1322.96 286.327 1323.43 287.58C1323.91 288.824 1324.15 290.307 1324.15 292.028V293.447H1308.06V290.328H1319.71C1319.71 289.442 1319.51 288.653 1319.14 287.963C1318.76 287.264 1318.24 286.714 1317.57 286.314C1316.9 285.913 1316.13 285.713 1315.24 285.713C1314.29 285.713 1313.46 285.943 1312.75 286.403C1312.03 286.855 1311.47 287.452 1311.07 288.193C1310.68 288.926 1310.48 289.732 1310.47 290.609V293.332C1310.47 294.474 1310.68 295.455 1311.1 296.273C1311.52 297.082 1312.1 297.705 1312.85 298.139C1313.6 298.565 1314.48 298.778 1315.48 298.778C1316.16 298.778 1316.77 298.685 1317.31 298.497C1317.86 298.301 1318.33 298.016 1318.73 297.641C1319.13 297.266 1319.43 296.801 1319.64 296.247L1323.96 296.733C1323.69 297.875 1323.17 298.872 1322.4 299.724C1321.64 300.568 1320.67 301.224 1319.48 301.693C1318.3 302.153 1316.94 302.384 1315.42 302.384ZM1330.93 302L1325.38 282.364H1330.1L1333.55 296.17H1333.73L1337.26 282.364H1341.93L1345.46 296.094H1345.65L1349.05 282.364H1353.78L1348.22 302H1343.4L1339.72 288.73H1339.45L1335.77 302H1330.93ZM1361.58 302.396C1360.34 302.396 1359.21 302.175 1358.22 301.732C1357.23 301.28 1356.44 300.615 1355.87 299.737C1355.29 298.859 1355.01 297.777 1355.01 296.49C1355.01 295.382 1355.21 294.466 1355.62 293.741C1356.03 293.017 1356.59 292.438 1357.3 292.003C1358 291.568 1358.8 291.24 1359.69 291.018C1360.58 290.788 1361.51 290.622 1362.46 290.52C1363.61 290.401 1364.55 290.294 1365.26 290.2C1365.98 290.098 1366.5 289.945 1366.82 289.74C1367.15 289.527 1367.32 289.199 1367.32 288.756V288.679C1367.32 287.716 1367.03 286.97 1366.46 286.442C1365.89 285.913 1365.07 285.649 1364 285.649C1362.86 285.649 1361.96 285.896 1361.3 286.391C1360.64 286.885 1360.2 287.469 1359.97 288.142L1355.65 287.528C1355.99 286.335 1356.55 285.338 1357.34 284.537C1358.12 283.727 1359.08 283.122 1360.21 282.722C1361.35 282.312 1362.6 282.108 1363.97 282.108C1364.92 282.108 1365.86 282.219 1366.8 282.44C1367.73 282.662 1368.59 283.028 1369.37 283.54C1370.14 284.043 1370.76 284.729 1371.23 285.598C1371.71 286.467 1371.95 287.554 1371.95 288.858V302H1367.5V299.303H1367.35C1367.06 299.848 1366.67 300.359 1366.16 300.837C1365.65 301.305 1365.02 301.685 1364.25 301.974C1363.49 302.256 1362.6 302.396 1361.58 302.396ZM1362.78 298.996C1363.71 298.996 1364.52 298.812 1365.2 298.446C1365.88 298.071 1366.4 297.577 1366.77 296.963C1367.15 296.349 1367.33 295.68 1367.33 294.956V292.642C1367.19 292.761 1366.94 292.872 1366.59 292.974C1366.25 293.077 1365.87 293.166 1365.44 293.243C1365.01 293.32 1364.59 293.388 1364.17 293.447C1363.76 293.507 1363.4 293.558 1363.09 293.601C1362.4 293.695 1361.78 293.848 1361.23 294.061C1360.69 294.274 1360.26 294.572 1359.94 294.956C1359.63 295.331 1359.47 295.817 1359.47 296.413C1359.47 297.266 1359.78 297.909 1360.4 298.344C1361.03 298.778 1361.82 298.996 1362.78 298.996ZM1375.52 302V282.364H1380.01V285.636H1380.21C1380.57 284.503 1381.18 283.629 1382.05 283.016C1382.93 282.393 1383.93 282.082 1385.06 282.082C1385.31 282.082 1385.6 282.095 1385.91 282.121C1386.24 282.138 1386.51 282.168 1386.72 282.21V286.467C1386.52 286.399 1386.21 286.339 1385.79 286.288C1385.37 286.229 1384.96 286.199 1384.57 286.199C1383.73 286.199 1382.97 286.382 1382.3 286.749C1381.63 287.107 1381.11 287.605 1380.72 288.244C1380.34 288.884 1380.15 289.621 1380.15 290.456V302H1375.52ZM1395.19 302.345C1393.65 302.345 1392.27 301.949 1391.05 301.156C1389.83 300.364 1388.87 299.213 1388.16 297.705C1387.45 296.196 1387.1 294.364 1387.1 292.207C1387.1 290.026 1387.46 288.185 1388.17 286.685C1388.9 285.176 1389.87 284.038 1391.1 283.271C1392.33 282.496 1393.7 282.108 1395.21 282.108C1396.36 282.108 1397.3 282.304 1398.04 282.696C1398.79 283.08 1399.37 283.544 1399.81 284.089C1400.24 284.626 1400.58 285.134 1400.82 285.611H1401.01V275.818H1405.65V302H1401.1V298.906H1400.82C1400.58 299.384 1400.23 299.891 1399.78 300.428C1399.33 300.956 1398.73 301.408 1397.99 301.783C1397.25 302.158 1396.32 302.345 1395.19 302.345ZM1396.48 298.548C1397.46 298.548 1398.3 298.284 1398.99 297.756C1399.68 297.219 1400.2 296.473 1400.56 295.518C1400.92 294.564 1401.1 293.452 1401.1 292.182C1401.1 290.912 1400.92 289.808 1400.56 288.871C1400.21 287.933 1399.69 287.205 1399 286.685C1398.32 286.165 1397.48 285.905 1396.48 285.905C1395.45 285.905 1394.59 286.173 1393.9 286.71C1393.21 287.247 1392.69 287.989 1392.34 288.935C1391.99 289.881 1391.82 290.963 1391.82 292.182C1391.82 293.409 1391.99 294.504 1392.34 295.467C1392.7 296.422 1393.22 297.176 1393.91 297.73C1394.61 298.276 1395.47 298.548 1396.48 298.548ZM1409.5 302V282.364H1414.13V302H1409.5ZM1411.83 279.577C1411.1 279.577 1410.46 279.334 1409.94 278.848C1409.41 278.354 1409.14 277.761 1409.14 277.071C1409.14 276.372 1409.41 275.78 1409.94 275.294C1410.46 274.8 1411.1 274.553 1411.83 274.553C1412.57 274.553 1413.2 274.8 1413.72 275.294C1414.25 275.78 1414.51 276.372 1414.51 277.071C1414.51 277.761 1414.25 278.354 1413.72 278.848C1413.2 279.334 1412.57 279.577 1411.83 279.577ZM1422.44 290.494V302H1417.81V282.364H1422.23V285.7H1422.46C1422.91 284.601 1423.63 283.727 1424.62 283.08C1425.62 282.432 1426.85 282.108 1428.32 282.108C1429.67 282.108 1430.85 282.398 1431.86 282.977C1432.87 283.557 1433.66 284.396 1434.21 285.496C1434.77 286.595 1435.05 287.929 1435.04 289.497V302H1430.41V290.213C1430.41 288.901 1430.07 287.874 1429.39 287.132C1428.72 286.391 1427.78 286.02 1426.59 286.02C1425.78 286.02 1425.06 286.199 1424.43 286.557C1423.81 286.906 1423.32 287.413 1422.96 288.078C1422.61 288.743 1422.44 289.548 1422.44 290.494ZM1447.21 309.773C1445.54 309.773 1444.12 309.547 1442.92 309.095C1441.73 308.652 1440.77 308.055 1440.05 307.305C1439.32 306.555 1438.82 305.724 1438.54 304.812L1442.71 303.803C1442.89 304.186 1443.17 304.565 1443.52 304.94C1443.88 305.324 1444.36 305.639 1444.97 305.886C1445.58 306.142 1446.35 306.27 1447.28 306.27C1448.59 306.27 1449.68 305.95 1450.54 305.311C1451.4 304.68 1451.83 303.641 1451.83 302.192V298.472H1451.6C1451.36 298.949 1451.02 299.439 1450.56 299.942C1450.1 300.445 1449.5 300.866 1448.75 301.207C1448.01 301.548 1447.08 301.719 1445.95 301.719C1444.44 301.719 1443.08 301.365 1441.85 300.658C1440.63 299.942 1439.66 298.876 1438.93 297.462C1438.22 296.038 1437.86 294.257 1437.86 292.118C1437.86 289.962 1438.22 288.142 1438.93 286.659C1439.66 285.168 1440.63 284.038 1441.86 283.271C1443.09 282.496 1444.46 282.108 1445.97 282.108C1447.12 282.108 1448.06 282.304 1448.8 282.696C1449.55 283.08 1450.15 283.544 1450.59 284.089C1451.04 284.626 1451.37 285.134 1451.6 285.611H1451.86V282.364H1456.42V302.32C1456.42 303.999 1456.02 305.388 1455.22 306.487C1454.42 307.587 1453.32 308.409 1451.94 308.955C1450.55 309.5 1448.97 309.773 1447.21 309.773ZM1447.24 298.088C1448.22 298.088 1449.06 297.849 1449.75 297.372C1450.44 296.895 1450.96 296.209 1451.32 295.314C1451.68 294.419 1451.86 293.345 1451.86 292.092C1451.86 290.857 1451.68 289.774 1451.32 288.845C1450.97 287.916 1450.45 287.196 1449.76 286.685C1449.08 286.165 1448.24 285.905 1447.24 285.905C1446.21 285.905 1445.35 286.173 1444.66 286.71C1443.97 287.247 1443.45 287.984 1443.1 288.922C1442.75 289.851 1442.58 290.908 1442.58 292.092C1442.58 293.294 1442.75 294.347 1443.1 295.25C1443.46 296.145 1443.98 296.844 1444.67 297.347C1445.37 297.841 1446.23 298.088 1447.24 298.088Z" fill="#F4F4F4"/>
<rect x="1509" y="241" width="889" height="96" rx="48" fill="#3263C3"/>
<path d="M1543.58 302V275.818H1560.61V279.794H1548.33V286.902H1559.73V290.878H1548.33V298.024H1560.71V302H1543.58ZM1581.7 282.364L1574.71 302H1569.6L1562.61 282.364H1567.54L1572.05 296.95H1572.26L1576.78 282.364H1581.7ZM1591.85 302.384C1589.88 302.384 1588.18 301.974 1586.75 301.156C1585.33 300.33 1584.23 299.162 1583.47 297.653C1582.7 296.136 1582.32 294.351 1582.32 292.297C1582.32 290.277 1582.7 288.504 1583.47 286.979C1584.24 285.445 1585.32 284.251 1586.71 283.399C1588.1 282.538 1589.73 282.108 1591.61 282.108C1592.82 282.108 1593.96 282.304 1595.04 282.696C1596.12 283.08 1597.07 283.676 1597.9 284.486C1598.73 285.295 1599.39 286.327 1599.87 287.58C1600.35 288.824 1600.58 290.307 1600.58 292.028V293.447H1584.49V290.328H1596.15C1596.14 289.442 1595.95 288.653 1595.57 287.963C1595.2 287.264 1594.67 286.714 1594 286.314C1593.34 285.913 1592.56 285.713 1591.67 285.713C1590.73 285.713 1589.9 285.943 1589.18 286.403C1588.46 286.855 1587.91 287.452 1587.51 288.193C1587.11 288.926 1586.91 289.732 1586.9 290.609V293.332C1586.9 294.474 1587.11 295.455 1587.53 296.273C1587.95 297.082 1588.53 297.705 1589.28 298.139C1590.03 298.565 1590.91 298.778 1591.92 298.778C1592.59 298.778 1593.2 298.685 1593.74 298.497C1594.29 298.301 1594.76 298.016 1595.16 297.641C1595.56 297.266 1595.87 296.801 1596.07 296.247L1600.39 296.733C1600.12 297.875 1599.6 298.872 1598.83 299.724C1598.07 300.568 1597.1 301.224 1595.92 301.693C1594.73 302.153 1593.38 302.384 1591.85 302.384ZM1608.05 290.494V302H1603.42V282.364H1607.84V285.7H1608.07C1608.52 284.601 1609.24 283.727 1610.23 283.08C1611.23 282.432 1612.46 282.108 1613.93 282.108C1615.28 282.108 1616.46 282.398 1617.47 282.977C1618.48 283.557 1619.27 284.396 1619.82 285.496C1620.38 286.595 1620.66 287.929 1620.65 289.497V302H1616.02V290.213C1616.02 288.901 1615.68 287.874 1615 287.132C1614.33 286.391 1613.39 286.02 1612.2 286.02C1611.39 286.02 1610.67 286.199 1610.04 286.557C1609.42 286.906 1608.93 287.413 1608.57 288.078C1608.22 288.743 1608.05 289.548 1608.05 290.494ZM1634.08 282.364V285.943H1622.79V282.364H1634.08ZM1625.58 277.659H1630.21V296.094C1630.21 296.716 1630.3 297.193 1630.49 297.526C1630.69 297.849 1630.94 298.071 1631.26 298.19C1631.57 298.31 1631.92 298.369 1632.31 298.369C1632.59 298.369 1632.86 298.348 1633.1 298.305C1633.34 298.263 1633.53 298.224 1633.66 298.19L1634.44 301.808C1634.19 301.893 1633.84 301.987 1633.38 302.089C1632.93 302.192 1632.37 302.251 1631.72 302.268C1630.56 302.303 1629.51 302.128 1628.58 301.744C1627.66 301.352 1626.92 300.747 1626.37 299.929C1625.84 299.111 1625.57 298.088 1625.58 296.861V277.659ZM1652.11 287.554L1647.89 288.014C1647.77 287.588 1647.56 287.188 1647.27 286.812C1646.98 286.438 1646.58 286.135 1646.09 285.905C1645.6 285.675 1644.99 285.56 1644.27 285.56C1643.31 285.56 1642.5 285.768 1641.85 286.186C1641.2 286.604 1640.88 287.145 1640.89 287.81C1640.88 288.381 1641.09 288.845 1641.51 289.203C1641.95 289.561 1642.66 289.855 1643.66 290.085L1647.01 290.801C1648.87 291.202 1650.25 291.837 1651.15 292.706C1652.06 293.575 1652.52 294.713 1652.53 296.119C1652.52 297.355 1652.16 298.446 1651.45 299.392C1650.74 300.33 1649.75 301.062 1648.49 301.591C1647.23 302.119 1645.78 302.384 1644.15 302.384C1641.74 302.384 1639.81 301.881 1638.34 300.875C1636.88 299.861 1636 298.45 1635.72 296.643L1640.23 296.209C1640.44 297.095 1640.87 297.764 1641.54 298.216C1642.2 298.668 1643.07 298.893 1644.13 298.893C1645.23 298.893 1646.12 298.668 1646.78 298.216C1647.45 297.764 1647.79 297.206 1647.79 296.541C1647.79 295.979 1647.57 295.514 1647.14 295.148C1646.71 294.781 1646.05 294.5 1645.14 294.304L1641.79 293.601C1639.91 293.209 1638.52 292.548 1637.61 291.619C1636.71 290.682 1636.26 289.497 1636.27 288.065C1636.26 286.855 1636.59 285.807 1637.26 284.92C1637.93 284.026 1638.86 283.335 1640.06 282.849C1641.26 282.355 1642.64 282.108 1644.21 282.108C1646.51 282.108 1648.32 282.598 1649.64 283.578C1650.97 284.558 1651.8 285.884 1652.11 287.554ZM1678.64 287.554L1674.42 288.014C1674.3 287.588 1674.09 287.188 1673.79 286.812C1673.5 286.438 1673.11 286.135 1672.62 285.905C1672.12 285.675 1671.52 285.56 1670.8 285.56C1669.84 285.56 1669.03 285.768 1668.37 286.186C1667.73 286.604 1667.41 287.145 1667.41 287.81C1667.41 288.381 1667.61 288.845 1668.04 289.203C1668.48 289.561 1669.19 289.855 1670.19 290.085L1673.54 290.801C1675.4 291.202 1676.78 291.837 1677.68 292.706C1678.59 293.575 1679.05 294.713 1679.06 296.119C1679.05 297.355 1678.69 298.446 1677.97 299.392C1677.27 300.33 1676.28 301.062 1675.02 301.591C1673.76 302.119 1672.31 302.384 1670.67 302.384C1668.27 302.384 1666.34 301.881 1664.87 300.875C1663.4 299.861 1662.53 298.45 1662.25 296.643L1666.76 296.209C1666.97 297.095 1667.4 297.764 1668.07 298.216C1668.73 298.668 1669.6 298.893 1670.66 298.893C1671.76 298.893 1672.64 298.668 1673.31 298.216C1673.98 297.764 1674.32 297.206 1674.32 296.541C1674.32 295.979 1674.1 295.514 1673.67 295.148C1673.24 294.781 1672.57 294.5 1671.67 294.304L1668.32 293.601C1666.44 293.209 1665.04 292.548 1664.14 291.619C1663.24 290.682 1662.79 289.497 1662.8 288.065C1662.79 286.855 1663.12 285.807 1663.78 284.92C1664.46 284.026 1665.39 283.335 1666.58 282.849C1667.78 282.355 1669.17 282.108 1670.74 282.108C1673.04 282.108 1674.85 282.598 1676.17 283.578C1677.5 284.558 1678.32 285.884 1678.64 287.554ZM1686.42 290.494V302H1681.8V275.818H1686.32V285.7H1686.55C1687.01 284.592 1687.72 283.719 1688.69 283.08C1689.66 282.432 1690.89 282.108 1692.39 282.108C1693.76 282.108 1694.95 282.393 1695.96 282.964C1696.98 283.536 1697.76 284.371 1698.31 285.47C1698.88 286.57 1699.16 287.912 1699.16 289.497V302H1694.53V290.213C1694.53 288.892 1694.19 287.865 1693.51 287.132C1692.83 286.391 1691.89 286.02 1690.67 286.02C1689.85 286.02 1689.12 286.199 1688.47 286.557C1687.83 286.906 1687.33 287.413 1686.96 288.078C1686.6 288.743 1686.42 289.548 1686.42 290.494ZM1711.36 302.384C1709.44 302.384 1707.78 301.962 1706.37 301.118C1704.97 300.274 1703.88 299.094 1703.1 297.577C1702.33 296.06 1701.95 294.287 1701.95 292.259C1701.95 290.23 1702.33 288.453 1703.1 286.928C1703.88 285.402 1704.97 284.217 1706.37 283.374C1707.78 282.53 1709.44 282.108 1711.36 282.108C1713.28 282.108 1714.94 282.53 1716.35 283.374C1717.75 284.217 1718.84 285.402 1719.61 286.928C1720.38 288.453 1720.77 290.23 1720.77 292.259C1720.77 294.287 1720.38 296.06 1719.61 297.577C1718.84 299.094 1717.75 300.274 1716.35 301.118C1714.94 301.962 1713.28 302.384 1711.36 302.384ZM1711.39 298.676C1712.43 298.676 1713.29 298.391 1713.99 297.82C1714.69 297.24 1715.21 296.464 1715.55 295.493C1715.9 294.521 1716.08 293.439 1716.08 292.246C1716.08 291.044 1715.9 289.957 1715.55 288.986C1715.21 288.006 1714.69 287.226 1713.99 286.646C1713.29 286.067 1712.43 285.777 1711.39 285.777C1710.32 285.777 1709.43 286.067 1708.73 286.646C1708.03 287.226 1707.5 288.006 1707.15 288.986C1706.81 289.957 1706.64 291.044 1706.64 292.246C1706.64 293.439 1706.81 294.521 1707.15 295.493C1707.5 296.464 1708.03 297.24 1708.73 297.82C1709.43 298.391 1710.32 298.676 1711.39 298.676ZM1736.13 293.741V282.364H1740.76V302H1736.27V298.51H1736.07C1735.63 299.609 1734.9 300.509 1733.88 301.207C1732.88 301.906 1731.64 302.256 1730.16 302.256C1728.88 302.256 1727.74 301.97 1726.75 301.399C1725.77 300.82 1725 299.98 1724.45 298.881C1723.89 297.773 1723.62 296.435 1723.62 294.866V282.364H1728.24V294.151C1728.24 295.395 1728.59 296.384 1729.27 297.116C1729.95 297.849 1730.84 298.216 1731.95 298.216C1732.63 298.216 1733.29 298.05 1733.93 297.717C1734.57 297.385 1735.1 296.891 1735.51 296.234C1735.92 295.57 1736.13 294.739 1736.13 293.741ZM1749.07 275.818V302H1744.44V275.818H1749.07ZM1760.03 302.345C1758.49 302.345 1757.11 301.949 1755.89 301.156C1754.67 300.364 1753.71 299.213 1753 297.705C1752.29 296.196 1751.94 294.364 1751.94 292.207C1751.94 290.026 1752.3 288.185 1753.01 286.685C1753.74 285.176 1754.71 284.038 1755.94 283.271C1757.17 282.496 1758.54 282.108 1760.05 282.108C1761.2 282.108 1762.14 282.304 1762.88 282.696C1763.63 283.08 1764.21 283.544 1764.65 284.089C1765.08 284.626 1765.42 285.134 1765.66 285.611H1765.85V275.818H1770.49V302H1765.94V298.906H1765.66C1765.42 299.384 1765.07 299.891 1764.62 300.428C1764.17 300.956 1763.57 301.408 1762.83 301.783C1762.09 302.158 1761.16 302.345 1760.03 302.345ZM1761.32 298.548C1762.3 298.548 1763.14 298.284 1763.83 297.756C1764.52 297.219 1765.04 296.473 1765.4 295.518C1765.76 294.564 1765.94 293.452 1765.94 292.182C1765.94 290.912 1765.76 289.808 1765.4 288.871C1765.05 287.933 1764.53 287.205 1763.84 286.685C1763.16 286.165 1762.32 285.905 1761.32 285.905C1760.29 285.905 1759.43 286.173 1758.74 286.71C1758.05 287.247 1757.53 287.989 1757.18 288.935C1756.83 289.881 1756.66 290.963 1756.66 292.182C1756.66 293.409 1756.83 294.504 1757.18 295.467C1757.54 296.422 1758.06 297.176 1758.75 297.73C1759.45 298.276 1760.31 298.548 1761.32 298.548ZM1782.4 302V275.818H1787.02V285.611H1787.22C1787.45 285.134 1787.79 284.626 1788.23 284.089C1788.66 283.544 1789.25 283.08 1789.99 282.696C1790.73 282.304 1791.68 282.108 1792.83 282.108C1794.34 282.108 1795.71 282.496 1796.93 283.271C1798.16 284.038 1799.13 285.176 1799.85 286.685C1800.57 288.185 1800.93 290.026 1800.93 292.207C1800.93 294.364 1800.58 296.196 1799.87 297.705C1799.16 299.213 1798.2 300.364 1796.98 301.156C1795.76 301.949 1794.38 302.345 1792.84 302.345C1791.72 302.345 1790.78 302.158 1790.04 301.783C1789.3 301.408 1788.7 300.956 1788.25 300.428C1787.81 299.891 1787.46 299.384 1787.22 298.906H1786.95V302H1782.4ZM1786.93 292.182C1786.93 293.452 1787.11 294.564 1787.47 295.518C1787.84 296.473 1788.36 297.219 1789.04 297.756C1789.73 298.284 1790.57 298.548 1791.55 298.548C1792.57 298.548 1793.43 298.276 1794.12 297.73C1794.81 297.176 1795.33 296.422 1795.68 295.467C1796.04 294.504 1796.22 293.409 1796.22 292.182C1796.22 290.963 1796.04 289.881 1795.69 288.935C1795.34 287.989 1794.82 287.247 1794.13 286.71C1793.44 286.173 1792.58 285.905 1791.55 285.905C1790.56 285.905 1789.72 286.165 1789.03 286.685C1788.34 287.205 1787.82 287.933 1787.46 288.871C1787.11 289.808 1786.93 290.912 1786.93 292.182ZM1812.48 302.384C1810.51 302.384 1808.81 301.974 1807.38 301.156C1805.96 300.33 1804.86 299.162 1804.09 297.653C1803.33 296.136 1802.94 294.351 1802.94 292.297C1802.94 290.277 1803.33 288.504 1804.09 286.979C1804.87 285.445 1805.95 284.251 1807.34 283.399C1808.73 282.538 1810.36 282.108 1812.24 282.108C1813.45 282.108 1814.59 282.304 1815.66 282.696C1816.75 283.08 1817.7 283.676 1818.53 284.486C1819.36 285.295 1820.02 286.327 1820.5 287.58C1820.97 288.824 1821.21 290.307 1821.21 292.028V293.447H1805.12V290.328H1816.78C1816.77 289.442 1816.58 288.653 1816.2 287.963C1815.83 287.264 1815.3 286.714 1814.63 286.314C1813.96 285.913 1813.19 285.713 1812.3 285.713C1811.36 285.713 1810.52 285.943 1809.81 286.403C1809.09 286.855 1808.53 287.452 1808.13 288.193C1807.74 288.926 1807.54 289.732 1807.53 290.609V293.332C1807.53 294.474 1807.74 295.455 1808.16 296.273C1808.58 297.082 1809.16 297.705 1809.91 298.139C1810.66 298.565 1811.54 298.778 1812.54 298.778C1813.22 298.778 1813.83 298.685 1814.37 298.497C1814.92 298.301 1815.39 298.016 1815.79 297.641C1816.19 297.266 1816.49 296.801 1816.7 296.247L1821.02 296.733C1820.75 297.875 1820.23 298.872 1819.46 299.724C1818.7 300.568 1817.73 301.224 1816.55 301.693C1815.36 302.153 1814.01 302.384 1812.48 302.384ZM1840.59 302.384C1838.62 302.384 1836.92 301.974 1835.49 301.156C1834.07 300.33 1832.97 299.162 1832.2 297.653C1831.44 296.136 1831.05 294.351 1831.05 292.297C1831.05 290.277 1831.44 288.504 1832.2 286.979C1832.98 285.445 1834.06 284.251 1835.45 283.399C1836.84 282.538 1838.47 282.108 1840.35 282.108C1841.56 282.108 1842.7 282.304 1843.77 282.696C1844.86 283.08 1845.81 283.676 1846.64 284.486C1847.47 285.295 1848.13 286.327 1848.61 287.58C1849.08 288.824 1849.32 290.307 1849.32 292.028V293.447H1833.23V290.328H1844.89C1844.88 289.442 1844.69 288.653 1844.31 287.963C1843.94 287.264 1843.41 286.714 1842.74 286.314C1842.07 285.913 1841.3 285.713 1840.41 285.713C1839.46 285.713 1838.63 285.943 1837.92 286.403C1837.2 286.855 1836.64 287.452 1836.24 288.193C1835.85 288.926 1835.65 289.732 1835.64 290.609V293.332C1835.64 294.474 1835.85 295.455 1836.27 296.273C1836.69 297.082 1837.27 297.705 1838.02 298.139C1838.77 298.565 1839.65 298.778 1840.65 298.778C1841.33 298.778 1841.94 298.685 1842.48 298.497C1843.03 298.301 1843.5 298.016 1843.9 297.641C1844.3 297.266 1844.6 296.801 1844.81 296.247L1849.13 296.733C1848.86 297.875 1848.34 298.872 1847.57 299.724C1846.81 300.568 1845.84 301.224 1844.66 301.693C1843.47 302.153 1842.12 302.384 1840.59 302.384ZM1857.81 302.396C1856.56 302.396 1855.44 302.175 1854.44 301.732C1853.46 301.28 1852.67 300.615 1852.09 299.737C1851.52 298.859 1851.24 297.777 1851.24 296.49C1851.24 295.382 1851.44 294.466 1851.85 293.741C1852.26 293.017 1852.82 292.438 1853.52 292.003C1854.23 291.568 1855.03 291.24 1855.92 291.018C1856.81 290.788 1857.73 290.622 1858.69 290.52C1859.84 290.401 1860.77 290.294 1861.49 290.2C1862.2 290.098 1862.72 289.945 1863.05 289.74C1863.38 289.527 1863.55 289.199 1863.55 288.756V288.679C1863.55 287.716 1863.26 286.97 1862.69 286.442C1862.12 285.913 1861.3 285.649 1860.22 285.649C1859.09 285.649 1858.19 285.896 1857.53 286.391C1856.87 286.885 1856.43 287.469 1856.2 288.142L1851.88 287.528C1852.22 286.335 1852.78 285.338 1853.56 284.537C1854.35 283.727 1855.31 283.122 1856.44 282.722C1857.57 282.312 1858.83 282.108 1860.2 282.108C1861.14 282.108 1862.09 282.219 1863.02 282.44C1863.96 282.662 1864.82 283.028 1865.59 283.54C1866.37 284.043 1866.99 284.729 1867.46 285.598C1867.94 286.467 1868.18 287.554 1868.18 288.858V302H1863.73V299.303H1863.57C1863.29 299.848 1862.9 300.359 1862.38 300.837C1861.88 301.305 1861.25 301.685 1860.48 301.974C1859.72 302.256 1858.83 302.396 1857.81 302.396ZM1859.01 298.996C1859.94 298.996 1860.74 298.812 1861.43 298.446C1862.11 298.071 1862.63 297.577 1863 296.963C1863.37 296.349 1863.56 295.68 1863.56 294.956V292.642C1863.42 292.761 1863.17 292.872 1862.82 292.974C1862.48 293.077 1862.09 293.166 1861.67 293.243C1861.24 293.32 1860.82 293.388 1860.4 293.447C1859.98 293.507 1859.62 293.558 1859.32 293.601C1858.63 293.695 1858.01 293.848 1857.46 294.061C1856.92 294.274 1856.49 294.572 1856.17 294.956C1855.86 295.331 1855.7 295.817 1855.7 296.413C1855.7 297.266 1856.01 297.909 1856.63 298.344C1857.25 298.778 1858.05 298.996 1859.01 298.996ZM1887.27 287.554L1883.05 288.014C1882.93 287.588 1882.72 287.188 1882.42 286.812C1882.13 286.438 1881.74 286.135 1881.25 285.905C1880.75 285.675 1880.15 285.56 1879.43 285.56C1878.47 285.56 1877.66 285.768 1877 286.186C1876.36 286.604 1876.04 287.145 1876.04 287.81C1876.04 288.381 1876.24 288.845 1876.67 289.203C1877.11 289.561 1877.82 289.855 1878.82 290.085L1882.17 290.801C1884.03 291.202 1885.41 291.837 1886.31 292.706C1887.22 293.575 1887.68 294.713 1887.69 296.119C1887.68 297.355 1887.32 298.446 1886.6 299.392C1885.9 300.33 1884.91 301.062 1883.65 301.591C1882.39 302.119 1880.94 302.384 1879.3 302.384C1876.9 302.384 1874.97 301.881 1873.5 300.875C1872.03 299.861 1871.16 298.45 1870.88 296.643L1875.39 296.209C1875.6 297.095 1876.03 297.764 1876.7 298.216C1877.36 298.668 1878.23 298.893 1879.29 298.893C1880.39 298.893 1881.27 298.668 1881.94 298.216C1882.61 297.764 1882.95 297.206 1882.95 296.541C1882.95 295.979 1882.73 295.514 1882.3 295.148C1881.87 294.781 1881.2 294.5 1880.3 294.304L1876.95 293.601C1875.07 293.209 1873.67 292.548 1872.77 291.619C1871.87 290.682 1871.42 289.497 1871.43 288.065C1871.42 286.855 1871.75 285.807 1872.41 284.92C1873.09 284.026 1874.02 283.335 1875.21 282.849C1876.41 282.355 1877.8 282.108 1879.37 282.108C1881.67 282.108 1883.48 282.598 1884.8 283.578C1886.13 284.558 1886.95 285.884 1887.27 287.554ZM1893.3 309.364C1892.67 309.364 1892.09 309.313 1891.55 309.21C1891.02 309.116 1890.6 309.006 1890.29 308.878L1891.36 305.273C1892.03 305.469 1892.63 305.563 1893.16 305.554C1893.69 305.545 1894.15 305.379 1894.56 305.055C1894.96 304.74 1895.31 304.212 1895.59 303.47L1895.99 302.409L1888.87 282.364H1893.78L1898.3 297.193H1898.51L1903.04 282.364H1907.97L1900.1 304.378C1899.74 305.418 1899.25 306.308 1898.65 307.05C1898.04 307.8 1897.3 308.371 1896.42 308.763C1895.55 309.163 1894.51 309.364 1893.3 309.364ZM1927.74 282.364V285.943H1916.46V282.364H1927.74ZM1919.24 277.659H1923.87V296.094C1923.87 296.716 1923.96 297.193 1924.15 297.526C1924.35 297.849 1924.6 298.071 1924.92 298.19C1925.23 298.31 1925.58 298.369 1925.97 298.369C1926.26 298.369 1926.52 298.348 1926.76 298.305C1927.01 298.263 1927.19 298.224 1927.32 298.19L1928.1 301.808C1927.85 301.893 1927.5 301.987 1927.04 302.089C1926.59 302.192 1926.03 302.251 1925.38 302.268C1924.22 302.303 1923.18 302.128 1922.25 301.744C1921.32 301.352 1920.58 300.747 1920.03 299.929C1919.5 299.111 1919.23 298.088 1919.24 296.861V277.659ZM1938.89 302.384C1936.97 302.384 1935.31 301.962 1933.9 301.118C1932.5 300.274 1931.41 299.094 1930.63 297.577C1929.86 296.06 1929.48 294.287 1929.48 292.259C1929.48 290.23 1929.86 288.453 1930.63 286.928C1931.41 285.402 1932.5 284.217 1933.9 283.374C1935.31 282.53 1936.97 282.108 1938.89 282.108C1940.81 282.108 1942.47 282.53 1943.87 283.374C1945.28 284.217 1946.37 285.402 1947.13 286.928C1947.91 288.453 1948.3 290.23 1948.3 292.259C1948.3 294.287 1947.91 296.06 1947.13 297.577C1946.37 299.094 1945.28 300.274 1943.87 301.118C1942.47 301.962 1940.81 302.384 1938.89 302.384ZM1938.91 298.676C1939.95 298.676 1940.82 298.391 1941.52 297.82C1942.22 297.24 1942.74 296.464 1943.08 295.493C1943.43 294.521 1943.61 293.439 1943.61 292.246C1943.61 291.044 1943.43 289.957 1943.08 288.986C1942.74 288.006 1942.22 287.226 1941.52 286.646C1940.82 286.067 1939.95 285.777 1938.91 285.777C1937.85 285.777 1936.96 286.067 1936.25 286.646C1935.56 287.226 1935.03 288.006 1934.68 288.986C1934.34 289.957 1934.17 291.044 1934.17 292.246C1934.17 293.439 1934.34 294.521 1934.68 295.493C1935.03 296.464 1935.56 297.24 1936.25 297.82C1936.96 298.391 1937.85 298.676 1938.91 298.676ZM1968.94 282.364V285.943H1957.33V282.364H1968.94ZM1960.24 302V280.51C1960.24 279.189 1960.51 278.089 1961.05 277.212C1961.61 276.334 1962.35 275.678 1963.28 275.243C1964.21 274.808 1965.24 274.591 1966.37 274.591C1967.17 274.591 1967.88 274.655 1968.51 274.783C1969.13 274.911 1969.59 275.026 1969.89 275.128L1968.97 278.707C1968.77 278.648 1968.52 278.588 1968.23 278.528C1967.93 278.46 1967.59 278.426 1967.23 278.426C1966.37 278.426 1965.76 278.635 1965.4 279.053C1965.05 279.462 1964.88 280.05 1964.88 280.817V302H1960.24ZM1971.49 302V282.364H1976.11V302H1971.49ZM1973.81 279.577C1973.08 279.577 1972.45 279.334 1971.92 278.848C1971.39 278.354 1971.13 277.761 1971.13 277.071C1971.13 276.372 1971.39 275.78 1971.92 275.294C1972.45 274.8 1973.08 274.553 1973.81 274.553C1974.55 274.553 1975.18 274.8 1975.7 275.294C1976.23 275.78 1976.5 276.372 1976.5 277.071C1976.5 277.761 1976.23 278.354 1975.7 278.848C1975.18 279.334 1974.55 279.577 1973.81 279.577ZM1984.42 290.494V302H1979.79V282.364H1984.22V285.7H1984.45C1984.9 284.601 1985.62 283.727 1986.61 283.08C1987.6 282.432 1988.83 282.108 1990.3 282.108C1991.66 282.108 1992.84 282.398 1993.84 282.977C1994.86 283.557 1995.64 284.396 1996.19 285.496C1996.76 286.595 1997.03 287.929 1997.03 289.497V302H1992.4V290.213C1992.4 288.901 1992.06 287.874 1991.37 287.132C1990.7 286.391 1989.77 286.02 1988.57 286.02C1987.77 286.02 1987.04 286.199 1986.41 286.557C1985.79 286.906 1985.3 287.413 1984.94 288.078C1984.59 288.743 1984.42 289.548 1984.42 290.494ZM2007.94 302.345C2006.39 302.345 2005.01 301.949 2003.79 301.156C2002.58 300.364 2001.61 299.213 2000.91 297.705C2000.2 296.196 1999.84 294.364 1999.84 292.207C1999.84 290.026 2000.2 288.185 2000.92 286.685C2001.64 285.176 2002.62 284.038 2003.85 283.271C2005.07 282.496 2006.44 282.108 2007.95 282.108C2009.1 282.108 2010.05 282.304 2010.79 282.696C2011.53 283.08 2012.12 283.544 2012.55 284.089C2012.99 284.626 2013.32 285.134 2013.56 285.611H2013.75V275.818H2018.39V302H2013.84V298.906H2013.56C2013.32 299.384 2012.98 299.891 2012.53 300.428C2012.07 300.956 2011.48 301.408 2010.74 301.783C2009.99 302.158 2009.06 302.345 2007.94 302.345ZM2009.23 298.548C2010.21 298.548 2011.04 298.284 2011.73 297.756C2012.42 297.219 2012.95 296.473 2013.31 295.518C2013.66 294.564 2013.84 293.452 2013.84 292.182C2013.84 290.912 2013.66 289.808 2013.31 288.871C2012.96 287.933 2012.44 287.205 2011.75 286.685C2011.06 286.165 2010.22 285.905 2009.23 285.905C2008.2 285.905 2007.34 286.173 2006.65 286.71C2005.95 287.247 2005.44 287.989 2005.09 288.935C2004.74 289.881 2004.56 290.963 2004.56 292.182C2004.56 293.409 2004.74 294.504 2005.09 295.467C2005.44 296.422 2005.97 297.176 2006.66 297.73C2007.36 298.276 2008.21 298.548 2009.23 298.548ZM2038.66 302.384C2036.74 302.384 2035.08 301.962 2033.67 301.118C2032.27 300.274 2031.18 299.094 2030.4 297.577C2029.63 296.06 2029.25 294.287 2029.25 292.259C2029.25 290.23 2029.63 288.453 2030.4 286.928C2031.18 285.402 2032.27 284.217 2033.67 283.374C2035.08 282.53 2036.74 282.108 2038.66 282.108C2040.58 282.108 2042.24 282.53 2043.65 283.374C2045.05 284.217 2046.14 285.402 2046.91 286.928C2047.68 288.453 2048.07 290.23 2048.07 292.259C2048.07 294.287 2047.68 296.06 2046.91 297.577C2046.14 299.094 2045.05 300.274 2043.65 301.118C2042.24 301.962 2040.58 302.384 2038.66 302.384ZM2038.69 298.676C2039.73 298.676 2040.6 298.391 2041.29 297.82C2041.99 297.24 2042.51 296.464 2042.85 295.493C2043.2 294.521 2043.38 293.439 2043.38 292.246C2043.38 291.044 2043.2 289.957 2042.85 288.986C2042.51 288.006 2041.99 287.226 2041.29 286.646C2040.6 286.067 2039.73 285.777 2038.69 285.777C2037.62 285.777 2036.73 286.067 2036.03 286.646C2035.33 287.226 2034.8 288.006 2034.45 288.986C2034.11 289.957 2033.94 291.044 2033.94 292.246C2033.94 293.439 2034.11 294.521 2034.45 295.493C2034.8 296.464 2035.33 297.24 2036.03 297.82C2036.73 298.391 2037.62 298.676 2038.69 298.676ZM2063.43 293.741V282.364H2068.06V302H2063.57V298.51H2063.37C2062.93 299.609 2062.2 300.509 2061.18 301.207C2060.18 301.906 2058.94 302.256 2057.46 302.256C2056.18 302.256 2055.04 301.97 2054.05 301.399C2053.07 300.82 2052.3 299.98 2051.75 298.881C2051.19 297.773 2050.92 296.435 2050.92 294.866V282.364H2055.55V294.151C2055.55 295.395 2055.89 296.384 2056.57 297.116C2057.25 297.849 2058.14 298.216 2059.25 298.216C2059.93 298.216 2060.59 298.05 2061.23 297.717C2061.87 297.385 2062.4 296.891 2062.81 296.234C2063.22 295.57 2063.43 294.739 2063.43 293.741ZM2081.55 282.364V285.943H2070.26V282.364H2081.55ZM2073.04 277.659H2077.67V296.094C2077.67 296.716 2077.77 297.193 2077.95 297.526C2078.15 297.849 2078.4 298.071 2078.72 298.19C2079.04 298.31 2079.38 298.369 2079.77 298.369C2080.06 298.369 2080.32 298.348 2080.56 298.305C2080.81 298.263 2081 298.224 2081.12 298.19L2081.9 301.808C2081.66 301.893 2081.3 301.987 2080.84 302.089C2080.39 302.192 2079.84 302.251 2079.18 302.268C2078.02 302.303 2076.98 302.128 2076.05 301.744C2075.12 301.352 2074.38 300.747 2073.84 299.929C2073.3 299.111 2073.04 298.088 2073.04 296.861V277.659ZM2097.84 302.396C2096.59 302.396 2095.47 302.175 2094.47 301.732C2093.48 301.28 2092.7 300.615 2092.12 299.737C2091.55 298.859 2091.26 297.777 2091.26 296.49C2091.26 295.382 2091.47 294.466 2091.88 293.741C2092.29 293.017 2092.85 292.438 2093.55 292.003C2094.26 291.568 2095.06 291.24 2095.94 291.018C2096.84 290.788 2097.76 290.622 2098.72 290.52C2099.87 290.401 2100.8 290.294 2101.52 290.2C2102.23 290.098 2102.75 289.945 2103.08 289.74C2103.41 289.527 2103.58 289.199 2103.58 288.756V288.679C2103.58 287.716 2103.29 286.97 2102.72 286.442C2102.15 285.913 2101.33 285.649 2100.25 285.649C2099.12 285.649 2098.22 285.896 2097.55 286.391C2096.9 286.885 2096.46 287.469 2096.22 288.142L2091.9 287.528C2092.24 286.335 2092.81 285.338 2093.59 284.537C2094.38 283.727 2095.33 283.122 2096.47 282.722C2097.6 282.312 2098.85 282.108 2100.23 282.108C2101.17 282.108 2102.11 282.219 2103.05 282.44C2103.99 282.662 2104.85 283.028 2105.62 283.54C2106.4 284.043 2107.02 284.729 2107.49 285.598C2107.96 286.467 2108.2 287.554 2108.2 288.858V302H2103.75V299.303H2103.6C2103.32 299.848 2102.92 300.359 2102.41 300.837C2101.91 301.305 2101.27 301.685 2100.51 301.974C2099.75 302.256 2098.86 302.396 2097.84 302.396ZM2099.04 298.996C2099.97 298.996 2100.77 298.812 2101.45 298.446C2102.14 298.071 2102.66 297.577 2103.03 296.963C2103.4 296.349 2103.59 295.68 2103.59 294.956V292.642C2103.44 292.761 2103.2 292.872 2102.85 292.974C2102.51 293.077 2102.12 293.166 2101.7 293.243C2101.27 293.32 2100.85 293.388 2100.43 293.447C2100.01 293.507 2099.65 293.558 2099.34 293.601C2098.65 293.695 2098.04 293.848 2097.49 294.061C2096.95 294.274 2096.51 294.572 2096.2 294.956C2095.88 295.331 2095.73 295.817 2095.73 296.413C2095.73 297.266 2096.04 297.909 2096.66 298.344C2097.28 298.778 2098.07 298.996 2099.04 298.996ZM2111.98 302V275.818H2116.61V285.611H2116.8C2117.04 285.134 2117.38 284.626 2117.81 284.089C2118.25 283.544 2118.83 283.08 2119.58 282.696C2120.32 282.304 2121.26 282.108 2122.41 282.108C2123.93 282.108 2125.3 282.496 2126.52 283.271C2127.74 284.038 2128.72 285.176 2129.43 286.685C2130.16 288.185 2130.52 290.026 2130.52 292.207C2130.52 294.364 2130.16 296.196 2129.46 297.705C2128.75 299.213 2127.79 300.364 2126.57 301.156C2125.35 301.949 2123.97 302.345 2122.43 302.345C2121.3 302.345 2120.37 302.158 2119.63 301.783C2118.89 301.408 2118.29 300.956 2117.84 300.428C2117.39 299.891 2117.05 299.384 2116.8 298.906H2116.53V302H2111.98ZM2116.52 292.182C2116.52 293.452 2116.7 294.564 2117.06 295.518C2117.42 296.473 2117.95 297.219 2118.63 297.756C2119.32 298.284 2120.15 298.548 2121.14 298.548C2122.16 298.548 2123.01 298.276 2123.7 297.73C2124.39 297.176 2124.91 296.422 2125.26 295.467C2125.62 294.504 2125.8 293.409 2125.8 292.182C2125.8 290.963 2125.63 289.881 2125.28 288.935C2124.93 287.989 2124.41 287.247 2123.72 286.71C2123.03 286.173 2122.17 285.905 2121.14 285.905C2120.15 285.905 2119.31 286.165 2118.62 286.685C2117.93 287.205 2117.4 287.933 2117.04 288.871C2116.69 289.808 2116.52 290.912 2116.52 292.182ZM2141.94 302.384C2140.02 302.384 2138.36 301.962 2136.95 301.118C2135.55 300.274 2134.46 299.094 2133.68 297.577C2132.91 296.06 2132.53 294.287 2132.53 292.259C2132.53 290.23 2132.91 288.453 2133.68 286.928C2134.46 285.402 2135.55 284.217 2136.95 283.374C2138.36 282.53 2140.02 282.108 2141.94 282.108C2143.86 282.108 2145.52 282.53 2146.92 283.374C2148.33 284.217 2149.42 285.402 2150.18 286.928C2150.96 288.453 2151.35 290.23 2151.35 292.259C2151.35 294.287 2150.96 296.06 2150.18 297.577C2149.42 299.094 2148.33 300.274 2146.92 301.118C2145.52 301.962 2143.86 302.384 2141.94 302.384ZM2141.96 298.676C2143 298.676 2143.87 298.391 2144.57 297.82C2145.27 297.24 2145.79 296.464 2146.13 295.493C2146.48 294.521 2146.66 293.439 2146.66 292.246C2146.66 291.044 2146.48 289.957 2146.13 288.986C2145.79 288.006 2145.27 287.226 2144.57 286.646C2143.87 286.067 2143 285.777 2141.96 285.777C2140.9 285.777 2140.01 286.067 2139.3 286.646C2138.61 287.226 2138.08 288.006 2137.73 288.986C2137.39 289.957 2137.22 291.044 2137.22 292.246C2137.22 293.439 2137.39 294.521 2137.73 295.493C2138.08 296.464 2138.61 297.24 2139.3 297.82C2140.01 298.391 2140.9 298.676 2141.96 298.676ZM2166.71 293.741V282.364H2171.34V302H2166.85V298.51H2166.65C2166.2 299.609 2165.47 300.509 2164.46 301.207C2163.46 301.906 2162.22 302.256 2160.74 302.256C2159.45 302.256 2158.32 301.97 2157.33 301.399C2156.35 300.82 2155.58 299.98 2155.03 298.881C2154.47 297.773 2154.2 296.435 2154.2 294.866V282.364H2158.82V294.151C2158.82 295.395 2159.16 296.384 2159.85 297.116C2160.53 297.849 2161.42 298.216 2162.53 298.216C2163.21 298.216 2163.87 298.05 2164.51 297.717C2165.15 297.385 2165.68 296.891 2166.08 296.234C2166.5 295.57 2166.71 294.739 2166.71 293.741ZM2184.82 282.364V285.943H2173.53V282.364H2184.82ZM2176.32 277.659H2180.95V296.094C2180.95 296.716 2181.04 297.193 2181.23 297.526C2181.43 297.849 2181.68 298.071 2182 298.19C2182.31 298.31 2182.66 298.369 2183.05 298.369C2183.34 298.369 2183.6 298.348 2183.84 298.305C2184.09 298.263 2184.27 298.224 2184.4 298.19L2185.18 301.808C2184.93 301.893 2184.58 301.987 2184.12 302.089C2183.67 302.192 2183.11 302.251 2182.46 302.268C2181.3 302.303 2180.25 302.128 2179.33 301.744C2178.4 301.352 2177.66 300.747 2177.11 299.929C2176.58 299.111 2176.31 298.088 2176.32 296.861V277.659ZM2201.11 302.396C2199.87 302.396 2198.75 302.175 2197.75 301.732C2196.76 301.28 2195.98 300.615 2195.4 299.737C2194.83 298.859 2194.54 297.777 2194.54 296.49C2194.54 295.382 2194.75 294.466 2195.16 293.741C2195.57 293.017 2196.12 292.438 2196.83 292.003C2197.54 291.568 2198.34 291.24 2199.22 291.018C2200.12 290.788 2201.04 290.622 2202 290.52C2203.15 290.401 2204.08 290.294 2204.8 290.2C2205.51 290.098 2206.03 289.945 2206.36 289.74C2206.69 289.527 2206.85 289.199 2206.85 288.756V288.679C2206.85 287.716 2206.57 286.97 2206 286.442C2205.43 285.913 2204.6 285.649 2203.53 285.649C2202.4 285.649 2201.5 285.896 2200.83 286.391C2200.18 286.885 2199.73 287.469 2199.5 288.142L2195.18 287.528C2195.52 286.335 2196.09 285.338 2196.87 284.537C2197.65 283.727 2198.61 283.122 2199.75 282.722C2200.88 282.312 2202.13 282.108 2203.5 282.108C2204.45 282.108 2205.39 282.219 2206.33 282.44C2207.27 282.662 2208.12 283.028 2208.9 283.54C2209.67 284.043 2210.3 284.729 2210.77 285.598C2211.24 286.467 2211.48 287.554 2211.48 288.858V302H2207.03V299.303H2206.88C2206.6 299.848 2206.2 300.359 2205.69 300.837C2205.19 301.305 2204.55 301.685 2203.79 301.974C2203.03 302.256 2202.14 302.396 2201.11 302.396ZM2202.32 298.996C2203.24 298.996 2204.05 298.812 2204.73 298.446C2205.41 298.071 2205.94 297.577 2206.3 296.963C2206.68 296.349 2206.87 295.68 2206.87 294.956V292.642C2206.72 292.761 2206.47 292.872 2206.12 292.974C2205.78 293.077 2205.4 293.166 2204.97 293.243C2204.55 293.32 2204.13 293.388 2203.71 293.447C2203.29 293.507 2202.93 293.558 2202.62 293.601C2201.93 293.695 2201.31 293.848 2200.77 294.061C2200.22 294.274 2199.79 294.572 2199.48 294.956C2199.16 295.331 2199 295.817 2199 296.413C2199 297.266 2199.32 297.909 2199.94 298.344C2200.56 298.778 2201.35 298.996 2202.32 298.996ZM2219.68 290.494V302H2215.05V282.364H2219.48V285.7H2219.71C2220.16 284.601 2220.88 283.727 2221.87 283.08C2222.87 282.432 2224.1 282.108 2225.56 282.108C2226.92 282.108 2228.1 282.398 2229.1 282.977C2230.12 283.557 2230.9 284.396 2231.46 285.496C2232.02 286.595 2232.3 287.929 2232.29 289.497V302H2227.66V290.213C2227.66 288.901 2227.32 287.874 2226.64 287.132C2225.96 286.391 2225.03 286.02 2223.84 286.02C2223.03 286.02 2222.31 286.199 2221.68 286.557C2221.05 286.906 2220.56 287.413 2220.21 288.078C2219.86 288.743 2219.68 289.548 2219.68 290.494ZM2243.2 302.345C2241.66 302.345 2240.28 301.949 2239.06 301.156C2237.84 300.364 2236.88 299.213 2236.17 297.705C2235.46 296.196 2235.11 294.364 2235.11 292.207C2235.11 290.026 2235.46 288.185 2236.18 286.685C2236.91 285.176 2237.88 284.038 2239.11 283.271C2240.34 282.496 2241.7 282.108 2243.21 282.108C2244.36 282.108 2245.31 282.304 2246.05 282.696C2246.79 283.08 2247.38 283.544 2247.81 284.089C2248.25 284.626 2248.59 285.134 2248.82 285.611H2249.02V275.818H2253.66V302H2249.11V298.906H2248.82C2248.59 299.384 2248.24 299.891 2247.79 300.428C2247.34 300.956 2246.74 301.408 2246 301.783C2245.26 302.158 2244.32 302.345 2243.2 302.345ZM2244.49 298.548C2245.47 298.548 2246.31 298.284 2247 297.756C2247.69 297.219 2248.21 296.473 2248.57 295.518C2248.93 294.564 2249.11 293.452 2249.11 292.182C2249.11 290.912 2248.93 289.808 2248.57 288.871C2248.22 287.933 2247.7 287.205 2247.01 286.685C2246.33 286.165 2245.49 285.905 2244.49 285.905C2243.46 285.905 2242.6 286.173 2241.91 286.71C2241.22 287.247 2240.7 287.989 2240.35 288.935C2240 289.881 2239.82 290.963 2239.82 292.182C2239.82 293.409 2240 294.504 2240.35 295.467C2240.71 296.422 2241.23 297.176 2241.92 297.73C2242.62 298.276 2243.48 298.548 2244.49 298.548ZM2280.88 287.554L2276.66 288.014C2276.54 287.588 2276.33 287.188 2276.03 286.812C2275.74 286.438 2275.35 286.135 2274.86 285.905C2274.36 285.675 2273.76 285.56 2273.04 285.56C2272.08 285.56 2271.27 285.768 2270.61 286.186C2269.96 286.604 2269.64 287.145 2269.65 287.81C2269.64 288.381 2269.85 288.845 2270.28 289.203C2270.71 289.561 2271.43 289.855 2272.43 290.085L2275.78 290.801C2277.63 291.202 2279.02 291.837 2279.92 292.706C2280.83 293.575 2281.29 294.713 2281.3 296.119C2281.29 297.355 2280.93 298.446 2280.21 299.392C2279.51 300.33 2278.52 301.062 2277.26 301.591C2276 302.119 2274.55 302.384 2272.91 302.384C2270.51 302.384 2268.58 301.881 2267.11 300.875C2265.64 299.861 2264.77 298.45 2264.49 296.643L2269 296.209C2269.21 297.095 2269.64 297.764 2270.31 298.216C2270.97 298.668 2271.84 298.893 2272.9 298.893C2274 298.893 2274.88 298.668 2275.55 298.216C2276.22 297.764 2276.56 297.206 2276.56 296.541C2276.56 295.979 2276.34 295.514 2275.9 295.148C2275.48 294.781 2274.81 294.5 2273.91 294.304L2270.56 293.601C2268.68 293.209 2267.28 292.548 2266.38 291.619C2265.48 290.682 2265.03 289.497 2265.04 288.065C2265.03 286.855 2265.36 285.807 2266.02 284.92C2266.7 284.026 2267.63 283.335 2268.82 282.849C2270.02 282.355 2271.41 282.108 2272.98 282.108C2275.28 282.108 2277.09 282.598 2278.41 283.578C2279.74 284.558 2280.56 285.884 2280.88 287.554ZM2288.66 290.494V302H2284.04V275.818H2288.56V285.7H2288.79C2289.25 284.592 2289.96 283.719 2290.93 283.08C2291.9 282.432 2293.13 282.108 2294.63 282.108C2296 282.108 2297.19 282.393 2298.2 282.964C2299.21 283.536 2300 284.371 2300.55 285.47C2301.12 286.57 2301.4 287.912 2301.4 289.497V302H2296.77V290.213C2296.77 288.892 2296.43 287.865 2295.75 287.132C2295.07 286.391 2294.13 286.02 2292.91 286.02C2292.09 286.02 2291.36 286.199 2290.71 286.557C2290.07 286.906 2289.57 287.413 2289.2 288.078C2288.84 288.743 2288.66 289.548 2288.66 290.494ZM2310.68 302.396C2309.44 302.396 2308.32 302.175 2307.32 301.732C2306.33 301.28 2305.55 300.615 2304.97 299.737C2304.4 298.859 2304.11 297.777 2304.11 296.49C2304.11 295.382 2304.32 294.466 2304.73 293.741C2305.14 293.017 2305.69 292.438 2306.4 292.003C2307.11 291.568 2307.91 291.24 2308.79 291.018C2309.69 290.788 2310.61 290.622 2311.57 290.52C2312.72 290.401 2313.65 290.294 2314.37 290.2C2315.08 290.098 2315.6 289.945 2315.93 289.74C2316.26 289.527 2316.42 289.199 2316.42 288.756V288.679C2316.42 287.716 2316.14 286.97 2315.57 286.442C2315 285.913 2314.17 285.649 2313.1 285.649C2311.97 285.649 2311.07 285.896 2310.4 286.391C2309.75 286.885 2309.3 287.469 2309.07 288.142L2304.75 287.528C2305.09 286.335 2305.66 285.338 2306.44 284.537C2307.22 283.727 2308.18 283.122 2309.32 282.722C2310.45 282.312 2311.7 282.108 2313.07 282.108C2314.02 282.108 2314.96 282.219 2315.9 282.44C2316.84 282.662 2317.69 283.028 2318.47 283.54C2319.25 284.043 2319.87 284.729 2320.34 285.598C2320.81 286.467 2321.05 287.554 2321.05 288.858V302H2316.6V299.303H2316.45C2316.17 299.848 2315.77 300.359 2315.26 300.837C2314.76 301.305 2314.12 301.685 2313.36 301.974C2312.6 302.256 2311.71 302.396 2310.68 302.396ZM2311.89 298.996C2312.82 298.996 2313.62 298.812 2314.3 298.446C2314.98 298.071 2315.51 297.577 2315.87 296.963C2316.25 296.349 2316.44 295.68 2316.44 294.956V292.642C2316.29 292.761 2316.05 292.872 2315.7 292.974C2315.35 293.077 2314.97 293.166 2314.55 293.243C2314.12 293.32 2313.7 293.388 2313.28 293.447C2312.86 293.507 2312.5 293.558 2312.19 293.601C2311.5 293.695 2310.88 293.848 2310.34 294.061C2309.79 294.274 2309.36 294.572 2309.05 294.956C2308.73 295.331 2308.57 295.817 2308.57 296.413C2308.57 297.266 2308.89 297.909 2309.51 298.344C2310.13 298.778 2310.92 298.996 2311.89 298.996ZM2324.63 302V282.364H2329.11V285.636H2329.32C2329.68 284.503 2330.29 283.629 2331.16 283.016C2332.04 282.393 2333.04 282.082 2334.16 282.082C2334.42 282.082 2334.7 282.095 2335.02 282.121C2335.34 282.138 2335.61 282.168 2335.82 282.21V286.467C2335.63 286.399 2335.32 286.339 2334.89 286.288C2334.47 286.229 2334.07 286.199 2333.68 286.199C2332.83 286.199 2332.07 286.382 2331.4 286.749C2330.74 287.107 2330.21 287.605 2329.83 288.244C2329.45 288.884 2329.25 289.621 2329.25 290.456V302H2324.63ZM2345.7 302.384C2343.73 302.384 2342.03 301.974 2340.6 301.156C2339.18 300.33 2338.08 299.162 2337.32 297.653C2336.55 296.136 2336.17 294.351 2336.17 292.297C2336.17 290.277 2336.55 288.504 2337.32 286.979C2338.09 285.445 2339.18 284.251 2340.56 283.399C2341.95 282.538 2343.59 282.108 2345.46 282.108C2346.67 282.108 2347.81 282.304 2348.89 282.696C2349.97 283.08 2350.92 283.676 2351.75 284.486C2352.59 285.295 2353.24 286.327 2353.72 287.58C2354.2 288.824 2354.44 290.307 2354.44 292.028V293.447H2338.34V290.328H2350C2349.99 289.442 2349.8 288.653 2349.42 287.963C2349.05 287.264 2348.52 286.714 2347.85 286.314C2347.19 285.913 2346.41 285.713 2345.52 285.713C2344.58 285.713 2343.75 285.943 2343.03 286.403C2342.32 286.855 2341.76 287.452 2341.36 288.193C2340.97 288.926 2340.76 289.732 2340.76 290.609V293.332C2340.76 294.474 2340.97 295.455 2341.38 296.273C2341.8 297.082 2342.38 297.705 2343.13 298.139C2343.88 298.565 2344.76 298.778 2345.77 298.778C2346.44 298.778 2347.05 298.685 2347.6 298.497C2348.14 298.301 2348.61 298.016 2349.01 297.641C2349.42 297.266 2349.72 296.801 2349.92 296.247L2354.24 296.733C2353.97 297.875 2353.45 298.872 2352.68 299.724C2351.93 300.568 2350.95 301.224 2349.77 301.693C2348.58 302.153 2347.23 302.384 2345.7 302.384ZM2360.12 302.281C2359.35 302.281 2358.68 302.009 2358.13 301.463C2357.57 300.918 2357.3 300.253 2357.31 299.469C2357.3 298.702 2357.57 298.045 2358.13 297.5C2358.68 296.955 2359.35 296.682 2360.12 296.682C2360.87 296.682 2361.52 296.955 2362.08 297.5C2362.64 298.045 2362.93 298.702 2362.93 299.469C2362.93 299.989 2362.79 300.462 2362.52 300.888C2362.27 301.314 2361.93 301.655 2361.5 301.911C2361.08 302.158 2360.62 302.281 2360.12 302.281Z" fill="#F4F4F4"/>
</svg>
