<svg width="1480" height="447" viewBox="0 0 1480 447" fill="none" xmlns="http://www.w3.org/2000/svg">
<rect width="1480" height="447" fill="#F5F4EF"/>
<rect x="540.687" y="97.1567" width="398.625" height="278.351" fill="white"/>
<path d="M541.945 85.4922V75.7202H545.529C546.434 75.7202 547.129 75.9722 547.615 76.4762C548.109 76.9802 548.357 77.6849 548.357 78.5902C548.357 79.4862 548.109 80.1862 547.615 80.6902C547.129 81.1942 546.434 81.4462 545.529 81.4462H543.275V85.4922H541.945ZM543.275 80.3122H545.417C545.911 80.3122 546.289 80.1955 546.551 79.9622C546.812 79.7195 546.943 79.3742 546.943 78.9262V78.2402C546.943 77.7922 546.812 77.4515 546.551 77.2182C546.289 76.9755 545.911 76.8542 545.417 76.8542H543.275V80.3122ZM549.611 84.4282H551.655V79.3322H549.611V78.2682H552.943V80.1302H553.013C553.368 78.8889 554.171 78.2682 555.421 78.2682H556.387V79.5142H554.987C554.343 79.5142 553.839 79.7009 553.475 80.0742C553.121 80.4382 552.943 80.9049 552.943 81.4742V84.4282H555.673V85.4922H549.611V84.4282ZM560.582 85.6602C559.901 85.6602 559.308 85.5062 558.804 85.1982C558.309 84.8902 557.927 84.4515 557.656 83.8822C557.385 83.3129 557.25 82.6455 557.25 81.8802C557.25 81.1149 557.385 80.4475 557.656 79.8782C557.927 79.3089 558.309 78.8702 558.804 78.5622C559.308 78.2542 559.901 78.1002 560.582 78.1002C561.263 78.1002 561.851 78.2542 562.346 78.5622C562.85 78.8702 563.237 79.3089 563.508 79.8782C563.779 80.4475 563.914 81.1149 563.914 81.8802C563.914 82.6455 563.779 83.3129 563.508 83.8822C563.237 84.4515 562.85 84.8902 562.346 85.1982C561.851 85.5062 561.263 85.6602 560.582 85.6602ZM560.582 84.5962C561.198 84.5962 561.683 84.4142 562.038 84.0502C562.393 83.6769 562.57 83.1309 562.57 82.4122V81.3482C562.57 80.6295 562.393 80.0882 562.038 79.7242C561.683 79.3509 561.198 79.1642 560.582 79.1642C559.966 79.1642 559.481 79.3509 559.126 79.7242C558.771 80.0882 558.594 80.6295 558.594 81.3482V82.4122C558.594 83.1309 558.771 83.6769 559.126 84.0502C559.481 84.4142 559.966 84.5962 560.582 84.5962ZM570.096 84.2882H570.026C569.802 84.7362 569.504 85.0769 569.13 85.3102C568.766 85.5435 568.328 85.6602 567.814 85.6602C566.937 85.6602 566.246 85.3289 565.742 84.6662C565.248 84.0035 565 83.0749 565 81.8802C565 80.6855 565.248 79.7569 565.742 79.0942C566.246 78.4315 566.937 78.1002 567.814 78.1002C568.328 78.1002 568.766 78.2169 569.13 78.4502C569.504 78.6835 569.802 79.0242 570.026 79.4722H570.096V75.1322H571.37V85.4922H570.096V84.2882ZM568.332 84.5682C568.827 84.5682 569.242 84.4422 569.578 84.1902C569.924 83.9382 570.096 83.5882 570.096 83.1402V80.6202C570.096 80.1722 569.924 79.8222 569.578 79.5702C569.242 79.3182 568.827 79.1922 568.332 79.1922C567.716 79.1922 567.236 79.3835 566.89 79.7662C566.545 80.1395 566.372 80.6435 566.372 81.2782V82.4822C566.372 83.1169 566.545 83.6255 566.89 84.0082C567.236 84.3815 567.716 84.5682 568.332 84.5682ZM577.875 84.2882H577.819C577.642 84.7082 577.39 85.0442 577.063 85.2962C576.736 85.5389 576.298 85.6602 575.747 85.6602C574.991 85.6602 574.389 85.4175 573.941 84.9322C573.493 84.4469 573.269 83.7749 573.269 82.9162V78.2682H574.543V82.6922C574.543 83.3175 574.678 83.7889 574.949 84.1062C575.229 84.4142 575.635 84.5682 576.167 84.5682C576.643 84.5682 577.044 84.4562 577.371 84.2322C577.707 83.9989 577.875 83.6675 577.875 83.2382V78.2682H579.163V85.4922H577.875V84.2882ZM584.351 85.6602C583.297 85.6602 582.475 85.3195 581.887 84.6382C581.299 83.9569 581.005 83.0375 581.005 81.8802C581.005 80.7229 581.299 79.8035 581.887 79.1222C582.475 78.4409 583.292 78.1002 584.337 78.1002C585.019 78.1002 585.588 78.2495 586.045 78.5482C586.503 78.8469 586.843 79.2575 587.067 79.7802L586.045 80.3262C585.915 79.9622 585.7 79.6822 585.401 79.4862C585.112 79.2809 584.757 79.1782 584.337 79.1782C583.721 79.1782 583.236 79.3742 582.881 79.7662C582.536 80.1489 582.363 80.6482 582.363 81.2642V82.4962C582.363 83.1215 582.536 83.6255 582.881 84.0082C583.236 84.3909 583.731 84.5822 584.365 84.5822C584.813 84.5822 585.191 84.4749 585.499 84.2602C585.817 84.0455 586.064 83.7469 586.241 83.3642L587.179 83.9662C586.946 84.4889 586.591 84.9042 586.115 85.2122C585.639 85.5109 585.051 85.6602 584.351 85.6602ZM591.892 83.1402C591.892 83.5229 591.953 83.8075 592.074 83.9942C592.195 84.1809 592.373 84.3022 592.606 84.3582C592.839 84.4049 593.185 84.4282 593.642 84.4282H594.776V85.4922H593.6C592.9 85.4922 592.335 85.4269 591.906 85.2962C591.486 85.1562 591.164 84.9135 590.94 84.5682C590.716 84.2229 590.604 83.7422 590.604 83.1262V79.3322H588.28V78.2682H590.604V75.7202H591.892V78.2682H595.098V79.3322H591.892V83.1402ZM604.635 78.2682H605.909V79.4722H605.979C606.203 79.0242 606.497 78.6835 606.861 78.4502C607.234 78.2169 607.678 78.1002 608.191 78.1002C609.068 78.1002 609.754 78.4315 610.249 79.0942C610.753 79.7569 611.005 80.6855 611.005 81.8802C611.005 83.0749 610.753 84.0035 610.249 84.6662C609.754 85.3289 609.068 85.6602 608.191 85.6602C607.678 85.6602 607.234 85.5435 606.861 85.3102C606.497 85.0769 606.203 84.7362 605.979 84.2882H605.909V88.2922H604.635V78.2682ZM607.673 84.5682C608.289 84.5682 608.77 84.3815 609.115 84.0082C609.46 83.6255 609.633 83.1169 609.633 82.4822V81.2782C609.633 80.6435 609.46 80.1395 609.115 79.7662C608.77 79.3835 608.289 79.1922 607.673 79.1922C607.178 79.1922 606.758 79.3182 606.413 79.5702C606.077 79.8222 605.909 80.1722 605.909 80.6202V83.1402C605.909 83.5882 606.077 83.9382 606.413 84.1902C606.758 84.4422 607.178 84.5682 607.673 84.5682ZM618.14 85.4922C617.72 85.4922 617.402 85.3849 617.188 85.1702C616.982 84.9555 616.856 84.6662 616.81 84.3022H616.74C616.59 84.7315 616.334 85.0675 615.97 85.3102C615.606 85.5435 615.139 85.6602 614.57 85.6602C613.823 85.6602 613.226 85.4642 612.778 85.0722C612.339 84.6802 612.12 84.1482 612.12 83.4762C612.12 82.0575 613.16 81.3482 615.242 81.3482H616.726V80.6902C616.726 80.1862 616.581 79.8035 616.292 79.5422C616.012 79.2809 615.606 79.1502 615.074 79.1502C614.616 79.1502 614.234 79.2389 613.926 79.4162C613.618 79.5935 613.366 79.8502 613.17 80.1862L612.344 79.5422C612.549 79.1315 612.894 78.7909 613.38 78.5202C613.865 78.2402 614.462 78.1002 615.172 78.1002C616.04 78.1002 616.726 78.3195 617.23 78.7582C617.743 79.1969 618 79.8082 618 80.5922V83.9242C618 84.0642 618.046 84.1855 618.14 84.2882C618.242 84.3815 618.364 84.4282 618.504 84.4282H618.98V85.4922H618.14ZM614.864 84.6522C615.396 84.6522 615.839 84.5309 616.194 84.2882C616.548 84.0455 616.726 83.7375 616.726 83.3642V82.2302H615.256C614.64 82.2302 614.182 82.3235 613.884 82.5102C613.585 82.6875 613.436 82.9442 613.436 83.2802V83.5742C613.436 83.9195 613.562 84.1855 613.814 84.3722C614.066 84.5589 614.416 84.6522 614.864 84.6522ZM626.212 85.2262C626.212 86.2342 625.927 87.0229 625.358 87.5922C624.789 88.1709 623.986 88.4602 622.95 88.4602C621.839 88.4602 620.957 88.1242 620.304 87.4522L621.046 86.5982C621.541 87.1115 622.175 87.3682 622.95 87.3682C623.613 87.3682 624.107 87.1955 624.434 86.8502C624.77 86.5049 624.938 85.9915 624.938 85.3102V84.0642H624.868C624.644 84.5122 624.345 84.8529 623.972 85.0862C623.608 85.3195 623.169 85.4362 622.656 85.4362C621.788 85.4362 621.102 85.1142 620.598 84.4702C620.094 83.8169 619.842 82.9162 619.842 81.7682C619.842 80.6202 620.094 79.7242 620.598 79.0802C621.102 78.4269 621.788 78.1002 622.656 78.1002C623.169 78.1002 623.608 78.2169 623.972 78.4502C624.345 78.6835 624.644 79.0242 624.868 79.4722H624.938V78.2682H626.212V85.2262ZM623.174 84.3442C623.669 84.3442 624.084 84.2182 624.42 83.9662C624.765 83.7142 624.938 83.3642 624.938 82.9162V80.6202C624.938 80.1722 624.765 79.8222 624.42 79.5702C624.084 79.3182 623.669 79.1922 623.174 79.1922C622.558 79.1922 622.077 79.3835 621.732 79.7662C621.387 80.1395 621.214 80.6435 621.214 81.2782V82.2582C621.214 82.8929 621.387 83.4015 621.732 83.7842C622.077 84.1575 622.558 84.3442 623.174 84.3442ZM631.233 85.6602C630.533 85.6602 629.921 85.5062 629.399 85.1982C628.876 84.8902 628.475 84.4562 628.195 83.8962C627.924 83.3269 627.789 82.6595 627.789 81.8942C627.789 81.1382 627.929 80.4755 628.209 79.9062C628.489 79.3275 628.881 78.8842 629.385 78.5762C629.889 78.2589 630.472 78.1002 631.135 78.1002C631.788 78.1002 632.357 78.2542 632.843 78.5622C633.337 78.8609 633.72 79.2809 633.991 79.8222C634.261 80.3542 634.397 80.9655 634.397 81.6562V82.2022H629.119V82.4962C629.119 83.1122 629.31 83.6162 629.693 84.0082C630.075 84.3909 630.593 84.5822 631.247 84.5822C631.713 84.5822 632.119 84.4795 632.465 84.2742C632.81 84.0689 633.085 83.7749 633.291 83.3922L634.159 84.0642C633.925 84.5495 633.552 84.9369 633.039 85.2262C632.535 85.5155 631.933 85.6602 631.233 85.6602ZM631.149 79.1222C630.766 79.1222 630.416 79.2109 630.099 79.3882C629.791 79.5655 629.548 79.8175 629.371 80.1442C629.203 80.4615 629.119 80.8162 629.119 81.2082V81.3062H633.053V81.1522C633.053 80.5455 632.875 80.0555 632.521 79.6822C632.175 79.3089 631.718 79.1222 631.149 79.1222Z" fill="#A066FF"/>
<rect opacity="0.5" x="548" y="134" width="382.131" height="76" fill="#D289FF"/>
<rect opacity="0.5" x="548" y="216" width="224" height="151" fill="#38A477"/>
<rect opacity="0.5" x="540" y="97.1567" width="400" height="15.8076" fill="#FF8F3E"/>
<path d="M670.98 168V158.228H674.564C675.469 158.228 676.164 158.48 676.65 158.984C677.144 159.488 677.392 160.193 677.392 161.098C677.392 161.994 677.144 162.694 676.65 163.198C676.164 163.702 675.469 163.954 674.564 163.954H672.31V168H670.98ZM672.31 162.82H674.452C674.946 162.82 675.324 162.703 675.586 162.47C675.847 162.227 675.978 161.882 675.978 161.434V160.748C675.978 160.3 675.847 159.959 675.586 159.726C675.324 159.483 674.946 159.362 674.452 159.362H672.31V162.82ZM678.646 166.936H680.69V161.84H678.646V160.776H681.978V162.638H682.048C682.403 161.397 683.206 160.776 684.456 160.776H685.422V162.022H684.022C683.378 162.022 682.874 162.209 682.51 162.582C682.156 162.946 681.978 163.413 681.978 163.982V166.936H684.708V168H678.646V166.936ZM689.617 168.168C688.935 168.168 688.343 168.014 687.839 167.706C687.344 167.398 686.961 166.959 686.691 166.39C686.42 165.821 686.285 165.153 686.285 164.388C686.285 163.623 686.42 162.955 686.691 162.386C686.961 161.817 687.344 161.378 687.839 161.07C688.343 160.762 688.935 160.608 689.617 160.608C690.298 160.608 690.886 160.762 691.381 161.07C691.885 161.378 692.272 161.817 692.543 162.386C692.813 162.955 692.949 163.623 692.949 164.388C692.949 165.153 692.813 165.821 692.543 166.39C692.272 166.959 691.885 167.398 691.381 167.706C690.886 168.014 690.298 168.168 689.617 168.168ZM689.617 167.104C690.233 167.104 690.718 166.922 691.073 166.558C691.427 166.185 691.605 165.639 691.605 164.92V163.856C691.605 163.137 691.427 162.596 691.073 162.232C690.718 161.859 690.233 161.672 689.617 161.672C689.001 161.672 688.515 161.859 688.161 162.232C687.806 162.596 687.629 163.137 687.629 163.856V164.92C687.629 165.639 687.806 166.185 688.161 166.558C688.515 166.922 689.001 167.104 689.617 167.104ZM699.131 166.796H699.061C698.837 167.244 698.539 167.585 698.165 167.818C697.801 168.051 697.363 168.168 696.849 168.168C695.972 168.168 695.281 167.837 694.777 167.174C694.283 166.511 694.035 165.583 694.035 164.388C694.035 163.193 694.283 162.265 694.777 161.602C695.281 160.939 695.972 160.608 696.849 160.608C697.363 160.608 697.801 160.725 698.165 160.958C698.539 161.191 698.837 161.532 699.061 161.98H699.131V157.64H700.405V168H699.131V166.796ZM697.367 167.076C697.862 167.076 698.277 166.95 698.613 166.698C698.959 166.446 699.131 166.096 699.131 165.648V163.128C699.131 162.68 698.959 162.33 698.613 162.078C698.277 161.826 697.862 161.7 697.367 161.7C696.751 161.7 696.271 161.891 695.925 162.274C695.58 162.647 695.407 163.151 695.407 163.786V164.99C695.407 165.625 695.58 166.133 695.925 166.516C696.271 166.889 696.751 167.076 697.367 167.076ZM706.91 166.796H706.854C706.677 167.216 706.425 167.552 706.098 167.804C705.771 168.047 705.333 168.168 704.782 168.168C704.026 168.168 703.424 167.925 702.976 167.44C702.528 166.955 702.304 166.283 702.304 165.424V160.776H703.578V165.2C703.578 165.825 703.713 166.297 703.984 166.614C704.264 166.922 704.67 167.076 705.202 167.076C705.678 167.076 706.079 166.964 706.406 166.74C706.742 166.507 706.91 166.175 706.91 165.746V160.776H708.198V168H706.91V166.796ZM713.386 168.168C712.332 168.168 711.51 167.827 710.922 167.146C710.334 166.465 710.04 165.545 710.04 164.388C710.04 163.231 710.334 162.311 710.922 161.63C711.51 160.949 712.327 160.608 713.372 160.608C714.054 160.608 714.623 160.757 715.08 161.056C715.538 161.355 715.878 161.765 716.102 162.288L715.08 162.834C714.95 162.47 714.735 162.19 714.436 161.994C714.147 161.789 713.792 161.686 713.372 161.686C712.756 161.686 712.271 161.882 711.916 162.274C711.571 162.657 711.398 163.156 711.398 163.772V165.004C711.398 165.629 711.571 166.133 711.916 166.516C712.271 166.899 712.766 167.09 713.4 167.09C713.848 167.09 714.226 166.983 714.534 166.768C714.852 166.553 715.099 166.255 715.276 165.872L716.214 166.474C715.981 166.997 715.626 167.412 715.15 167.72C714.674 168.019 714.086 168.168 713.386 168.168ZM720.927 165.648C720.927 166.031 720.988 166.315 721.109 166.502C721.23 166.689 721.408 166.81 721.641 166.866C721.874 166.913 722.22 166.936 722.677 166.936H723.811V168H722.635C721.935 168 721.37 167.935 720.941 167.804C720.521 167.664 720.199 167.421 719.975 167.076C719.751 166.731 719.639 166.25 719.639 165.634V161.84H717.315V160.776H719.639V158.228H720.927V160.776H724.133V161.84H720.927V165.648ZM733.712 168V160.776H735V161.98H735.056C735.233 161.56 735.485 161.229 735.812 160.986C736.139 160.734 736.577 160.608 737.128 160.608C737.884 160.608 738.486 160.851 738.934 161.336C739.382 161.821 739.606 162.493 739.606 163.352V168H738.332V163.576C738.332 162.951 738.192 162.484 737.912 162.176C737.641 161.859 737.24 161.7 736.708 161.7C736.232 161.7 735.826 161.817 735.49 162.05C735.163 162.274 735 162.601 735 163.03V168H733.712ZM747.175 168C746.755 168 746.437 167.893 746.223 167.678C746.017 167.463 745.891 167.174 745.845 166.81H745.775C745.625 167.239 745.369 167.575 745.005 167.818C744.641 168.051 744.174 168.168 743.605 168.168C742.858 168.168 742.261 167.972 741.813 167.58C741.374 167.188 741.155 166.656 741.155 165.984C741.155 164.565 742.195 163.856 744.277 163.856H745.761V163.198C745.761 162.694 745.616 162.311 745.327 162.05C745.047 161.789 744.641 161.658 744.109 161.658C743.651 161.658 743.269 161.747 742.961 161.924C742.653 162.101 742.401 162.358 742.205 162.694L741.379 162.05C741.584 161.639 741.929 161.299 742.415 161.028C742.9 160.748 743.497 160.608 744.207 160.608C745.075 160.608 745.761 160.827 746.265 161.266C746.778 161.705 747.035 162.316 747.035 163.1V166.432C747.035 166.572 747.081 166.693 747.175 166.796C747.277 166.889 747.399 166.936 747.539 166.936H748.015V168H747.175ZM743.899 167.16C744.431 167.16 744.874 167.039 745.229 166.796C745.583 166.553 745.761 166.245 745.761 165.872V164.738H744.291C743.675 164.738 743.217 164.831 742.919 165.018C742.62 165.195 742.471 165.452 742.471 165.788V166.082C742.471 166.427 742.597 166.693 742.849 166.88C743.101 167.067 743.451 167.16 743.899 167.16ZM749.367 160.748H750.655V161.938H750.711C750.888 161.518 751.131 161.187 751.439 160.944C751.747 160.701 752.158 160.58 752.671 160.58C753.175 160.58 753.618 160.706 754.001 160.958C754.384 161.201 754.668 161.569 754.855 162.064H754.883C755.032 161.635 755.294 161.28 755.667 161C756.04 160.72 756.512 160.58 757.081 160.58C757.818 160.58 758.392 160.827 758.803 161.322C759.214 161.807 759.419 162.489 759.419 163.366V168H758.131V163.562C758.131 162.946 758.01 162.484 757.767 162.176C757.524 161.868 757.151 161.714 756.647 161.714C756.199 161.714 755.816 161.831 755.499 162.064C755.191 162.288 755.037 162.61 755.037 163.03V168H753.749V163.562C753.749 162.937 753.628 162.475 753.385 162.176C753.152 161.868 752.788 161.714 752.293 161.714C751.845 161.714 751.458 161.831 751.131 162.064C750.814 162.288 750.655 162.61 750.655 163.03V168H749.367V160.748ZM764.479 168.168C763.779 168.168 763.167 168.014 762.645 167.706C762.122 167.398 761.721 166.964 761.441 166.404C761.17 165.835 761.035 165.167 761.035 164.402C761.035 163.646 761.175 162.983 761.455 162.414C761.735 161.835 762.127 161.392 762.631 161.084C763.135 160.767 763.718 160.608 764.381 160.608C765.034 160.608 765.603 160.762 766.089 161.07C766.583 161.369 766.966 161.789 767.237 162.33C767.507 162.862 767.643 163.473 767.643 164.164V164.71H762.365V165.004C762.365 165.62 762.556 166.124 762.939 166.516C763.321 166.899 763.839 167.09 764.493 167.09C764.959 167.09 765.365 166.987 765.711 166.782C766.056 166.577 766.331 166.283 766.537 165.9L767.405 166.572C767.171 167.057 766.798 167.445 766.285 167.734C765.781 168.023 765.179 168.168 764.479 168.168ZM764.395 161.63C764.012 161.63 763.662 161.719 763.345 161.896C763.037 162.073 762.794 162.325 762.617 162.652C762.449 162.969 762.365 163.324 762.365 163.716V163.814H766.299V163.66C766.299 163.053 766.121 162.563 765.767 162.19C765.421 161.817 764.964 161.63 764.395 161.63ZM771.501 166.012H773.447L771.795 170.002H770.745L771.501 166.012ZM787.786 168.168C786.965 168.168 786.265 168.019 785.686 167.72C785.107 167.421 784.627 167.011 784.244 166.488L785.154 165.676C785.527 166.143 785.929 166.488 786.358 166.712C786.787 166.936 787.282 167.048 787.842 167.048C788.505 167.048 789.013 166.894 789.368 166.586C789.732 166.269 789.914 165.83 789.914 165.27C789.914 164.813 789.779 164.463 789.508 164.22C789.247 163.968 788.803 163.791 788.178 163.688L787.1 163.506C786.213 163.357 785.569 163.044 785.168 162.568C784.776 162.092 784.58 161.509 784.58 160.818C784.58 159.931 784.874 159.25 785.462 158.774C786.05 158.298 786.857 158.06 787.884 158.06C788.64 158.06 789.293 158.186 789.844 158.438C790.395 158.69 790.838 159.054 791.174 159.53L790.292 160.342C789.993 159.969 789.653 159.684 789.27 159.488C788.887 159.283 788.425 159.18 787.884 159.18C787.249 159.18 786.764 159.315 786.428 159.586C786.092 159.857 785.924 160.253 785.924 160.776C785.924 161.215 786.055 161.56 786.316 161.812C786.587 162.064 787.044 162.246 787.688 162.358L788.724 162.54C789.611 162.689 790.255 162.997 790.656 163.464C791.057 163.931 791.258 164.519 791.258 165.228C791.258 165.825 791.123 166.348 790.852 166.796C790.591 167.235 790.199 167.575 789.676 167.818C789.153 168.051 788.523 168.168 787.786 168.168ZM795.271 163.338L793.955 164.906V168H792.625V158.228H793.955V163.156H794.011L795.257 161.532L797.945 158.228H799.527L796.181 162.344L799.625 168H798.085L795.271 163.338ZM801.705 158.228V164.15C801.705 164.859 801.738 165.405 801.803 165.788C801.869 166.171 802.032 166.474 802.293 166.698C802.555 166.922 802.961 167.034 803.511 167.034C804.062 167.034 804.468 166.922 804.729 166.698C804.991 166.474 805.154 166.171 805.219 165.788C805.285 165.405 805.317 164.859 805.317 164.15V158.228H806.647V163.87C806.647 164.906 806.568 165.727 806.409 166.334C806.251 166.941 805.947 167.398 805.499 167.706C805.051 168.014 804.389 168.168 803.511 168.168C802.634 168.168 801.971 168.014 801.523 167.706C801.075 167.398 800.772 166.941 800.613 166.334C800.455 165.727 800.375 164.906 800.375 163.87V158.228H801.705ZM711.65 186.168C711.1 186.168 710.619 186.047 710.208 185.804C709.807 185.561 709.499 185.235 709.284 184.824C709.07 184.413 708.962 183.951 708.962 183.438C708.962 182.878 709.102 182.351 709.382 181.856C709.662 181.361 710.115 180.955 710.74 180.638C710.451 180.246 710.227 179.877 710.068 179.532C709.91 179.187 709.83 178.823 709.83 178.44C709.83 177.983 709.947 177.577 710.18 177.222C710.414 176.858 710.726 176.573 711.118 176.368C711.51 176.163 711.94 176.06 712.406 176.06C712.994 176.06 713.498 176.214 713.918 176.522C714.348 176.821 714.637 177.175 714.786 177.586L713.778 178.118C713.648 177.81 713.461 177.567 713.218 177.39C712.976 177.203 712.691 177.11 712.364 177.11C711.972 177.11 711.655 177.231 711.412 177.474C711.179 177.717 711.062 178.029 711.062 178.412V178.51C711.062 178.771 711.128 179.033 711.258 179.294C711.389 179.546 711.622 179.891 711.958 180.33L712.084 180.484L713.26 181.94L714.226 183.172H714.296C714.371 182.761 714.422 182.089 714.45 181.156L714.478 180.61H716.536V181.66H715.5L715.458 181.954C715.402 182.355 715.342 182.705 715.276 183.004C715.211 183.293 715.113 183.611 714.982 183.956L716.718 186H715.234L714.03 184.572H713.96C713.83 185.067 713.564 185.459 713.162 185.748C712.77 186.028 712.266 186.168 711.65 186.168ZM711.986 185.076C712.36 185.076 712.686 185.001 712.966 184.852C713.256 184.693 713.484 184.474 713.652 184.194L711.328 181.352C710.946 181.604 710.67 181.893 710.502 182.22C710.334 182.537 710.25 182.897 710.25 183.298V183.466C710.25 183.961 710.409 184.353 710.726 184.642C711.053 184.931 711.473 185.076 711.986 185.076ZM725.583 184.908H728.159V179.868H725.583V178.776H729.447V184.908H731.813V186H725.583V184.908ZM729.531 175.626V177.236H727.921V175.626H729.531ZM733.418 178.748H734.706V179.938H734.762C734.939 179.518 735.182 179.187 735.49 178.944C735.798 178.701 736.209 178.58 736.722 178.58C737.226 178.58 737.669 178.706 738.052 178.958C738.435 179.201 738.719 179.569 738.906 180.064H738.934C739.083 179.635 739.345 179.28 739.718 179C740.091 178.72 740.563 178.58 741.132 178.58C741.869 178.58 742.443 178.827 742.854 179.322C743.265 179.807 743.47 180.489 743.47 181.366V186H742.182V181.562C742.182 180.946 742.061 180.484 741.818 180.176C741.575 179.868 741.202 179.714 740.698 179.714C740.25 179.714 739.867 179.831 739.55 180.064C739.242 180.288 739.088 180.61 739.088 181.03V186H737.8V181.562C737.8 180.937 737.679 180.475 737.436 180.176C737.203 179.868 736.839 179.714 736.344 179.714C735.896 179.714 735.509 179.831 735.182 180.064C734.865 180.288 734.706 180.61 734.706 181.03V186H733.418V178.748ZM751.105 186C750.685 186 750.368 185.893 750.153 185.678C749.948 185.463 749.822 185.174 749.775 184.81H749.705C749.556 185.239 749.299 185.575 748.935 185.818C748.571 186.051 748.105 186.168 747.535 186.168C746.789 186.168 746.191 185.972 745.743 185.58C745.305 185.188 745.085 184.656 745.085 183.984C745.085 182.565 746.126 181.856 748.207 181.856H749.691V181.198C749.691 180.694 749.547 180.311 749.257 180.05C748.977 179.789 748.571 179.658 748.039 179.658C747.582 179.658 747.199 179.747 746.891 179.924C746.583 180.101 746.331 180.358 746.135 180.694L745.309 180.05C745.515 179.639 745.86 179.299 746.345 179.028C746.831 178.748 747.428 178.608 748.137 178.608C749.005 178.608 749.691 178.827 750.195 179.266C750.709 179.705 750.965 180.316 750.965 181.1V184.432C750.965 184.572 751.012 184.693 751.105 184.796C751.208 184.889 751.329 184.936 751.469 184.936H751.945V186H751.105ZM747.829 185.16C748.361 185.16 748.805 185.039 749.159 184.796C749.514 184.553 749.691 184.245 749.691 183.872V182.738H748.221C747.605 182.738 747.148 182.831 746.849 183.018C746.551 183.195 746.401 183.452 746.401 183.788V184.082C746.401 184.427 746.527 184.693 746.779 184.88C747.031 185.067 747.381 185.16 747.829 185.16ZM759.178 185.734C759.178 186.742 758.893 187.531 758.324 188.1C757.755 188.679 756.952 188.968 755.916 188.968C754.805 188.968 753.923 188.632 753.27 187.96L754.012 187.106C754.507 187.619 755.141 187.876 755.916 187.876C756.579 187.876 757.073 187.703 757.4 187.358C757.736 187.013 757.904 186.499 757.904 185.818V184.572H757.834C757.61 185.02 757.311 185.361 756.938 185.594C756.574 185.827 756.135 185.944 755.622 185.944C754.754 185.944 754.068 185.622 753.564 184.978C753.06 184.325 752.808 183.424 752.808 182.276C752.808 181.128 753.06 180.232 753.564 179.588C754.068 178.935 754.754 178.608 755.622 178.608C756.135 178.608 756.574 178.725 756.938 178.958C757.311 179.191 757.61 179.532 757.834 179.98H757.904V178.776H759.178V185.734ZM756.14 184.852C756.635 184.852 757.05 184.726 757.386 184.474C757.731 184.222 757.904 183.872 757.904 183.424V181.128C757.904 180.68 757.731 180.33 757.386 180.078C757.05 179.826 756.635 179.7 756.14 179.7C755.524 179.7 755.043 179.891 754.698 180.274C754.353 180.647 754.18 181.151 754.18 181.786V182.766C754.18 183.401 754.353 183.909 754.698 184.292C755.043 184.665 755.524 184.852 756.14 184.852ZM764.199 186.168C763.499 186.168 762.887 186.014 762.365 185.706C761.842 185.398 761.441 184.964 761.161 184.404C760.89 183.835 760.755 183.167 760.755 182.402C760.755 181.646 760.895 180.983 761.175 180.414C761.455 179.835 761.847 179.392 762.351 179.084C762.855 178.767 763.438 178.608 764.101 178.608C764.754 178.608 765.323 178.762 765.809 179.07C766.303 179.369 766.686 179.789 766.957 180.33C767.227 180.862 767.363 181.473 767.363 182.164V182.71H762.085V183.004C762.085 183.62 762.276 184.124 762.659 184.516C763.041 184.899 763.559 185.09 764.213 185.09C764.679 185.09 765.085 184.987 765.431 184.782C765.776 184.577 766.051 184.283 766.257 183.9L767.125 184.572C766.891 185.057 766.518 185.445 766.005 185.734C765.501 186.023 764.899 186.168 764.199 186.168ZM764.115 179.63C763.732 179.63 763.382 179.719 763.065 179.896C762.757 180.073 762.514 180.325 762.337 180.652C762.169 180.969 762.085 181.324 762.085 181.716V181.814H766.019V181.66C766.019 181.053 765.841 180.563 765.487 180.19C765.141 179.817 764.684 179.63 764.115 179.63Z" fill="#7F3AA8"/>
<rect opacity="0.2" x="778" y="216" width="152" height="151" fill="#38A477"/>
<path d="M819.027 279.168C817.842 279.168 816.965 278.739 816.395 277.88C815.826 277.012 815.541 275.757 815.541 274.114C815.541 272.471 815.826 271.221 816.395 270.362C816.965 269.494 817.842 269.06 819.027 269.06C820.213 269.06 821.09 269.494 821.659 270.362C822.229 271.221 822.513 272.471 822.513 274.114C822.513 275.757 822.229 277.012 821.659 277.88C821.09 278.739 820.213 279.168 819.027 279.168ZM819.027 278.034C819.746 278.034 820.269 277.763 820.595 277.222C820.931 276.681 821.099 275.915 821.099 274.926V273.302C821.099 272.313 820.931 271.547 820.595 271.006C820.269 270.465 819.746 270.194 819.027 270.194C818.309 270.194 817.781 270.465 817.445 271.006C817.119 271.547 816.955 272.313 816.955 273.302V274.926C816.955 275.915 817.119 276.681 817.445 277.222C817.781 277.763 818.309 278.034 819.027 278.034ZM823.726 277.936H825.77V272.84H823.726V271.776H827.058V273.638H827.128C827.483 272.397 828.285 271.776 829.536 271.776H830.502V273.022H829.102C828.458 273.022 827.954 273.209 827.59 273.582C827.235 273.946 827.058 274.413 827.058 274.982V277.936H829.788V279H823.726V277.936ZM836.376 277.796H836.306C836.082 278.244 835.784 278.585 835.41 278.818C835.046 279.051 834.608 279.168 834.094 279.168C833.217 279.168 832.526 278.837 832.022 278.174C831.528 277.511 831.28 276.583 831.28 275.388C831.28 274.193 831.528 273.265 832.022 272.602C832.526 271.939 833.217 271.608 834.094 271.608C834.608 271.608 835.046 271.725 835.41 271.958C835.784 272.191 836.082 272.532 836.306 272.98H836.376V268.64H837.65V279H836.376V277.796ZM834.612 278.076C835.107 278.076 835.522 277.95 835.858 277.698C836.204 277.446 836.376 277.096 836.376 276.648V274.128C836.376 273.68 836.204 273.33 835.858 273.078C835.522 272.826 835.107 272.7 834.612 272.7C833.996 272.7 833.516 272.891 833.17 273.274C832.825 273.647 832.652 274.151 832.652 274.786V275.99C832.652 276.625 832.825 277.133 833.17 277.516C833.516 277.889 833.996 278.076 834.612 278.076ZM842.671 279.168C841.971 279.168 841.36 279.014 840.837 278.706C840.314 278.398 839.913 277.964 839.633 277.404C839.362 276.835 839.227 276.167 839.227 275.402C839.227 274.646 839.367 273.983 839.647 273.414C839.927 272.835 840.319 272.392 840.823 272.084C841.327 271.767 841.91 271.608 842.573 271.608C843.226 271.608 843.796 271.762 844.281 272.07C844.776 272.369 845.158 272.789 845.429 273.33C845.7 273.862 845.835 274.473 845.835 275.164V275.71H840.557V276.004C840.557 276.62 840.748 277.124 841.131 277.516C841.514 277.899 842.032 278.09 842.685 278.09C843.152 278.09 843.558 277.987 843.903 277.782C844.248 277.577 844.524 277.283 844.729 276.9L845.597 277.572C845.364 278.057 844.99 278.445 844.477 278.734C843.973 279.023 843.371 279.168 842.671 279.168ZM842.587 272.63C842.204 272.63 841.854 272.719 841.537 272.896C841.229 273.073 840.986 273.325 840.809 273.652C840.641 273.969 840.557 274.324 840.557 274.716V274.814H844.491V274.66C844.491 274.053 844.314 273.563 843.959 273.19C843.614 272.817 843.156 272.63 842.587 272.63ZM847.229 277.936H849.273V272.84H847.229V271.776H850.561V273.638H850.631C850.986 272.397 851.789 271.776 853.039 271.776H854.005V273.022H852.605C851.961 273.022 851.457 273.209 851.093 273.582C850.739 273.946 850.561 274.413 850.561 274.982V277.936H853.291V279H847.229V277.936ZM858.256 279.168C857.519 279.168 856.87 279.047 856.31 278.804C855.75 278.552 855.279 278.207 854.896 277.768L855.722 277.04C856.067 277.404 856.445 277.679 856.856 277.866C857.267 278.053 857.743 278.146 858.284 278.146C858.844 278.146 859.287 278.048 859.614 277.852C859.941 277.656 860.104 277.362 860.104 276.97C860.104 276.653 859.997 276.429 859.782 276.298C859.567 276.158 859.269 276.06 858.886 276.004L857.752 275.836C857.295 275.761 856.893 275.663 856.548 275.542C856.203 275.421 855.909 275.22 855.666 274.94C855.423 274.66 855.302 274.282 855.302 273.806C855.302 273.097 855.573 272.555 856.114 272.182C856.655 271.799 857.379 271.608 858.284 271.608C859.535 271.608 860.515 271.991 861.224 272.756L860.454 273.526C860.23 273.274 859.941 273.064 859.586 272.896C859.231 272.719 858.779 272.63 858.228 272.63C857.687 272.63 857.271 272.723 856.982 272.91C856.702 273.097 856.562 273.363 856.562 273.708C856.562 274.025 856.669 274.254 856.884 274.394C857.099 274.534 857.393 274.632 857.766 274.688L858.914 274.856C859.381 274.921 859.782 275.019 860.118 275.15C860.463 275.271 860.757 275.472 861 275.752C861.243 276.023 861.364 276.401 861.364 276.886C861.364 277.595 861.084 278.155 860.524 278.566C859.964 278.967 859.208 279.168 858.256 279.168ZM863.053 280.932L867.869 268.36H869.017L864.201 280.932H863.053ZM872.217 279H870.901V269.228H874.485C875.39 269.228 876.086 269.48 876.571 269.984C877.066 270.488 877.313 271.193 877.313 272.098C877.313 272.873 877.112 273.503 876.711 273.988C876.319 274.464 875.754 274.744 875.017 274.828L877.411 279H875.927L873.673 274.926H872.217V279ZM874.387 273.82C874.872 273.82 875.246 273.703 875.507 273.47C875.778 273.227 875.913 272.882 875.913 272.434V271.748C875.913 271.3 875.778 270.959 875.507 270.726C875.246 270.483 874.872 270.362 874.387 270.362H872.217V273.82H874.387ZM878.736 279V269.228H884.952V270.362H880.066V273.484H884.532V274.618H880.066V279H878.736ZM890.518 275.878L894.298 279.532H892.66L888.908 275.878H890.518ZM889.538 279.168C888.353 279.168 887.475 278.739 886.906 277.88C886.337 277.012 886.052 275.757 886.052 274.114C886.052 272.471 886.337 271.221 886.906 270.362C887.475 269.494 888.353 269.06 889.538 269.06C890.723 269.06 891.601 269.494 892.17 270.362C892.739 271.221 893.024 272.471 893.024 274.114C893.024 275.757 892.739 277.012 892.17 277.88C891.601 278.739 890.723 279.168 889.538 279.168ZM889.538 278.034C890.257 278.034 890.779 277.763 891.106 277.222C891.442 276.681 891.61 275.915 891.61 274.926V273.302C891.61 272.313 891.442 271.547 891.106 271.006C890.779 270.465 890.257 270.194 889.538 270.194C888.819 270.194 888.292 270.465 887.956 271.006C887.629 271.547 887.466 272.313 887.466 273.302V274.926C887.466 275.915 887.629 276.681 887.956 277.222C888.292 277.763 888.819 278.034 889.538 278.034ZM836.376 295.796H836.306C836.082 296.244 835.784 296.585 835.41 296.818C835.046 297.051 834.608 297.168 834.094 297.168C833.217 297.168 832.526 296.837 832.022 296.174C831.528 295.511 831.28 294.583 831.28 293.388C831.28 292.193 831.528 291.265 832.022 290.602C832.526 289.939 833.217 289.608 834.094 289.608C834.608 289.608 835.046 289.725 835.41 289.958C835.784 290.191 836.082 290.532 836.306 290.98H836.376V286.64H837.65V297H836.376V295.796ZM834.612 296.076C835.107 296.076 835.522 295.95 835.858 295.698C836.204 295.446 836.376 295.096 836.376 294.648V292.128C836.376 291.68 836.204 291.33 835.858 291.078C835.522 290.826 835.107 290.7 834.612 290.7C833.996 290.7 833.516 290.891 833.17 291.274C832.825 291.647 832.652 292.151 832.652 292.786V293.99C832.652 294.625 832.825 295.133 833.17 295.516C833.516 295.889 833.996 296.076 834.612 296.076ZM845.247 297C844.827 297 844.51 296.893 844.295 296.678C844.09 296.463 843.964 296.174 843.917 295.81H843.847C843.698 296.239 843.441 296.575 843.077 296.818C842.713 297.051 842.246 297.168 841.677 297.168C840.93 297.168 840.333 296.972 839.885 296.58C839.446 296.188 839.227 295.656 839.227 294.984C839.227 293.565 840.268 292.856 842.349 292.856H843.833V292.198C843.833 291.694 843.688 291.311 843.399 291.05C843.119 290.789 842.713 290.658 842.181 290.658C841.724 290.658 841.341 290.747 841.033 290.924C840.725 291.101 840.473 291.358 840.277 291.694L839.451 291.05C839.656 290.639 840.002 290.299 840.487 290.028C840.972 289.748 841.57 289.608 842.279 289.608C843.147 289.608 843.833 289.827 844.337 290.266C844.85 290.705 845.107 291.316 845.107 292.1V295.432C845.107 295.572 845.154 295.693 845.247 295.796C845.35 295.889 845.471 295.936 845.611 295.936H846.087V297H845.247ZM841.971 296.16C842.503 296.16 842.946 296.039 843.301 295.796C843.656 295.553 843.833 295.245 843.833 294.872V293.738H842.363C841.747 293.738 841.29 293.831 840.991 294.018C840.692 294.195 840.543 294.452 840.543 294.788V295.082C840.543 295.427 840.669 295.693 840.921 295.88C841.173 296.067 841.523 296.16 841.971 296.16ZM850.337 294.648C850.337 295.031 850.398 295.315 850.519 295.502C850.641 295.689 850.818 295.81 851.051 295.866C851.285 295.913 851.63 295.936 852.087 295.936H853.221V297H852.045C851.345 297 850.781 296.935 850.351 296.804C849.931 296.664 849.609 296.421 849.385 296.076C849.161 295.731 849.049 295.25 849.049 294.634V290.84H846.725V289.776H849.049V287.228H850.337V289.776H853.543V290.84H850.337V294.648ZM860.916 297C860.496 297 860.179 296.893 859.964 296.678C859.759 296.463 859.633 296.174 859.586 295.81H859.516C859.367 296.239 859.11 296.575 858.746 296.818C858.382 297.051 857.915 297.168 857.346 297.168C856.599 297.168 856.002 296.972 855.554 296.58C855.115 296.188 854.896 295.656 854.896 294.984C854.896 293.565 855.937 292.856 858.018 292.856H859.502V292.198C859.502 291.694 859.357 291.311 859.068 291.05C858.788 290.789 858.382 290.658 857.85 290.658C857.393 290.658 857.01 290.747 856.702 290.924C856.394 291.101 856.142 291.358 855.946 291.694L855.12 291.05C855.325 290.639 855.671 290.299 856.156 290.028C856.641 289.748 857.239 289.608 857.948 289.608C858.816 289.608 859.502 289.827 860.006 290.266C860.519 290.705 860.776 291.316 860.776 292.1V295.432C860.776 295.572 860.823 295.693 860.916 295.796C861.019 295.889 861.14 295.936 861.28 295.936H861.756V297H860.916ZM857.64 296.16C858.172 296.16 858.615 296.039 858.97 295.796C859.325 295.553 859.502 295.245 859.502 294.872V293.738H858.032C857.416 293.738 856.959 293.831 856.66 294.018C856.361 294.195 856.212 294.452 856.212 294.788V295.082C856.212 295.427 856.338 295.693 856.59 295.88C856.842 296.067 857.192 296.16 857.64 296.16ZM872.679 297.168C872.128 297.168 871.648 297.047 871.237 296.804C870.836 296.561 870.528 296.235 870.313 295.824C870.098 295.413 869.991 294.951 869.991 294.438C869.991 293.878 870.131 293.351 870.411 292.856C870.691 292.361 871.144 291.955 871.769 291.638C871.48 291.246 871.256 290.877 871.097 290.532C870.938 290.187 870.859 289.823 870.859 289.44C870.859 288.983 870.976 288.577 871.209 288.222C871.442 287.858 871.755 287.573 872.147 287.368C872.539 287.163 872.968 287.06 873.435 287.06C874.023 287.06 874.527 287.214 874.947 287.522C875.376 287.821 875.666 288.175 875.815 288.586L874.807 289.118C874.676 288.81 874.49 288.567 874.247 288.39C874.004 288.203 873.72 288.11 873.393 288.11C873.001 288.11 872.684 288.231 872.441 288.474C872.208 288.717 872.091 289.029 872.091 289.412V289.51C872.091 289.771 872.156 290.033 872.287 290.294C872.418 290.546 872.651 290.891 872.987 291.33L873.113 291.484L874.289 292.94L875.255 294.172H875.325C875.4 293.761 875.451 293.089 875.479 292.156L875.507 291.61H877.565V292.66H876.529L876.487 292.954C876.431 293.355 876.37 293.705 876.305 294.004C876.24 294.293 876.142 294.611 876.011 294.956L877.747 297H876.263L875.059 295.572H874.989C874.858 296.067 874.592 296.459 874.191 296.748C873.799 297.028 873.295 297.168 872.679 297.168ZM873.015 296.076C873.388 296.076 873.715 296.001 873.995 295.852C874.284 295.693 874.513 295.474 874.681 295.194L872.357 292.352C871.974 292.604 871.699 292.893 871.531 293.22C871.363 293.537 871.279 293.897 871.279 294.298V294.466C871.279 294.961 871.438 295.353 871.755 295.642C872.082 295.931 872.502 296.076 873.015 296.076ZM822.679 315.168C821.484 315.168 820.584 314.739 819.977 313.88C819.38 313.012 819.081 311.757 819.081 310.114C819.081 308.471 819.38 307.221 819.977 306.362C820.584 305.494 821.484 305.06 822.679 305.06C823.519 305.06 824.172 305.265 824.639 305.676C825.115 306.077 825.488 306.623 825.759 307.314L824.597 307.776C824.401 307.263 824.163 306.871 823.883 306.6C823.603 306.329 823.197 306.194 822.665 306.194C821.946 306.194 821.405 306.469 821.041 307.02C820.677 307.571 820.495 308.331 820.495 309.302V310.926C820.495 311.897 820.677 312.657 821.041 313.208C821.405 313.759 821.946 314.034 822.665 314.034C823.197 314.034 823.603 313.899 823.883 313.628C824.163 313.357 824.401 312.965 824.597 312.452L825.759 312.914C825.488 313.605 825.115 314.155 824.639 314.566C824.172 314.967 823.519 315.168 822.679 315.168ZM830.205 315.168C829.524 315.168 828.931 315.014 828.427 314.706C827.933 314.398 827.55 313.959 827.279 313.39C827.009 312.821 826.873 312.153 826.873 311.388C826.873 310.623 827.009 309.955 827.279 309.386C827.55 308.817 827.933 308.378 828.427 308.07C828.931 307.762 829.524 307.608 830.205 307.608C830.887 307.608 831.475 307.762 831.969 308.07C832.473 308.378 832.861 308.817 833.131 309.386C833.402 309.955 833.537 310.623 833.537 311.388C833.537 312.153 833.402 312.821 833.131 313.39C832.861 313.959 832.473 314.398 831.969 314.706C831.475 315.014 830.887 315.168 830.205 315.168ZM830.205 314.104C830.821 314.104 831.307 313.922 831.661 313.558C832.016 313.185 832.193 312.639 832.193 311.92V310.856C832.193 310.137 832.016 309.596 831.661 309.232C831.307 308.859 830.821 308.672 830.205 308.672C829.589 308.672 829.104 308.859 828.749 309.232C828.395 309.596 828.217 310.137 828.217 310.856V311.92C828.217 312.639 828.395 313.185 828.749 313.558C829.104 313.922 829.589 314.104 830.205 314.104ZM835.114 307.748H836.402V308.938H836.458C836.635 308.518 836.878 308.187 837.186 307.944C837.494 307.701 837.905 307.58 838.418 307.58C838.922 307.58 839.365 307.706 839.748 307.958C840.131 308.201 840.415 308.569 840.602 309.064H840.63C840.779 308.635 841.041 308.28 841.414 308C841.787 307.72 842.259 307.58 842.828 307.58C843.565 307.58 844.139 307.827 844.55 308.322C844.961 308.807 845.166 309.489 845.166 310.366V315H843.878V310.562C843.878 309.946 843.757 309.484 843.514 309.176C843.271 308.868 842.898 308.714 842.394 308.714C841.946 308.714 841.563 308.831 841.246 309.064C840.938 309.288 840.784 309.61 840.784 310.03V315H839.496V310.562C839.496 309.937 839.375 309.475 839.132 309.176C838.899 308.868 838.535 308.714 838.04 308.714C837.592 308.714 837.205 308.831 836.878 309.064C836.561 309.288 836.402 309.61 836.402 310.03V315H835.114V307.748ZM847.159 307.748H848.447V308.938H848.503C848.681 308.518 848.923 308.187 849.231 307.944C849.539 307.701 849.95 307.58 850.463 307.58C850.967 307.58 851.411 307.706 851.793 307.958C852.176 308.201 852.461 308.569 852.647 309.064H852.675C852.825 308.635 853.086 308.28 853.459 308C853.833 307.72 854.304 307.58 854.873 307.58C855.611 307.58 856.185 307.827 856.595 308.322C857.006 308.807 857.211 309.489 857.211 310.366V315H855.923V310.562C855.923 309.946 855.802 309.484 855.559 309.176C855.317 308.868 854.943 308.714 854.439 308.714C853.991 308.714 853.609 308.831 853.291 309.064C852.983 309.288 852.829 309.61 852.829 310.03V315H851.541V310.562C851.541 309.937 851.42 309.475 851.177 309.176C850.944 308.868 850.58 308.714 850.085 308.714C849.637 308.714 849.25 308.831 848.923 309.064C848.606 309.288 848.447 309.61 848.447 310.03V315H847.159V307.748ZM862.271 315.168C861.571 315.168 860.96 315.014 860.437 314.706C859.914 314.398 859.513 313.964 859.233 313.404C858.962 312.835 858.827 312.167 858.827 311.402C858.827 310.646 858.967 309.983 859.247 309.414C859.527 308.835 859.919 308.392 860.423 308.084C860.927 307.767 861.51 307.608 862.173 307.608C862.826 307.608 863.396 307.762 863.881 308.07C864.376 308.369 864.758 308.789 865.029 309.33C865.3 309.862 865.435 310.473 865.435 311.164V311.71H860.157V312.004C860.157 312.62 860.348 313.124 860.731 313.516C861.114 313.899 861.632 314.09 862.285 314.09C862.752 314.09 863.158 313.987 863.503 313.782C863.848 313.577 864.124 313.283 864.329 312.9L865.197 313.572C864.964 314.057 864.59 314.445 864.077 314.734C863.573 315.023 862.971 315.168 862.271 315.168ZM862.187 308.63C861.804 308.63 861.454 308.719 861.137 308.896C860.829 309.073 860.586 309.325 860.409 309.652C860.241 309.969 860.157 310.324 860.157 310.716V310.814H864.091V310.66C864.091 310.053 863.914 309.563 863.559 309.19C863.214 308.817 862.756 308.63 862.187 308.63ZM867.053 315V307.776H868.341V308.98H868.397C868.575 308.56 868.827 308.229 869.153 307.986C869.48 307.734 869.919 307.608 870.469 307.608C871.225 307.608 871.827 307.851 872.275 308.336C872.723 308.821 872.947 309.493 872.947 310.352V315H871.673V310.576C871.673 309.951 871.533 309.484 871.253 309.176C870.983 308.859 870.581 308.7 870.049 308.7C869.573 308.7 869.167 308.817 868.831 309.05C868.505 309.274 868.341 309.601 868.341 310.03V315H867.053ZM877.772 312.648C877.772 313.031 877.833 313.315 877.954 313.502C878.075 313.689 878.253 313.81 878.486 313.866C878.719 313.913 879.065 313.936 879.522 313.936H880.656V315H879.48C878.78 315 878.215 314.935 877.786 314.804C877.366 314.664 877.044 314.421 876.82 314.076C876.596 313.731 876.484 313.25 876.484 312.634V308.84H874.16V307.776H876.484V305.228H877.772V307.776H880.978V308.84H877.772V312.648ZM885.691 315.168C884.953 315.168 884.305 315.047 883.745 314.804C883.185 314.552 882.713 314.207 882.331 313.768L883.157 313.04C883.502 313.404 883.88 313.679 884.291 313.866C884.701 314.053 885.177 314.146 885.719 314.146C886.279 314.146 886.722 314.048 887.049 313.852C887.375 313.656 887.539 313.362 887.539 312.97C887.539 312.653 887.431 312.429 887.217 312.298C887.002 312.158 886.703 312.06 886.321 312.004L885.187 311.836C884.729 311.761 884.328 311.663 883.983 311.542C883.637 311.421 883.343 311.22 883.101 310.94C882.858 310.66 882.737 310.282 882.737 309.806C882.737 309.097 883.007 308.555 883.549 308.182C884.09 307.799 884.813 307.608 885.719 307.608C886.969 307.608 887.949 307.991 888.659 308.756L887.889 309.526C887.665 309.274 887.375 309.064 887.021 308.896C886.666 308.719 886.213 308.63 885.663 308.63C885.121 308.63 884.706 308.723 884.417 308.91C884.137 309.097 883.997 309.363 883.997 309.708C883.997 310.025 884.104 310.254 884.319 310.394C884.533 310.534 884.827 310.632 885.201 310.688L886.349 310.856C886.815 310.921 887.217 311.019 887.553 311.15C887.898 311.271 888.192 311.472 888.435 311.752C888.677 312.023 888.799 312.401 888.799 312.886C888.799 313.595 888.519 314.155 887.959 314.566C887.399 314.967 886.643 315.168 885.691 315.168Z" fill="black"/>
<path d="M616.232 297V287.228H619.816C620.721 287.228 621.417 287.48 621.902 287.984C622.397 288.488 622.644 289.193 622.644 290.098C622.644 290.994 622.397 291.694 621.902 292.198C621.417 292.702 620.721 292.954 619.816 292.954H617.562V297H616.232ZM617.562 291.82H619.704C620.199 291.82 620.577 291.703 620.838 291.47C621.099 291.227 621.23 290.882 621.23 290.434V289.748C621.23 289.3 621.099 288.959 620.838 288.726C620.577 288.483 620.199 288.362 619.704 288.362H617.562V291.82ZM623.899 295.936H625.943V290.84H623.899V289.776H627.231V291.638H627.301C627.655 290.397 628.458 289.776 629.709 289.776H630.675V291.022H629.275C628.631 291.022 628.127 291.209 627.763 291.582C627.408 291.946 627.231 292.413 627.231 292.982V295.936H629.961V297H623.899V295.936ZM634.869 297.168C634.188 297.168 633.595 297.014 633.091 296.706C632.596 296.398 632.214 295.959 631.943 295.39C631.672 294.821 631.537 294.153 631.537 293.388C631.537 292.623 631.672 291.955 631.943 291.386C632.214 290.817 632.596 290.378 633.091 290.07C633.595 289.762 634.188 289.608 634.869 289.608C635.55 289.608 636.138 289.762 636.633 290.07C637.137 290.378 637.524 290.817 637.795 291.386C638.066 291.955 638.201 292.623 638.201 293.388C638.201 294.153 638.066 294.821 637.795 295.39C637.524 295.959 637.137 296.398 636.633 296.706C636.138 297.014 635.55 297.168 634.869 297.168ZM634.869 296.104C635.485 296.104 635.97 295.922 636.325 295.558C636.68 295.185 636.857 294.639 636.857 293.92V292.856C636.857 292.137 636.68 291.596 636.325 291.232C635.97 290.859 635.485 290.672 634.869 290.672C634.253 290.672 633.768 290.859 633.413 291.232C633.058 291.596 632.881 292.137 632.881 292.856V293.92C632.881 294.639 633.058 295.185 633.413 295.558C633.768 295.922 634.253 296.104 634.869 296.104ZM644.384 295.796H644.314C644.09 296.244 643.791 296.585 643.418 296.818C643.054 297.051 642.615 297.168 642.102 297.168C641.224 297.168 640.534 296.837 640.03 296.174C639.535 295.511 639.288 294.583 639.288 293.388C639.288 292.193 639.535 291.265 640.03 290.602C640.534 289.939 641.224 289.608 642.102 289.608C642.615 289.608 643.054 289.725 643.418 289.958C643.791 290.191 644.09 290.532 644.314 290.98H644.384V286.64H645.658V297H644.384V295.796ZM642.62 296.076C643.114 296.076 643.53 295.95 643.866 295.698C644.211 295.446 644.384 295.096 644.384 294.648V292.128C644.384 291.68 644.211 291.33 643.866 291.078C643.53 290.826 643.114 290.7 642.62 290.7C642.004 290.7 641.523 290.891 641.178 291.274C640.832 291.647 640.66 292.151 640.66 292.786V293.99C640.66 294.625 640.832 295.133 641.178 295.516C641.523 295.889 642.004 296.076 642.62 296.076ZM652.162 295.796H652.106C651.929 296.216 651.677 296.552 651.35 296.804C651.023 297.047 650.585 297.168 650.034 297.168C649.278 297.168 648.676 296.925 648.228 296.44C647.78 295.955 647.556 295.283 647.556 294.424V289.776H648.83V294.2C648.83 294.825 648.965 295.297 649.236 295.614C649.516 295.922 649.922 296.076 650.454 296.076C650.93 296.076 651.331 295.964 651.658 295.74C651.994 295.507 652.162 295.175 652.162 294.746V289.776H653.45V297H652.162V295.796ZM658.639 297.168C657.584 297.168 656.763 296.827 656.175 296.146C655.587 295.465 655.293 294.545 655.293 293.388C655.293 292.231 655.587 291.311 656.175 290.63C656.763 289.949 657.579 289.608 658.625 289.608C659.306 289.608 659.875 289.757 660.333 290.056C660.79 290.355 661.131 290.765 661.355 291.288L660.333 291.834C660.202 291.47 659.987 291.19 659.689 290.994C659.399 290.789 659.045 290.686 658.625 290.686C658.009 290.686 657.523 290.882 657.169 291.274C656.823 291.657 656.651 292.156 656.651 292.772V294.004C656.651 294.629 656.823 295.133 657.169 295.516C657.523 295.899 658.018 296.09 658.653 296.09C659.101 296.09 659.479 295.983 659.787 295.768C660.104 295.553 660.351 295.255 660.529 294.872L661.467 295.474C661.233 295.997 660.879 296.412 660.403 296.72C659.927 297.019 659.339 297.168 658.639 297.168ZM666.179 294.648C666.179 295.031 666.24 295.315 666.361 295.502C666.483 295.689 666.66 295.81 666.893 295.866C667.127 295.913 667.472 295.936 667.929 295.936H669.063V297H667.887C667.187 297 666.623 296.935 666.193 296.804C665.773 296.664 665.451 296.421 665.227 296.076C665.003 295.731 664.891 295.25 664.891 294.634V290.84H662.567V289.776H664.891V287.228H666.179V289.776H669.385V290.84H666.179V294.648ZM683.556 295.796H683.486C683.262 296.244 682.964 296.585 682.59 296.818C682.226 297.051 681.788 297.168 681.274 297.168C680.397 297.168 679.706 296.837 679.202 296.174C678.708 295.511 678.46 294.583 678.46 293.388C678.46 292.193 678.708 291.265 679.202 290.602C679.706 289.939 680.397 289.608 681.274 289.608C681.788 289.608 682.226 289.725 682.59 289.958C682.964 290.191 683.262 290.532 683.486 290.98H683.556V286.64H684.83V297H683.556V295.796ZM681.792 296.076C682.287 296.076 682.702 295.95 683.038 295.698C683.384 295.446 683.556 295.096 683.556 294.648V292.128C683.556 291.68 683.384 291.33 683.038 291.078C682.702 290.826 682.287 290.7 681.792 290.7C681.176 290.7 680.696 290.891 680.35 291.274C680.005 291.647 679.832 292.151 679.832 292.786V293.99C679.832 294.625 680.005 295.133 680.35 295.516C680.696 295.889 681.176 296.076 681.792 296.076ZM692.427 297C692.007 297 691.689 296.893 691.475 296.678C691.269 296.463 691.143 296.174 691.097 295.81H691.027C690.877 296.239 690.621 296.575 690.257 296.818C689.893 297.051 689.426 297.168 688.857 297.168C688.11 297.168 687.513 296.972 687.065 296.58C686.626 296.188 686.407 295.656 686.407 294.984C686.407 293.565 687.447 292.856 689.529 292.856H691.013V292.198C691.013 291.694 690.868 291.311 690.579 291.05C690.299 290.789 689.893 290.658 689.361 290.658C688.903 290.658 688.521 290.747 688.213 290.924C687.905 291.101 687.653 291.358 687.457 291.694L686.631 291.05C686.836 290.639 687.181 290.299 687.667 290.028C688.152 289.748 688.749 289.608 689.459 289.608C690.327 289.608 691.013 289.827 691.517 290.266C692.03 290.705 692.287 291.316 692.287 292.1V295.432C692.287 295.572 692.333 295.693 692.427 295.796C692.529 295.889 692.651 295.936 692.791 295.936H693.267V297H692.427ZM689.151 296.16C689.683 296.16 690.126 296.039 690.481 295.796C690.835 295.553 691.013 295.245 691.013 294.872V293.738H689.543C688.927 293.738 688.469 293.831 688.171 294.018C687.872 294.195 687.723 294.452 687.723 294.788V295.082C687.723 295.427 687.849 295.693 688.101 295.88C688.353 296.067 688.703 296.16 689.151 296.16ZM697.517 294.648C697.517 295.031 697.578 295.315 697.699 295.502C697.821 295.689 697.998 295.81 698.231 295.866C698.465 295.913 698.81 295.936 699.267 295.936H700.401V297H699.225C698.525 297 697.961 296.935 697.531 296.804C697.111 296.664 696.789 296.421 696.565 296.076C696.341 295.731 696.229 295.25 696.229 294.634V290.84H693.905V289.776H696.229V287.228H697.517V289.776H700.723V290.84H697.517V294.648ZM708.096 297C707.676 297 707.359 296.893 707.144 296.678C706.939 296.463 706.813 296.174 706.766 295.81H706.696C706.547 296.239 706.29 296.575 705.926 296.818C705.562 297.051 705.095 297.168 704.526 297.168C703.779 297.168 703.182 296.972 702.734 296.58C702.295 296.188 702.076 295.656 702.076 294.984C702.076 293.565 703.117 292.856 705.198 292.856H706.682V292.198C706.682 291.694 706.537 291.311 706.248 291.05C705.968 290.789 705.562 290.658 705.03 290.658C704.573 290.658 704.19 290.747 703.882 290.924C703.574 291.101 703.322 291.358 703.126 291.694L702.3 291.05C702.505 290.639 702.851 290.299 703.336 290.028C703.821 289.748 704.419 289.608 705.128 289.608C705.996 289.608 706.682 289.827 707.186 290.266C707.699 290.705 707.956 291.316 707.956 292.1V295.432C707.956 295.572 708.003 295.693 708.096 295.796C708.199 295.889 708.32 295.936 708.46 295.936H708.936V297H708.096ZM704.82 296.16C705.352 296.16 705.795 296.039 706.15 295.796C706.505 295.553 706.682 295.245 706.682 294.872V293.738H705.212C704.596 293.738 704.139 293.831 703.84 294.018C703.541 294.195 703.392 294.452 703.392 294.788V295.082C703.392 295.427 703.518 295.693 703.77 295.88C704.022 296.067 704.372 296.16 704.82 296.16Z" fill="#113B29"/>
</svg>
