<svg width="1390" height="711" viewBox="0 0 1390 711" fill="none" xmlns="http://www.w3.org/2000/svg">
<rect width="1390" height="711" rx="8" fill="black" fill-opacity="0.15"/>
<path d="M642.006 347.545V365H639.585L630.713 352.199H630.551V365H627.918V347.545H630.355L639.236 360.364H639.398V347.545H642.006ZM650.085 365.264C648.795 365.264 647.684 364.989 646.752 364.438C645.826 363.881 645.11 363.099 644.605 362.094C644.105 361.082 643.855 359.898 643.855 358.54C643.855 357.199 644.105 356.017 644.605 354.994C645.11 353.972 645.815 353.173 646.718 352.599C647.627 352.026 648.69 351.739 649.906 351.739C650.644 351.739 651.36 351.861 652.054 352.105C652.747 352.349 653.369 352.733 653.92 353.256C654.471 353.778 654.906 354.457 655.224 355.293C655.542 356.122 655.701 357.131 655.701 358.318V359.222H645.295V357.312H653.204C653.204 356.642 653.068 356.048 652.795 355.531C652.522 355.009 652.139 354.597 651.644 354.295C651.156 353.994 650.582 353.844 649.923 353.844C649.207 353.844 648.582 354.02 648.048 354.372C647.519 354.719 647.11 355.173 646.821 355.736C646.537 356.293 646.394 356.898 646.394 357.551V359.043C646.394 359.918 646.548 360.662 646.855 361.276C647.167 361.889 647.602 362.358 648.159 362.682C648.715 363 649.366 363.159 650.11 363.159C650.593 363.159 651.034 363.091 651.431 362.955C651.829 362.812 652.173 362.602 652.463 362.324C652.752 362.045 652.974 361.702 653.127 361.293L655.539 361.727C655.346 362.437 655 363.06 654.5 363.594C654.005 364.122 653.383 364.534 652.633 364.83C651.889 365.119 651.039 365.264 650.085 365.264ZM662.971 365.264C661.681 365.264 660.57 364.989 659.638 364.438C658.712 363.881 657.996 363.099 657.491 362.094C656.991 361.082 656.741 359.898 656.741 358.54C656.741 357.199 656.991 356.017 657.491 354.994C657.996 353.972 658.701 353.173 659.604 352.599C660.513 352.026 661.576 351.739 662.792 351.739C663.53 351.739 664.246 351.861 664.939 352.105C665.633 352.349 666.255 352.733 666.806 353.256C667.357 353.778 667.792 354.457 668.11 355.293C668.428 356.122 668.587 357.131 668.587 358.318V359.222H658.181V357.312H666.09C666.09 356.642 665.954 356.048 665.681 355.531C665.408 355.009 665.025 354.597 664.53 354.295C664.042 353.994 663.468 353.844 662.809 353.844C662.093 353.844 661.468 354.02 660.934 354.372C660.405 354.719 659.996 355.173 659.707 355.736C659.422 356.293 659.28 356.898 659.28 357.551V359.043C659.28 359.918 659.434 360.662 659.741 361.276C660.053 361.889 660.488 362.358 661.045 362.682C661.601 363 662.252 363.159 662.996 363.159C663.479 363.159 663.92 363.091 664.317 362.955C664.715 362.812 665.059 362.602 665.349 362.324C665.638 362.045 665.86 361.702 666.013 361.293L668.425 361.727C668.232 362.437 667.886 363.06 667.386 363.594C666.891 364.122 666.269 364.534 665.519 364.83C664.775 365.119 663.925 365.264 662.971 365.264ZM675.115 365.256C674.058 365.256 673.115 364.986 672.286 364.446C671.462 363.901 670.814 363.125 670.342 362.119C669.877 361.108 669.644 359.895 669.644 358.48C669.644 357.065 669.879 355.855 670.351 354.849C670.828 353.844 671.482 353.074 672.311 352.54C673.141 352.006 674.081 351.739 675.132 351.739C675.945 351.739 676.598 351.875 677.092 352.148C677.592 352.415 677.979 352.727 678.252 353.085C678.53 353.443 678.746 353.759 678.899 354.031H679.053V347.545H681.601V365H679.112V362.963H678.899C678.746 363.241 678.524 363.56 678.235 363.918C677.95 364.276 677.558 364.588 677.058 364.855C676.558 365.122 675.911 365.256 675.115 365.256ZM675.678 363.082C676.411 363.082 677.03 362.889 677.536 362.503C678.047 362.111 678.433 361.568 678.695 360.875C678.962 360.182 679.095 359.375 679.095 358.455C679.095 357.545 678.965 356.75 678.703 356.068C678.442 355.386 678.058 354.855 677.553 354.474C677.047 354.094 676.422 353.903 675.678 353.903C674.911 353.903 674.271 354.102 673.76 354.5C673.249 354.898 672.862 355.44 672.601 356.128C672.345 356.815 672.217 357.591 672.217 358.455C672.217 359.33 672.348 360.116 672.61 360.815C672.871 361.514 673.257 362.068 673.769 362.477C674.286 362.881 674.922 363.082 675.678 363.082ZM693.848 355.105L691.538 355.514C691.441 355.219 691.288 354.937 691.078 354.67C690.873 354.403 690.595 354.185 690.243 354.014C689.89 353.844 689.45 353.759 688.922 353.759C688.2 353.759 687.598 353.92 687.115 354.244C686.632 354.562 686.39 354.974 686.39 355.48C686.39 355.918 686.552 356.27 686.876 356.537C687.2 356.804 687.723 357.023 688.444 357.193L690.524 357.67C691.728 357.949 692.626 358.378 693.217 358.957C693.808 359.537 694.103 360.29 694.103 361.216C694.103 362 693.876 362.699 693.422 363.312C692.973 363.92 692.345 364.398 691.538 364.744C690.737 365.091 689.808 365.264 688.751 365.264C687.285 365.264 686.089 364.952 685.163 364.327C684.237 363.696 683.669 362.801 683.459 361.642L685.922 361.267C686.075 361.909 686.39 362.395 686.868 362.724C687.345 363.048 687.967 363.21 688.734 363.21C689.569 363.21 690.237 363.037 690.737 362.69C691.237 362.338 691.487 361.909 691.487 361.403C691.487 360.994 691.334 360.651 691.027 360.372C690.726 360.094 690.263 359.884 689.638 359.741L687.422 359.256C686.2 358.977 685.297 358.534 684.711 357.926C684.132 357.318 683.842 356.548 683.842 355.616C683.842 354.844 684.058 354.168 684.49 353.588C684.922 353.009 685.518 352.557 686.28 352.233C687.041 351.903 687.913 351.739 688.896 351.739C690.311 351.739 691.424 352.045 692.237 352.659C693.049 353.267 693.586 354.082 693.848 355.105ZM700.857 365V351.909H703.405V365H700.857ZM702.144 349.889C701.701 349.889 701.32 349.741 701.002 349.446C700.689 349.145 700.533 348.787 700.533 348.372C700.533 347.952 700.689 347.594 701.002 347.298C701.32 346.997 701.701 346.847 702.144 346.847C702.587 346.847 702.965 346.997 703.277 347.298C703.595 347.594 703.755 347.952 703.755 348.372C703.755 348.787 703.595 349.145 703.277 349.446C702.965 349.741 702.587 349.889 702.144 349.889ZM705.633 365V351.909H708.079V354.04H708.241C708.514 353.318 708.96 352.756 709.579 352.352C710.199 351.943 710.94 351.739 711.804 351.739C712.679 351.739 713.412 351.943 714.003 352.352C714.599 352.761 715.04 353.324 715.324 354.04H715.46C715.773 353.341 716.27 352.784 716.952 352.369C717.633 351.949 718.446 351.739 719.389 351.739C720.577 351.739 721.545 352.111 722.295 352.855C723.051 353.599 723.429 354.722 723.429 356.222V365H720.881V356.46C720.881 355.574 720.639 354.932 720.156 354.534C719.673 354.136 719.096 353.938 718.426 353.938C717.596 353.938 716.952 354.193 716.491 354.705C716.031 355.21 715.801 355.861 715.801 356.656V365H713.261V356.298C713.261 355.588 713.04 355.017 712.596 354.585C712.153 354.153 711.577 353.938 710.866 353.938C710.383 353.938 709.937 354.065 709.528 354.321C709.125 354.571 708.798 354.92 708.548 355.369C708.304 355.818 708.182 356.338 708.182 356.929V365H705.633ZM729.454 365.29C728.624 365.29 727.874 365.136 727.204 364.83C726.534 364.517 726.002 364.065 725.61 363.474C725.224 362.884 725.031 362.159 725.031 361.301C725.031 360.562 725.173 359.955 725.457 359.477C725.741 359 726.124 358.622 726.607 358.344C727.09 358.065 727.63 357.855 728.227 357.713C728.823 357.571 729.431 357.463 730.051 357.389C730.835 357.298 731.471 357.224 731.96 357.168C732.448 357.105 732.803 357.006 733.025 356.869C733.247 356.733 733.357 356.511 733.357 356.205V356.145C733.357 355.401 733.147 354.824 732.727 354.415C732.312 354.006 731.693 353.801 730.869 353.801C730.011 353.801 729.335 353.991 728.84 354.372C728.352 354.747 728.014 355.165 727.826 355.625L725.431 355.08C725.715 354.284 726.13 353.642 726.676 353.153C727.227 352.659 727.86 352.301 728.576 352.08C729.292 351.852 730.045 351.739 730.835 351.739C731.357 351.739 731.911 351.801 732.497 351.926C733.088 352.045 733.639 352.267 734.15 352.591C734.667 352.915 735.09 353.378 735.42 353.98C735.749 354.577 735.914 355.352 735.914 356.307V365H733.426V363.21H733.323C733.159 363.54 732.911 363.864 732.582 364.182C732.252 364.5 731.829 364.764 731.312 364.974C730.795 365.185 730.176 365.29 729.454 365.29ZM730.008 363.244C730.713 363.244 731.315 363.105 731.815 362.827C732.32 362.548 732.704 362.185 732.965 361.736C733.232 361.281 733.366 360.795 733.366 360.278V358.591C733.275 358.682 733.099 358.767 732.838 358.847C732.582 358.92 732.289 358.986 731.96 359.043C731.63 359.094 731.309 359.142 730.997 359.188C730.684 359.227 730.423 359.261 730.213 359.29C729.718 359.352 729.266 359.457 728.857 359.605C728.454 359.753 728.13 359.966 727.886 360.244C727.647 360.517 727.528 360.881 727.528 361.335C727.528 361.966 727.761 362.443 728.227 362.767C728.693 363.085 729.286 363.244 730.008 363.244ZM743.597 370.182C742.557 370.182 741.662 370.045 740.912 369.773C740.168 369.5 739.56 369.139 739.088 368.69C738.617 368.241 738.265 367.75 738.032 367.216L740.222 366.312C740.375 366.562 740.58 366.827 740.836 367.105C741.097 367.389 741.449 367.631 741.892 367.83C742.341 368.028 742.918 368.128 743.623 368.128C744.588 368.128 745.387 367.892 746.017 367.42C746.648 366.955 746.963 366.21 746.963 365.188V362.614H746.802C746.648 362.892 746.427 363.202 746.137 363.543C745.853 363.884 745.461 364.179 744.961 364.429C744.461 364.679 743.81 364.804 743.009 364.804C741.975 364.804 741.043 364.562 740.213 364.08C739.39 363.591 738.736 362.872 738.253 361.923C737.776 360.969 737.537 359.795 737.537 358.403C737.537 357.011 737.773 355.818 738.245 354.824C738.722 353.83 739.375 353.068 740.205 352.54C741.035 352.006 741.975 351.739 743.026 351.739C743.838 351.739 744.495 351.875 744.995 352.148C745.495 352.415 745.884 352.727 746.162 353.085C746.446 353.443 746.665 353.759 746.819 354.031H747.006V351.909H749.503V365.29C749.503 366.415 749.242 367.338 748.719 368.06C748.196 368.781 747.489 369.315 746.597 369.662C745.711 370.009 744.711 370.182 743.597 370.182ZM743.571 362.69C744.304 362.69 744.924 362.52 745.429 362.179C745.941 361.832 746.327 361.338 746.588 360.696C746.856 360.048 746.989 359.273 746.989 358.369C746.989 357.489 746.858 356.713 746.597 356.043C746.336 355.372 745.952 354.849 745.446 354.474C744.941 354.094 744.316 353.903 743.571 353.903C742.804 353.903 742.165 354.102 741.654 354.5C741.142 354.892 740.756 355.426 740.495 356.102C740.239 356.778 740.111 357.534 740.111 358.369C740.111 359.227 740.242 359.98 740.503 360.628C740.765 361.276 741.151 361.781 741.662 362.145C742.179 362.509 742.816 362.69 743.571 362.69ZM757.363 365.264C756.073 365.264 754.962 364.989 754.031 364.438C753.104 363.881 752.388 363.099 751.883 362.094C751.383 361.082 751.133 359.898 751.133 358.54C751.133 357.199 751.383 356.017 751.883 354.994C752.388 353.972 753.093 353.173 753.996 352.599C754.906 352.026 755.968 351.739 757.184 351.739C757.923 351.739 758.638 351.861 759.332 352.105C760.025 352.349 760.647 352.733 761.198 353.256C761.749 353.778 762.184 354.457 762.502 355.293C762.82 356.122 762.979 357.131 762.979 358.318V359.222H752.573V357.312H760.482C760.482 356.642 760.346 356.048 760.073 355.531C759.8 355.009 759.417 354.597 758.923 354.295C758.434 353.994 757.86 353.844 757.201 353.844C756.485 353.844 755.86 354.02 755.326 354.372C754.798 354.719 754.388 355.173 754.099 355.736C753.815 356.293 753.673 356.898 753.673 357.551V359.043C753.673 359.918 753.826 360.662 754.133 361.276C754.445 361.889 754.88 362.358 755.437 362.682C755.994 363 756.644 363.159 757.388 363.159C757.871 363.159 758.312 363.091 758.71 362.955C759.107 362.812 759.451 362.602 759.741 362.324C760.031 362.045 760.252 361.702 760.406 361.293L762.817 361.727C762.624 362.437 762.278 363.06 761.778 363.594C761.283 364.122 760.661 364.534 759.911 364.83C759.167 365.119 758.317 365.264 757.363 365.264Z" fill="#707070"/>
</svg>
