<svg width="1194" height="746" viewBox="0 0 1194 746" fill="none" xmlns="http://www.w3.org/2000/svg">
<path d="M536.368 293.148H542.038C542.95 293.148 543.694 293.28 544.27 293.544C544.846 293.808 545.29 294.138 545.602 294.534C545.914 294.93 546.124 295.362 546.232 295.83C546.352 296.298 546.412 296.73 546.412 297.126C546.412 297.522 546.352 297.954 546.232 298.422C546.124 298.878 545.914 299.304 545.602 299.7C545.29 300.096 544.846 300.426 544.27 300.69C543.694 300.942 542.95 301.068 542.038 301.068H538.618V306H536.368V293.148ZM538.618 299.232H541.912C542.164 299.232 542.422 299.196 542.686 299.124C542.95 299.052 543.19 298.938 543.406 298.782C543.634 298.614 543.814 298.398 543.946 298.134C544.09 297.858 544.162 297.516 544.162 297.108C544.162 296.688 544.102 296.34 543.982 296.064C543.862 295.788 543.7 295.572 543.496 295.416C543.292 295.248 543.058 295.134 542.794 295.074C542.53 295.014 542.248 294.984 541.948 294.984H538.618V299.232ZM555.88 303.93C555.88 304.182 555.91 304.362 555.97 304.47C556.042 304.578 556.174 304.632 556.366 304.632C556.426 304.632 556.498 304.632 556.582 304.632C556.666 304.632 556.762 304.62 556.87 304.596V306.018C556.798 306.042 556.702 306.066 556.582 306.09C556.474 306.126 556.36 306.156 556.24 306.18C556.12 306.204 556 306.222 555.88 306.234C555.76 306.246 555.658 306.252 555.574 306.252C555.154 306.252 554.806 306.168 554.53 306C554.254 305.832 554.074 305.538 553.99 305.118C553.582 305.514 553.078 305.802 552.478 305.982C551.89 306.162 551.32 306.252 550.768 306.252C550.348 306.252 549.946 306.192 549.562 306.072C549.178 305.964 548.836 305.802 548.536 305.586C548.248 305.358 548.014 305.076 547.834 304.74C547.666 304.392 547.582 303.99 547.582 303.534C547.582 302.958 547.684 302.49 547.888 302.13C548.104 301.77 548.38 301.488 548.716 301.284C549.064 301.08 549.448 300.936 549.868 300.852C550.3 300.756 550.732 300.684 551.164 300.636C551.536 300.564 551.89 300.516 552.226 300.492C552.562 300.456 552.856 300.402 553.108 300.33C553.372 300.258 553.576 300.15 553.72 300.006C553.876 299.85 553.954 299.622 553.954 299.322C553.954 299.058 553.888 298.842 553.756 298.674C553.636 298.506 553.48 298.38 553.288 298.296C553.108 298.2 552.904 298.14 552.676 298.116C552.448 298.08 552.232 298.062 552.028 298.062C551.452 298.062 550.978 298.182 550.606 298.422C550.234 298.662 550.024 299.034 549.976 299.538H547.924C547.96 298.938 548.104 298.44 548.356 298.044C548.608 297.648 548.926 297.33 549.31 297.09C549.706 296.85 550.15 296.682 550.642 296.586C551.134 296.49 551.638 296.442 552.154 296.442C552.61 296.442 553.06 296.49 553.504 296.586C553.948 296.682 554.344 296.838 554.692 297.054C555.052 297.27 555.34 297.552 555.556 297.9C555.772 298.236 555.88 298.65 555.88 299.142V303.93ZM553.828 301.338C553.516 301.542 553.132 301.668 552.676 301.716C552.22 301.752 551.764 301.812 551.308 301.896C551.092 301.932 550.882 301.986 550.678 302.058C550.474 302.118 550.294 302.208 550.138 302.328C549.982 302.436 549.856 302.586 549.76 302.778C549.676 302.958 549.634 303.18 549.634 303.444C549.634 303.672 549.7 303.864 549.832 304.02C549.964 304.176 550.12 304.302 550.3 304.398C550.492 304.482 550.696 304.542 550.912 304.578C551.14 304.614 551.344 304.632 551.524 304.632C551.752 304.632 551.998 304.602 552.262 304.542C552.526 304.482 552.772 304.38 553 304.236C553.24 304.092 553.438 303.912 553.594 303.696C553.75 303.468 553.828 303.192 553.828 302.868V301.338ZM566.692 305.514C566.692 306.918 566.296 307.962 565.504 308.646C564.724 309.342 563.596 309.69 562.12 309.69C561.652 309.69 561.178 309.642 560.698 309.546C560.23 309.45 559.798 309.288 559.402 309.06C559.018 308.832 558.694 308.532 558.43 308.16C558.166 307.788 558.01 307.332 557.962 306.792H560.014C560.074 307.08 560.176 307.314 560.32 307.494C560.464 307.674 560.632 307.812 560.824 307.908C561.028 308.016 561.25 308.082 561.49 308.106C561.73 308.142 561.982 308.16 562.246 308.16C563.074 308.16 563.68 307.956 564.064 307.548C564.448 307.14 564.64 306.552 564.64 305.784V304.362H564.604C564.316 304.878 563.92 305.28 563.416 305.568C562.924 305.856 562.39 306 561.814 306C561.07 306 560.434 305.874 559.906 305.622C559.39 305.358 558.958 305.004 558.61 304.56C558.274 304.104 558.028 303.582 557.872 302.994C557.716 302.406 557.638 301.776 557.638 301.104C557.638 300.48 557.734 299.886 557.926 299.322C558.118 298.758 558.394 298.266 558.754 297.846C559.114 297.414 559.552 297.072 560.068 296.82C560.596 296.568 561.19 296.442 561.85 296.442C562.438 296.442 562.978 296.568 563.47 296.82C563.962 297.06 564.34 297.444 564.604 297.972H564.64V296.694H566.692V305.514ZM562.138 304.38C562.594 304.38 562.978 304.29 563.29 304.11C563.614 303.918 563.872 303.672 564.064 303.372C564.268 303.06 564.412 302.712 564.496 302.328C564.592 301.932 564.64 301.536 564.64 301.14C564.64 300.744 564.592 300.36 564.496 299.988C564.4 299.616 564.25 299.286 564.046 298.998C563.854 298.71 563.596 298.482 563.272 298.314C562.96 298.146 562.582 298.062 562.138 298.062C561.682 298.062 561.298 298.158 560.986 298.35C560.674 298.542 560.422 298.794 560.23 299.106C560.038 299.406 559.9 299.754 559.816 300.15C559.732 300.534 559.69 300.918 559.69 301.302C559.69 301.686 559.738 302.064 559.834 302.436C559.93 302.796 560.074 303.12 560.266 303.408C560.47 303.696 560.722 303.93 561.022 304.11C561.334 304.29 561.706 304.38 562.138 304.38ZM575.148 300.528C575.124 300.204 575.052 299.892 574.932 299.592C574.824 299.292 574.668 299.034 574.464 298.818C574.272 298.59 574.032 298.41 573.744 298.278C573.468 298.134 573.156 298.062 572.808 298.062C572.448 298.062 572.118 298.128 571.818 298.26C571.53 298.38 571.278 298.554 571.062 298.782C570.858 298.998 570.69 299.256 570.558 299.556C570.438 299.856 570.372 300.18 570.36 300.528H575.148ZM570.36 301.878C570.36 302.238 570.408 302.586 570.504 302.922C570.612 303.258 570.768 303.552 570.972 303.804C571.176 304.056 571.434 304.26 571.746 304.416C572.058 304.56 572.43 304.632 572.862 304.632C573.462 304.632 573.942 304.506 574.302 304.254C574.674 303.99 574.95 303.6 575.13 303.084H577.074C576.966 303.588 576.78 304.038 576.516 304.434C576.252 304.83 575.934 305.166 575.562 305.442C575.19 305.706 574.77 305.904 574.302 306.036C573.846 306.18 573.366 306.252 572.862 306.252C572.13 306.252 571.482 306.132 570.918 305.892C570.354 305.652 569.874 305.316 569.478 304.884C569.094 304.452 568.8 303.936 568.596 303.336C568.404 302.736 568.308 302.076 568.308 301.356C568.308 300.696 568.41 300.072 568.614 299.484C568.83 298.884 569.13 298.362 569.514 297.918C569.91 297.462 570.384 297.102 570.936 296.838C571.488 296.574 572.112 296.442 572.808 296.442C573.54 296.442 574.194 296.598 574.77 296.91C575.358 297.21 575.844 297.612 576.228 298.116C576.612 298.62 576.888 299.202 577.056 299.862C577.236 300.51 577.284 301.182 577.2 301.878H570.36ZM582.833 296.694H584.381V293.904H586.433V296.694H588.287V298.224H586.433V303.192C586.433 303.408 586.439 303.594 586.451 303.75C586.475 303.906 586.517 304.038 586.577 304.146C586.649 304.254 586.751 304.338 586.883 304.398C587.015 304.446 587.195 304.47 587.423 304.47C587.567 304.47 587.711 304.47 587.855 304.47C587.999 304.458 588.143 304.434 588.287 304.398V305.982C588.059 306.006 587.837 306.03 587.621 306.054C587.405 306.078 587.183 306.09 586.955 306.09C586.415 306.09 585.977 306.042 585.641 305.946C585.317 305.838 585.059 305.688 584.867 305.496C584.687 305.292 584.561 305.04 584.489 304.74C584.429 304.44 584.393 304.098 584.381 303.714V298.224H582.833V296.694ZM596.154 300.528C596.13 300.204 596.058 299.892 595.938 299.592C595.83 299.292 595.674 299.034 595.47 298.818C595.278 298.59 595.038 298.41 594.75 298.278C594.474 298.134 594.162 298.062 593.814 298.062C593.454 298.062 593.124 298.128 592.824 298.26C592.536 298.38 592.284 298.554 592.068 298.782C591.864 298.998 591.696 299.256 591.564 299.556C591.444 299.856 591.378 300.18 591.366 300.528H596.154ZM591.366 301.878C591.366 302.238 591.414 302.586 591.51 302.922C591.618 303.258 591.774 303.552 591.978 303.804C592.182 304.056 592.44 304.26 592.752 304.416C593.064 304.56 593.436 304.632 593.868 304.632C594.468 304.632 594.948 304.506 595.308 304.254C595.68 303.99 595.956 303.6 596.136 303.084H598.08C597.972 303.588 597.786 304.038 597.522 304.434C597.258 304.83 596.94 305.166 596.568 305.442C596.196 305.706 595.776 305.904 595.308 306.036C594.852 306.18 594.372 306.252 593.868 306.252C593.136 306.252 592.488 306.132 591.924 305.892C591.36 305.652 590.88 305.316 590.484 304.884C590.1 304.452 589.806 303.936 589.602 303.336C589.41 302.736 589.314 302.076 589.314 301.356C589.314 300.696 589.416 300.072 589.62 299.484C589.836 298.884 590.136 298.362 590.52 297.918C590.916 297.462 591.39 297.102 591.942 296.838C592.494 296.574 593.118 296.442 593.814 296.442C594.546 296.442 595.2 296.598 595.776 296.91C596.364 297.21 596.85 297.612 597.234 298.116C597.618 298.62 597.894 299.202 598.062 299.862C598.242 300.51 598.29 301.182 598.206 301.878H591.366ZM599.766 296.694H601.71V297.99H601.764C601.92 297.762 602.088 297.552 602.268 297.36C602.448 297.168 602.646 297.006 602.862 296.874C603.09 296.742 603.348 296.64 603.636 296.568C603.924 296.484 604.254 296.442 604.626 296.442C605.19 296.442 605.712 296.568 606.192 296.82C606.684 297.072 607.032 297.462 607.236 297.99C607.584 297.51 607.986 297.132 608.442 296.856C608.898 296.58 609.468 296.442 610.152 296.442C611.136 296.442 611.898 296.682 612.438 297.162C612.99 297.642 613.266 298.446 613.266 299.574V306H611.214V300.564C611.214 300.192 611.202 299.856 611.178 299.556C611.154 299.244 611.082 298.98 610.962 298.764C610.854 298.536 610.686 298.362 610.458 298.242C610.23 298.122 609.918 298.062 609.522 298.062C608.826 298.062 608.322 298.278 608.01 298.71C607.698 299.142 607.542 299.754 607.542 300.546V306H605.49V300.024C605.49 299.376 605.37 298.89 605.13 298.566C604.902 298.23 604.476 298.062 603.852 298.062C603.588 298.062 603.33 298.116 603.078 298.224C602.838 298.332 602.622 298.488 602.43 298.692C602.25 298.896 602.1 299.148 601.98 299.448C601.872 299.748 601.818 300.09 601.818 300.474V306H599.766V296.694ZM615.482 296.694H617.426V297.954H617.462C617.75 297.414 618.152 297.03 618.668 296.802C619.184 296.562 619.742 296.442 620.342 296.442C621.074 296.442 621.71 296.574 622.25 296.838C622.802 297.09 623.258 297.444 623.618 297.9C623.978 298.344 624.248 298.866 624.428 299.466C624.608 300.066 624.698 300.708 624.698 301.392C624.698 302.016 624.614 302.622 624.446 303.21C624.29 303.798 624.044 304.32 623.708 304.776C623.384 305.22 622.97 305.58 622.466 305.856C621.962 306.12 621.368 306.252 620.684 306.252C620.384 306.252 620.084 306.222 619.784 306.162C619.484 306.114 619.196 306.03 618.92 305.91C618.644 305.79 618.386 305.64 618.146 305.46C617.918 305.268 617.726 305.046 617.57 304.794H617.534V309.438H615.482V296.694ZM622.646 301.356C622.646 300.936 622.592 300.528 622.484 300.132C622.376 299.736 622.214 299.388 621.998 299.088C621.782 298.776 621.512 298.53 621.188 298.35C620.864 298.158 620.492 298.062 620.072 298.062C619.208 298.062 618.554 298.362 618.11 298.962C617.678 299.562 617.462 300.36 617.462 301.356C617.462 301.824 617.516 302.262 617.624 302.67C617.744 303.066 617.918 303.408 618.146 303.696C618.374 303.984 618.644 304.212 618.956 304.38C619.28 304.548 619.652 304.632 620.072 304.632C620.54 304.632 620.936 304.536 621.26 304.344C621.584 304.152 621.848 303.906 622.052 303.606C622.268 303.294 622.418 302.946 622.502 302.562C622.598 302.166 622.646 301.764 622.646 301.356ZM626.486 293.148H628.538V306H626.486V293.148ZM638.567 303.93C638.567 304.182 638.597 304.362 638.657 304.47C638.729 304.578 638.861 304.632 639.053 304.632C639.113 304.632 639.185 304.632 639.269 304.632C639.353 304.632 639.449 304.62 639.557 304.596V306.018C639.485 306.042 639.389 306.066 639.269 306.09C639.161 306.126 639.047 306.156 638.927 306.18C638.807 306.204 638.687 306.222 638.567 306.234C638.447 306.246 638.345 306.252 638.261 306.252C637.841 306.252 637.493 306.168 637.217 306C636.941 305.832 636.761 305.538 636.677 305.118C636.269 305.514 635.765 305.802 635.165 305.982C634.577 306.162 634.007 306.252 633.455 306.252C633.035 306.252 632.633 306.192 632.249 306.072C631.865 305.964 631.523 305.802 631.223 305.586C630.935 305.358 630.701 305.076 630.521 304.74C630.353 304.392 630.269 303.99 630.269 303.534C630.269 302.958 630.371 302.49 630.575 302.13C630.791 301.77 631.067 301.488 631.403 301.284C631.751 301.08 632.135 300.936 632.555 300.852C632.987 300.756 633.419 300.684 633.851 300.636C634.223 300.564 634.577 300.516 634.913 300.492C635.249 300.456 635.543 300.402 635.795 300.33C636.059 300.258 636.263 300.15 636.407 300.006C636.563 299.85 636.641 299.622 636.641 299.322C636.641 299.058 636.575 298.842 636.443 298.674C636.323 298.506 636.167 298.38 635.975 298.296C635.795 298.2 635.591 298.14 635.363 298.116C635.135 298.08 634.919 298.062 634.715 298.062C634.139 298.062 633.665 298.182 633.293 298.422C632.921 298.662 632.711 299.034 632.663 299.538H630.611C630.647 298.938 630.791 298.44 631.043 298.044C631.295 297.648 631.613 297.33 631.997 297.09C632.393 296.85 632.837 296.682 633.329 296.586C633.821 296.49 634.325 296.442 634.841 296.442C635.297 296.442 635.747 296.49 636.191 296.586C636.635 296.682 637.031 296.838 637.379 297.054C637.739 297.27 638.027 297.552 638.243 297.9C638.459 298.236 638.567 298.65 638.567 299.142V303.93ZM636.515 301.338C636.203 301.542 635.819 301.668 635.363 301.716C634.907 301.752 634.451 301.812 633.995 301.896C633.779 301.932 633.569 301.986 633.365 302.058C633.161 302.118 632.981 302.208 632.825 302.328C632.669 302.436 632.543 302.586 632.447 302.778C632.363 302.958 632.321 303.18 632.321 303.444C632.321 303.672 632.387 303.864 632.519 304.02C632.651 304.176 632.807 304.302 632.987 304.398C633.179 304.482 633.383 304.542 633.599 304.578C633.827 304.614 634.031 304.632 634.211 304.632C634.439 304.632 634.685 304.602 634.949 304.542C635.213 304.482 635.459 304.38 635.687 304.236C635.927 304.092 636.125 303.912 636.281 303.696C636.437 303.468 636.515 303.192 636.515 302.868V301.338ZM639.839 296.694H641.387V293.904H643.439V296.694H645.293V298.224H643.439V303.192C643.439 303.408 643.445 303.594 643.457 303.75C643.481 303.906 643.523 304.038 643.583 304.146C643.655 304.254 643.757 304.338 643.889 304.398C644.021 304.446 644.201 304.47 644.429 304.47C644.573 304.47 644.717 304.47 644.861 304.47C645.005 304.458 645.149 304.434 645.293 304.398V305.982C645.065 306.006 644.843 306.03 644.627 306.054C644.411 306.078 644.189 306.09 643.961 306.09C643.421 306.09 642.983 306.042 642.647 305.946C642.323 305.838 642.065 305.688 641.873 305.496C641.693 305.292 641.567 305.04 641.495 304.74C641.435 304.44 641.399 304.098 641.387 303.714V298.224H639.839V296.694ZM653.159 300.528C653.135 300.204 653.063 299.892 652.943 299.592C652.835 299.292 652.679 299.034 652.475 298.818C652.283 298.59 652.043 298.41 651.755 298.278C651.479 298.134 651.167 298.062 650.819 298.062C650.459 298.062 650.129 298.128 649.829 298.26C649.541 298.38 649.289 298.554 649.073 298.782C648.869 298.998 648.701 299.256 648.569 299.556C648.449 299.856 648.383 300.18 648.371 300.528H653.159ZM648.371 301.878C648.371 302.238 648.419 302.586 648.515 302.922C648.623 303.258 648.779 303.552 648.983 303.804C649.187 304.056 649.445 304.26 649.757 304.416C650.069 304.56 650.441 304.632 650.873 304.632C651.473 304.632 651.953 304.506 652.313 304.254C652.685 303.99 652.961 303.6 653.141 303.084H655.085C654.977 303.588 654.791 304.038 654.527 304.434C654.263 304.83 653.945 305.166 653.573 305.442C653.201 305.706 652.781 305.904 652.313 306.036C651.857 306.18 651.377 306.252 650.873 306.252C650.141 306.252 649.493 306.132 648.929 305.892C648.365 305.652 647.885 305.316 647.489 304.884C647.105 304.452 646.811 303.936 646.607 303.336C646.415 302.736 646.319 302.076 646.319 301.356C646.319 300.696 646.421 300.072 646.625 299.484C646.841 298.884 647.141 298.362 647.525 297.918C647.921 297.462 648.395 297.102 648.947 296.838C649.499 296.574 650.123 296.442 650.819 296.442C651.551 296.442 652.205 296.598 652.781 296.91C653.369 297.21 653.855 297.612 654.239 298.116C654.623 298.62 654.899 299.202 655.067 299.862C655.247 300.51 655.295 301.182 655.211 301.878H648.371ZM658.319 303.012C658.379 303.612 658.607 304.032 659.003 304.272C659.399 304.512 659.873 304.632 660.425 304.632C660.617 304.632 660.833 304.62 661.073 304.596C661.325 304.56 661.559 304.5 661.775 304.416C661.991 304.332 662.165 304.212 662.297 304.056C662.441 303.888 662.507 303.672 662.495 303.408C662.483 303.144 662.387 302.928 662.207 302.76C662.027 302.592 661.793 302.46 661.505 302.364C661.229 302.256 660.911 302.166 660.551 302.094C660.191 302.022 659.825 301.944 659.453 301.86C659.069 301.776 658.697 301.674 658.337 301.554C657.989 301.434 657.671 301.272 657.383 301.068C657.107 300.864 656.885 300.606 656.717 300.294C656.549 299.97 656.465 299.574 656.465 299.106C656.465 298.602 656.585 298.182 656.825 297.846C657.077 297.498 657.389 297.222 657.761 297.018C658.145 296.802 658.565 296.652 659.021 296.568C659.489 296.484 659.933 296.442 660.353 296.442C660.833 296.442 661.289 296.496 661.721 296.604C662.165 296.7 662.561 296.862 662.909 297.09C663.269 297.318 663.563 297.618 663.791 297.99C664.031 298.35 664.181 298.788 664.241 299.304H662.099C662.003 298.812 661.775 298.482 661.415 298.314C661.067 298.146 660.665 298.062 660.209 298.062C660.065 298.062 659.891 298.074 659.687 298.098C659.495 298.122 659.309 298.17 659.129 298.242C658.961 298.302 658.817 298.398 658.697 298.53C658.577 298.65 658.517 298.812 658.517 299.016C658.517 299.268 658.601 299.472 658.769 299.628C658.949 299.784 659.177 299.916 659.453 300.024C659.741 300.12 660.065 300.204 660.425 300.276C660.785 300.348 661.157 300.426 661.541 300.51C661.913 300.594 662.279 300.696 662.639 300.816C662.999 300.936 663.317 301.098 663.593 301.302C663.881 301.506 664.109 301.764 664.277 302.076C664.457 302.388 664.547 302.772 664.547 303.228C664.547 303.78 664.421 304.248 664.169 304.632C663.917 305.016 663.587 305.328 663.179 305.568C662.783 305.808 662.339 305.982 661.847 306.09C661.355 306.198 660.869 306.252 660.389 306.252C659.801 306.252 659.255 306.186 658.751 306.054C658.259 305.922 657.827 305.724 657.455 305.46C657.095 305.184 656.807 304.848 656.591 304.452C656.387 304.044 656.279 303.564 656.267 303.012H658.319Z" fill="black"/>
<path d="M575.368 100.148H581.038C581.95 100.148 582.694 100.28 583.27 100.544C583.846 100.808 584.29 101.138 584.602 101.534C584.914 101.93 585.124 102.362 585.232 102.83C585.352 103.298 585.412 103.73 585.412 104.126C585.412 104.522 585.352 104.954 585.232 105.422C585.124 105.878 584.914 106.304 584.602 106.7C584.29 107.096 583.846 107.426 583.27 107.69C582.694 107.942 581.95 108.068 581.038 108.068H577.618V113H575.368V100.148ZM577.618 106.232H580.912C581.164 106.232 581.422 106.196 581.686 106.124C581.95 106.052 582.19 105.938 582.406 105.782C582.634 105.614 582.814 105.398 582.946 105.134C583.09 104.858 583.162 104.516 583.162 104.108C583.162 103.688 583.102 103.34 582.982 103.064C582.862 102.788 582.7 102.572 582.496 102.416C582.292 102.248 582.058 102.134 581.794 102.074C581.53 102.014 581.248 101.984 580.948 101.984H577.618V106.232ZM594.88 110.93C594.88 111.182 594.91 111.362 594.97 111.47C595.042 111.578 595.174 111.632 595.366 111.632C595.426 111.632 595.498 111.632 595.582 111.632C595.666 111.632 595.762 111.62 595.87 111.596V113.018C595.798 113.042 595.702 113.066 595.582 113.09C595.474 113.126 595.36 113.156 595.24 113.18C595.12 113.204 595 113.222 594.88 113.234C594.76 113.246 594.658 113.252 594.574 113.252C594.154 113.252 593.806 113.168 593.53 113C593.254 112.832 593.074 112.538 592.99 112.118C592.582 112.514 592.078 112.802 591.478 112.982C590.89 113.162 590.32 113.252 589.768 113.252C589.348 113.252 588.946 113.192 588.562 113.072C588.178 112.964 587.836 112.802 587.536 112.586C587.248 112.358 587.014 112.076 586.834 111.74C586.666 111.392 586.582 110.99 586.582 110.534C586.582 109.958 586.684 109.49 586.888 109.13C587.104 108.77 587.38 108.488 587.716 108.284C588.064 108.08 588.448 107.936 588.868 107.852C589.3 107.756 589.732 107.684 590.164 107.636C590.536 107.564 590.89 107.516 591.226 107.492C591.562 107.456 591.856 107.402 592.108 107.33C592.372 107.258 592.576 107.15 592.72 107.006C592.876 106.85 592.954 106.622 592.954 106.322C592.954 106.058 592.888 105.842 592.756 105.674C592.636 105.506 592.48 105.38 592.288 105.296C592.108 105.2 591.904 105.14 591.676 105.116C591.448 105.08 591.232 105.062 591.028 105.062C590.452 105.062 589.978 105.182 589.606 105.422C589.234 105.662 589.024 106.034 588.976 106.538H586.924C586.96 105.938 587.104 105.44 587.356 105.044C587.608 104.648 587.926 104.33 588.31 104.09C588.706 103.85 589.15 103.682 589.642 103.586C590.134 103.49 590.638 103.442 591.154 103.442C591.61 103.442 592.06 103.49 592.504 103.586C592.948 103.682 593.344 103.838 593.692 104.054C594.052 104.27 594.34 104.552 594.556 104.9C594.772 105.236 594.88 105.65 594.88 106.142V110.93ZM592.828 108.338C592.516 108.542 592.132 108.668 591.676 108.716C591.22 108.752 590.764 108.812 590.308 108.896C590.092 108.932 589.882 108.986 589.678 109.058C589.474 109.118 589.294 109.208 589.138 109.328C588.982 109.436 588.856 109.586 588.76 109.778C588.676 109.958 588.634 110.18 588.634 110.444C588.634 110.672 588.7 110.864 588.832 111.02C588.964 111.176 589.12 111.302 589.3 111.398C589.492 111.482 589.696 111.542 589.912 111.578C590.14 111.614 590.344 111.632 590.524 111.632C590.752 111.632 590.998 111.602 591.262 111.542C591.526 111.482 591.772 111.38 592 111.236C592.24 111.092 592.438 110.912 592.594 110.696C592.75 110.468 592.828 110.192 592.828 109.868V108.338ZM605.692 112.514C605.692 113.918 605.296 114.962 604.504 115.646C603.724 116.342 602.596 116.69 601.12 116.69C600.652 116.69 600.178 116.642 599.698 116.546C599.23 116.45 598.798 116.288 598.402 116.06C598.018 115.832 597.694 115.532 597.43 115.16C597.166 114.788 597.01 114.332 596.962 113.792H599.014C599.074 114.08 599.176 114.314 599.32 114.494C599.464 114.674 599.632 114.812 599.824 114.908C600.028 115.016 600.25 115.082 600.49 115.106C600.73 115.142 600.982 115.16 601.246 115.16C602.074 115.16 602.68 114.956 603.064 114.548C603.448 114.14 603.64 113.552 603.64 112.784V111.362H603.604C603.316 111.878 602.92 112.28 602.416 112.568C601.924 112.856 601.39 113 600.814 113C600.07 113 599.434 112.874 598.906 112.622C598.39 112.358 597.958 112.004 597.61 111.56C597.274 111.104 597.028 110.582 596.872 109.994C596.716 109.406 596.638 108.776 596.638 108.104C596.638 107.48 596.734 106.886 596.926 106.322C597.118 105.758 597.394 105.266 597.754 104.846C598.114 104.414 598.552 104.072 599.068 103.82C599.596 103.568 600.19 103.442 600.85 103.442C601.438 103.442 601.978 103.568 602.47 103.82C602.962 104.06 603.34 104.444 603.604 104.972H603.64V103.694H605.692V112.514ZM601.138 111.38C601.594 111.38 601.978 111.29 602.29 111.11C602.614 110.918 602.872 110.672 603.064 110.372C603.268 110.06 603.412 109.712 603.496 109.328C603.592 108.932 603.64 108.536 603.64 108.14C603.64 107.744 603.592 107.36 603.496 106.988C603.4 106.616 603.25 106.286 603.046 105.998C602.854 105.71 602.596 105.482 602.272 105.314C601.96 105.146 601.582 105.062 601.138 105.062C600.682 105.062 600.298 105.158 599.986 105.35C599.674 105.542 599.422 105.794 599.23 106.106C599.038 106.406 598.9 106.754 598.816 107.15C598.732 107.534 598.69 107.918 598.69 108.302C598.69 108.686 598.738 109.064 598.834 109.436C598.93 109.796 599.074 110.12 599.266 110.408C599.47 110.696 599.722 110.93 600.022 111.11C600.334 111.29 600.706 111.38 601.138 111.38ZM614.148 107.528C614.124 107.204 614.052 106.892 613.932 106.592C613.824 106.292 613.668 106.034 613.464 105.818C613.272 105.59 613.032 105.41 612.744 105.278C612.468 105.134 612.156 105.062 611.808 105.062C611.448 105.062 611.118 105.128 610.818 105.26C610.53 105.38 610.278 105.554 610.062 105.782C609.858 105.998 609.69 106.256 609.558 106.556C609.438 106.856 609.372 107.18 609.36 107.528H614.148ZM609.36 108.878C609.36 109.238 609.408 109.586 609.504 109.922C609.612 110.258 609.768 110.552 609.972 110.804C610.176 111.056 610.434 111.26 610.746 111.416C611.058 111.56 611.43 111.632 611.862 111.632C612.462 111.632 612.942 111.506 613.302 111.254C613.674 110.99 613.95 110.6 614.13 110.084H616.074C615.966 110.588 615.78 111.038 615.516 111.434C615.252 111.83 614.934 112.166 614.562 112.442C614.19 112.706 613.77 112.904 613.302 113.036C612.846 113.18 612.366 113.252 611.862 113.252C611.13 113.252 610.482 113.132 609.918 112.892C609.354 112.652 608.874 112.316 608.478 111.884C608.094 111.452 607.8 110.936 607.596 110.336C607.404 109.736 607.308 109.076 607.308 108.356C607.308 107.696 607.41 107.072 607.614 106.484C607.83 105.884 608.13 105.362 608.514 104.918C608.91 104.462 609.384 104.102 609.936 103.838C610.488 103.574 611.112 103.442 611.808 103.442C612.54 103.442 613.194 103.598 613.77 103.91C614.358 104.21 614.844 104.612 615.228 105.116C615.612 105.62 615.888 106.202 616.056 106.862C616.236 107.51 616.284 108.182 616.2 108.878H609.36ZM619.308 110.012C619.368 110.612 619.596 111.032 619.992 111.272C620.388 111.512 620.862 111.632 621.414 111.632C621.606 111.632 621.822 111.62 622.062 111.596C622.314 111.56 622.548 111.5 622.764 111.416C622.98 111.332 623.154 111.212 623.286 111.056C623.43 110.888 623.496 110.672 623.484 110.408C623.472 110.144 623.376 109.928 623.196 109.76C623.016 109.592 622.782 109.46 622.494 109.364C622.218 109.256 621.9 109.166 621.54 109.094C621.18 109.022 620.814 108.944 620.442 108.86C620.058 108.776 619.686 108.674 619.326 108.554C618.978 108.434 618.66 108.272 618.372 108.068C618.096 107.864 617.874 107.606 617.706 107.294C617.538 106.97 617.454 106.574 617.454 106.106C617.454 105.602 617.574 105.182 617.814 104.846C618.066 104.498 618.378 104.222 618.75 104.018C619.134 103.802 619.554 103.652 620.01 103.568C620.478 103.484 620.922 103.442 621.342 103.442C621.822 103.442 622.278 103.496 622.71 103.604C623.154 103.7 623.55 103.862 623.898 104.09C624.258 104.318 624.552 104.618 624.78 104.99C625.02 105.35 625.17 105.788 625.23 106.304H623.088C622.992 105.812 622.764 105.482 622.404 105.314C622.056 105.146 621.654 105.062 621.198 105.062C621.054 105.062 620.88 105.074 620.676 105.098C620.484 105.122 620.298 105.17 620.118 105.242C619.95 105.302 619.806 105.398 619.686 105.53C619.566 105.65 619.506 105.812 619.506 106.016C619.506 106.268 619.59 106.472 619.758 106.628C619.938 106.784 620.166 106.916 620.442 107.024C620.73 107.12 621.054 107.204 621.414 107.276C621.774 107.348 622.146 107.426 622.53 107.51C622.902 107.594 623.268 107.696 623.628 107.816C623.988 107.936 624.306 108.098 624.582 108.302C624.87 108.506 625.098 108.764 625.266 109.076C625.446 109.388 625.536 109.772 625.536 110.228C625.536 110.78 625.41 111.248 625.158 111.632C624.906 112.016 624.576 112.328 624.168 112.568C623.772 112.808 623.328 112.982 622.836 113.09C622.344 113.198 621.858 113.252 621.378 113.252C620.79 113.252 620.244 113.186 619.74 113.054C619.248 112.922 618.816 112.724 618.444 112.46C618.084 112.184 617.796 111.848 617.58 111.452C617.376 111.044 617.268 110.564 617.256 110.012H619.308Z" fill="black"/>
<rect x="590" y="238" width="22" height="34" rx="4" fill="#FF0000"/>
<rect x="590" y="45" width="22" height="34" rx="4" fill="#FF0000"/>
<line x1="601.5" y1="346" x2="601.5" y2="385" stroke="black"/>
<line x1="448.5" y1="521" x2="448.5" y2="560" stroke="black"/>
<line x1="601.5" y1="153" x2="601.5" y2="192" stroke="black"/>
<line x1="450.5" y1="385" x2="450.5" y2="424" stroke="black"/>
<line x1="297.5" y1="560" x2="297.5" y2="599" stroke="black"/>
<line x1="601.5" y1="385" x2="601.5" y2="424" stroke="black"/>
<line x1="750.5" y1="385" x2="750.5" y2="424" stroke="black"/>
<line x1="597.5" y1="560" x2="597.5" y2="599" stroke="black"/>
<line x1="750" y1="385.5" x2="450" y2="385.5" stroke="black"/>
<line x1="597" y1="560.5" x2="297" y2="560.5" stroke="black"/>
<path d="M406.044 492.234C405.948 491.862 405.816 491.52 405.648 491.208C405.48 490.896 405.264 490.626 405 490.398C404.736 490.17 404.424 489.996 404.064 489.876C403.716 489.744 403.308 489.678 402.84 489.678C402.156 489.678 401.562 489.816 401.058 490.092C400.566 490.368 400.164 490.74 399.852 491.208C399.54 491.664 399.306 492.186 399.15 492.774C399.006 493.362 398.934 493.962 398.934 494.574C398.934 495.186 399.006 495.786 399.15 496.374C399.306 496.962 399.54 497.49 399.852 497.958C400.164 498.414 400.566 498.78 401.058 499.056C401.562 499.332 402.156 499.47 402.84 499.47C403.344 499.47 403.788 499.386 404.172 499.218C404.556 499.038 404.886 498.798 405.162 498.498C405.438 498.186 405.654 497.826 405.81 497.418C405.966 497.01 406.068 496.572 406.116 496.104H408.312C408.264 496.872 408.096 497.574 407.808 498.21C407.532 498.846 407.154 499.398 406.674 499.866C406.194 500.322 405.63 500.676 404.982 500.928C404.334 501.18 403.62 501.306 402.84 501.306C401.88 501.306 401.016 501.132 400.248 500.784C399.492 500.424 398.85 499.938 398.322 499.326C397.794 498.714 397.386 498 397.098 497.184C396.822 496.368 396.684 495.498 396.684 494.574C396.684 493.662 396.822 492.798 397.098 491.982C397.386 491.166 397.794 490.452 398.322 489.84C398.85 489.228 399.492 488.742 400.248 488.382C401.016 488.022 401.88 487.842 402.84 487.842C403.56 487.842 404.238 487.944 404.874 488.148C405.51 488.34 406.068 488.628 406.548 489.012C407.04 489.384 407.436 489.84 407.736 490.38C408.036 490.92 408.222 491.538 408.294 492.234H406.044ZM414.336 501.252C413.592 501.252 412.926 501.132 412.338 500.892C411.762 500.64 411.27 500.298 410.862 499.866C410.466 499.434 410.16 498.918 409.944 498.318C409.74 497.718 409.638 497.058 409.638 496.338C409.638 495.63 409.74 494.976 409.944 494.376C410.16 493.776 410.466 493.26 410.862 492.828C411.27 492.396 411.762 492.06 412.338 491.82C412.926 491.568 413.592 491.442 414.336 491.442C415.08 491.442 415.74 491.568 416.316 491.82C416.904 492.06 417.396 492.396 417.792 492.828C418.2 493.26 418.506 493.776 418.71 494.376C418.926 494.976 419.034 495.63 419.034 496.338C419.034 497.058 418.926 497.718 418.71 498.318C418.506 498.918 418.2 499.434 417.792 499.866C417.396 500.298 416.904 500.64 416.316 500.892C415.74 501.132 415.08 501.252 414.336 501.252ZM414.336 499.632C414.792 499.632 415.188 499.536 415.524 499.344C415.86 499.152 416.136 498.9 416.352 498.588C416.568 498.276 416.724 497.928 416.82 497.544C416.928 497.148 416.982 496.746 416.982 496.338C416.982 495.942 416.928 495.546 416.82 495.15C416.724 494.754 416.568 494.406 416.352 494.106C416.136 493.794 415.86 493.542 415.524 493.35C415.188 493.158 414.792 493.062 414.336 493.062C413.88 493.062 413.484 493.158 413.148 493.35C412.812 493.542 412.536 493.794 412.32 494.106C412.104 494.406 411.942 494.754 411.834 495.15C411.738 495.546 411.69 495.942 411.69 496.338C411.69 496.746 411.738 497.148 411.834 497.544C411.942 497.928 412.104 498.276 412.32 498.588C412.536 498.9 412.812 499.152 413.148 499.344C413.484 499.536 413.88 499.632 414.336 499.632ZM420.74 491.694H422.684V492.99H422.738C422.894 492.762 423.062 492.552 423.242 492.36C423.422 492.168 423.62 492.006 423.836 491.874C424.064 491.742 424.322 491.64 424.61 491.568C424.898 491.484 425.228 491.442 425.6 491.442C426.164 491.442 426.686 491.568 427.166 491.82C427.658 492.072 428.006 492.462 428.21 492.99C428.558 492.51 428.96 492.132 429.416 491.856C429.872 491.58 430.442 491.442 431.126 491.442C432.11 491.442 432.872 491.682 433.412 492.162C433.964 492.642 434.24 493.446 434.24 494.574V501H432.188V495.564C432.188 495.192 432.176 494.856 432.152 494.556C432.128 494.244 432.056 493.98 431.936 493.764C431.828 493.536 431.66 493.362 431.432 493.242C431.204 493.122 430.892 493.062 430.496 493.062C429.8 493.062 429.296 493.278 428.984 493.71C428.672 494.142 428.516 494.754 428.516 495.546V501H426.464V495.024C426.464 494.376 426.344 493.89 426.104 493.566C425.876 493.23 425.45 493.062 424.826 493.062C424.562 493.062 424.304 493.116 424.052 493.224C423.812 493.332 423.596 493.488 423.404 493.692C423.224 493.896 423.074 494.148 422.954 494.448C422.846 494.748 422.792 495.09 422.792 495.474V501H420.74V491.694ZM436.456 491.694H438.4V492.954H438.436C438.724 492.414 439.126 492.03 439.642 491.802C440.158 491.562 440.716 491.442 441.316 491.442C442.048 491.442 442.684 491.574 443.224 491.838C443.776 492.09 444.232 492.444 444.592 492.9C444.952 493.344 445.222 493.866 445.402 494.466C445.582 495.066 445.672 495.708 445.672 496.392C445.672 497.016 445.588 497.622 445.42 498.21C445.264 498.798 445.018 499.32 444.682 499.776C444.358 500.22 443.944 500.58 443.44 500.856C442.936 501.12 442.342 501.252 441.658 501.252C441.358 501.252 441.058 501.222 440.758 501.162C440.458 501.114 440.17 501.03 439.894 500.91C439.618 500.79 439.36 500.64 439.12 500.46C438.892 500.268 438.7 500.046 438.544 499.794H438.508V504.438H436.456V491.694ZM443.62 496.356C443.62 495.936 443.566 495.528 443.458 495.132C443.35 494.736 443.188 494.388 442.972 494.088C442.756 493.776 442.486 493.53 442.162 493.35C441.838 493.158 441.466 493.062 441.046 493.062C440.182 493.062 439.528 493.362 439.084 493.962C438.652 494.562 438.436 495.36 438.436 496.356C438.436 496.824 438.49 497.262 438.598 497.67C438.718 498.066 438.892 498.408 439.12 498.696C439.348 498.984 439.618 499.212 439.93 499.38C440.254 499.548 440.626 499.632 441.046 499.632C441.514 499.632 441.91 499.536 442.234 499.344C442.558 499.152 442.822 498.906 443.026 498.606C443.242 498.294 443.392 497.946 443.476 497.562C443.572 497.166 443.62 496.764 443.62 496.356ZM451.672 501.252C450.928 501.252 450.262 501.132 449.674 500.892C449.098 500.64 448.606 500.298 448.198 499.866C447.802 499.434 447.496 498.918 447.28 498.318C447.076 497.718 446.974 497.058 446.974 496.338C446.974 495.63 447.076 494.976 447.28 494.376C447.496 493.776 447.802 493.26 448.198 492.828C448.606 492.396 449.098 492.06 449.674 491.82C450.262 491.568 450.928 491.442 451.672 491.442C452.416 491.442 453.076 491.568 453.652 491.82C454.24 492.06 454.732 492.396 455.128 492.828C455.536 493.26 455.842 493.776 456.046 494.376C456.262 494.976 456.37 495.63 456.37 496.338C456.37 497.058 456.262 497.718 456.046 498.318C455.842 498.918 455.536 499.434 455.128 499.866C454.732 500.298 454.24 500.64 453.652 500.892C453.076 501.132 452.416 501.252 451.672 501.252ZM451.672 499.632C452.128 499.632 452.524 499.536 452.86 499.344C453.196 499.152 453.472 498.9 453.688 498.588C453.904 498.276 454.06 497.928 454.156 497.544C454.264 497.148 454.318 496.746 454.318 496.338C454.318 495.942 454.264 495.546 454.156 495.15C454.06 494.754 453.904 494.406 453.688 494.106C453.472 493.794 453.196 493.542 452.86 493.35C452.524 493.158 452.128 493.062 451.672 493.062C451.216 493.062 450.82 493.158 450.484 493.35C450.148 493.542 449.872 493.794 449.656 494.106C449.44 494.406 449.278 494.754 449.17 495.15C449.074 495.546 449.026 495.942 449.026 496.338C449.026 496.746 449.074 497.148 449.17 497.544C449.278 497.928 449.44 498.276 449.656 498.588C449.872 498.9 450.148 499.152 450.484 499.344C450.82 499.536 451.216 499.632 451.672 499.632ZM458.076 491.694H460.02V493.062L460.056 493.098C460.368 492.582 460.776 492.18 461.28 491.892C461.784 491.592 462.342 491.442 462.954 491.442C463.974 491.442 464.778 491.706 465.366 492.234C465.954 492.762 466.248 493.554 466.248 494.61V501H464.196V495.15C464.172 494.418 464.016 493.89 463.728 493.566C463.44 493.23 462.99 493.062 462.378 493.062C462.03 493.062 461.718 493.128 461.442 493.26C461.166 493.38 460.932 493.554 460.74 493.782C460.548 493.998 460.398 494.256 460.29 494.556C460.182 494.856 460.128 495.174 460.128 495.51V501H458.076V491.694ZM474.802 495.528C474.778 495.204 474.706 494.892 474.586 494.592C474.478 494.292 474.322 494.034 474.118 493.818C473.926 493.59 473.686 493.41 473.398 493.278C473.122 493.134 472.81 493.062 472.462 493.062C472.102 493.062 471.772 493.128 471.472 493.26C471.184 493.38 470.932 493.554 470.716 493.782C470.512 493.998 470.344 494.256 470.212 494.556C470.092 494.856 470.026 495.18 470.014 495.528H474.802ZM470.014 496.878C470.014 497.238 470.062 497.586 470.158 497.922C470.266 498.258 470.422 498.552 470.626 498.804C470.83 499.056 471.088 499.26 471.4 499.416C471.712 499.56 472.084 499.632 472.516 499.632C473.116 499.632 473.596 499.506 473.956 499.254C474.328 498.99 474.604 498.6 474.784 498.084H476.728C476.62 498.588 476.434 499.038 476.17 499.434C475.906 499.83 475.588 500.166 475.216 500.442C474.844 500.706 474.424 500.904 473.956 501.036C473.5 501.18 473.02 501.252 472.516 501.252C471.784 501.252 471.136 501.132 470.572 500.892C470.008 500.652 469.528 500.316 469.132 499.884C468.748 499.452 468.454 498.936 468.25 498.336C468.058 497.736 467.962 497.076 467.962 496.356C467.962 495.696 468.064 495.072 468.268 494.484C468.484 493.884 468.784 493.362 469.168 492.918C469.564 492.462 470.038 492.102 470.59 491.838C471.142 491.574 471.766 491.442 472.462 491.442C473.194 491.442 473.848 491.598 474.424 491.91C475.012 492.21 475.498 492.612 475.882 493.116C476.266 493.62 476.542 494.202 476.71 494.862C476.89 495.51 476.938 496.182 476.854 496.878H470.014ZM478.414 491.694H480.358V493.062L480.394 493.098C480.706 492.582 481.114 492.18 481.618 491.892C482.122 491.592 482.68 491.442 483.292 491.442C484.312 491.442 485.116 491.706 485.704 492.234C486.292 492.762 486.586 493.554 486.586 494.61V501H484.534V495.15C484.51 494.418 484.354 493.89 484.066 493.566C483.778 493.23 483.328 493.062 482.716 493.062C482.368 493.062 482.056 493.128 481.78 493.26C481.504 493.38 481.27 493.554 481.078 493.782C480.886 493.998 480.736 494.256 480.628 494.556C480.52 494.856 480.466 495.174 480.466 495.51V501H478.414V491.694ZM487.814 491.694H489.362V488.904H491.414V491.694H493.268V493.224H491.414V498.192C491.414 498.408 491.42 498.594 491.432 498.75C491.456 498.906 491.498 499.038 491.558 499.146C491.63 499.254 491.732 499.338 491.864 499.398C491.996 499.446 492.176 499.47 492.404 499.47C492.548 499.47 492.692 499.47 492.836 499.47C492.98 499.458 493.124 499.434 493.268 499.398V500.982C493.04 501.006 492.818 501.03 492.602 501.054C492.386 501.078 492.164 501.09 491.936 501.09C491.396 501.09 490.958 501.042 490.622 500.946C490.298 500.838 490.04 500.688 489.848 500.496C489.668 500.292 489.542 500.04 489.47 499.74C489.41 499.44 489.374 499.098 489.362 498.714V493.224H487.814V491.694ZM496.292 498.012C496.352 498.612 496.58 499.032 496.976 499.272C497.372 499.512 497.846 499.632 498.398 499.632C498.59 499.632 498.806 499.62 499.046 499.596C499.298 499.56 499.532 499.5 499.748 499.416C499.964 499.332 500.138 499.212 500.27 499.056C500.414 498.888 500.48 498.672 500.468 498.408C500.456 498.144 500.36 497.928 500.18 497.76C500 497.592 499.766 497.46 499.478 497.364C499.202 497.256 498.884 497.166 498.524 497.094C498.164 497.022 497.798 496.944 497.426 496.86C497.042 496.776 496.67 496.674 496.31 496.554C495.962 496.434 495.644 496.272 495.356 496.068C495.08 495.864 494.858 495.606 494.69 495.294C494.522 494.97 494.438 494.574 494.438 494.106C494.438 493.602 494.558 493.182 494.798 492.846C495.05 492.498 495.362 492.222 495.734 492.018C496.118 491.802 496.538 491.652 496.994 491.568C497.462 491.484 497.906 491.442 498.326 491.442C498.806 491.442 499.262 491.496 499.694 491.604C500.138 491.7 500.534 491.862 500.882 492.09C501.242 492.318 501.536 492.618 501.764 492.99C502.004 493.35 502.154 493.788 502.214 494.304H500.072C499.976 493.812 499.748 493.482 499.388 493.314C499.04 493.146 498.638 493.062 498.182 493.062C498.038 493.062 497.864 493.074 497.66 493.098C497.468 493.122 497.282 493.17 497.102 493.242C496.934 493.302 496.79 493.398 496.67 493.53C496.55 493.65 496.49 493.812 496.49 494.016C496.49 494.268 496.574 494.472 496.742 494.628C496.922 494.784 497.15 494.916 497.426 495.024C497.714 495.12 498.038 495.204 498.398 495.276C498.758 495.348 499.13 495.426 499.514 495.51C499.886 495.594 500.252 495.696 500.612 495.816C500.972 495.936 501.29 496.098 501.566 496.302C501.854 496.506 502.082 496.764 502.25 497.076C502.43 497.388 502.52 497.772 502.52 498.228C502.52 498.78 502.394 499.248 502.142 499.632C501.89 500.016 501.56 500.328 501.152 500.568C500.756 500.808 500.312 500.982 499.82 501.09C499.328 501.198 498.842 501.252 498.362 501.252C497.774 501.252 497.228 501.186 496.724 501.054C496.232 500.922 495.8 500.724 495.428 500.46C495.068 500.184 494.78 499.848 494.564 499.452C494.36 499.044 494.252 498.564 494.24 498.012H496.292Z" fill="black"/>
<path d="M274.806 663.148H277.2L282.15 676H279.738L278.532 672.598H273.402L272.196 676H269.874L274.806 663.148ZM274.014 670.888H277.938L276.012 665.362H275.958L274.014 670.888ZM282.15 666.694H283.698V663.904H285.75V666.694H287.604V668.224H285.75V673.192C285.75 673.408 285.756 673.594 285.768 673.75C285.792 673.906 285.834 674.038 285.894 674.146C285.966 674.254 286.068 674.338 286.2 674.398C286.332 674.446 286.512 674.47 286.74 674.47C286.884 674.47 287.028 674.47 287.172 674.47C287.316 674.458 287.46 674.434 287.604 674.398V675.982C287.376 676.006 287.154 676.03 286.938 676.054C286.722 676.078 286.5 676.09 286.272 676.09C285.732 676.09 285.294 676.042 284.958 675.946C284.634 675.838 284.376 675.688 284.184 675.496C284.004 675.292 283.878 675.04 283.806 674.74C283.746 674.44 283.71 674.098 283.698 673.714V668.224H282.15V666.694ZM293.346 676.252C292.602 676.252 291.936 676.132 291.348 675.892C290.772 675.64 290.28 675.298 289.872 674.866C289.476 674.434 289.17 673.918 288.954 673.318C288.75 672.718 288.648 672.058 288.648 671.338C288.648 670.63 288.75 669.976 288.954 669.376C289.17 668.776 289.476 668.26 289.872 667.828C290.28 667.396 290.772 667.06 291.348 666.82C291.936 666.568 292.602 666.442 293.346 666.442C294.09 666.442 294.75 666.568 295.326 666.82C295.914 667.06 296.406 667.396 296.802 667.828C297.21 668.26 297.516 668.776 297.72 669.376C297.936 669.976 298.044 670.63 298.044 671.338C298.044 672.058 297.936 672.718 297.72 673.318C297.516 673.918 297.21 674.434 296.802 674.866C296.406 675.298 295.914 675.64 295.326 675.892C294.75 676.132 294.09 676.252 293.346 676.252ZM293.346 674.632C293.802 674.632 294.198 674.536 294.534 674.344C294.87 674.152 295.146 673.9 295.362 673.588C295.578 673.276 295.734 672.928 295.83 672.544C295.938 672.148 295.992 671.746 295.992 671.338C295.992 670.942 295.938 670.546 295.83 670.15C295.734 669.754 295.578 669.406 295.362 669.106C295.146 668.794 294.87 668.542 294.534 668.35C294.198 668.158 293.802 668.062 293.346 668.062C292.89 668.062 292.494 668.158 292.158 668.35C291.822 668.542 291.546 668.794 291.33 669.106C291.114 669.406 290.952 669.754 290.844 670.15C290.748 670.546 290.7 670.942 290.7 671.338C290.7 671.746 290.748 672.148 290.844 672.544C290.952 672.928 291.114 673.276 291.33 673.588C291.546 673.9 291.822 674.152 292.158 674.344C292.494 674.536 292.89 674.632 293.346 674.632ZM299.75 666.694H301.694V667.99H301.748C301.904 667.762 302.072 667.552 302.252 667.36C302.432 667.168 302.63 667.006 302.846 666.874C303.074 666.742 303.332 666.64 303.62 666.568C303.908 666.484 304.238 666.442 304.61 666.442C305.174 666.442 305.696 666.568 306.176 666.82C306.668 667.072 307.016 667.462 307.22 667.99C307.568 667.51 307.97 667.132 308.426 666.856C308.882 666.58 309.452 666.442 310.136 666.442C311.12 666.442 311.882 666.682 312.422 667.162C312.974 667.642 313.25 668.446 313.25 669.574V676H311.198V670.564C311.198 670.192 311.186 669.856 311.162 669.556C311.138 669.244 311.066 668.98 310.946 668.764C310.838 668.536 310.67 668.362 310.442 668.242C310.214 668.122 309.902 668.062 309.506 668.062C308.81 668.062 308.306 668.278 307.994 668.71C307.682 669.142 307.526 669.754 307.526 670.546V676H305.474V670.024C305.474 669.376 305.354 668.89 305.114 668.566C304.886 668.23 304.46 668.062 303.836 668.062C303.572 668.062 303.314 668.116 303.062 668.224C302.822 668.332 302.606 668.488 302.414 668.692C302.234 668.896 302.084 669.148 301.964 669.448C301.856 669.748 301.802 670.09 301.802 670.474V676H299.75V666.694ZM316.96 673.012C317.02 673.612 317.248 674.032 317.644 674.272C318.04 674.512 318.514 674.632 319.066 674.632C319.258 674.632 319.474 674.62 319.714 674.596C319.966 674.56 320.2 674.5 320.416 674.416C320.632 674.332 320.806 674.212 320.938 674.056C321.082 673.888 321.148 673.672 321.136 673.408C321.124 673.144 321.028 672.928 320.848 672.76C320.668 672.592 320.434 672.46 320.146 672.364C319.87 672.256 319.552 672.166 319.192 672.094C318.832 672.022 318.466 671.944 318.094 671.86C317.71 671.776 317.338 671.674 316.978 671.554C316.63 671.434 316.312 671.272 316.024 671.068C315.748 670.864 315.526 670.606 315.358 670.294C315.19 669.97 315.106 669.574 315.106 669.106C315.106 668.602 315.226 668.182 315.466 667.846C315.718 667.498 316.03 667.222 316.402 667.018C316.786 666.802 317.206 666.652 317.662 666.568C318.13 666.484 318.574 666.442 318.994 666.442C319.474 666.442 319.93 666.496 320.362 666.604C320.806 666.7 321.202 666.862 321.55 667.09C321.91 667.318 322.204 667.618 322.432 667.99C322.672 668.35 322.822 668.788 322.882 669.304H320.74C320.644 668.812 320.416 668.482 320.056 668.314C319.708 668.146 319.306 668.062 318.85 668.062C318.706 668.062 318.532 668.074 318.328 668.098C318.136 668.122 317.95 668.17 317.77 668.242C317.602 668.302 317.458 668.398 317.338 668.53C317.218 668.65 317.158 668.812 317.158 669.016C317.158 669.268 317.242 669.472 317.41 669.628C317.59 669.784 317.818 669.916 318.094 670.024C318.382 670.12 318.706 670.204 319.066 670.276C319.426 670.348 319.798 670.426 320.182 670.51C320.554 670.594 320.92 670.696 321.28 670.816C321.64 670.936 321.958 671.098 322.234 671.302C322.522 671.506 322.75 671.764 322.918 672.076C323.098 672.388 323.188 672.772 323.188 673.228C323.188 673.78 323.062 674.248 322.81 674.632C322.558 675.016 322.228 675.328 321.82 675.568C321.424 675.808 320.98 675.982 320.488 676.09C319.996 676.198 319.51 676.252 319.03 676.252C318.442 676.252 317.896 676.186 317.392 676.054C316.9 675.922 316.468 675.724 316.096 675.46C315.736 675.184 315.448 674.848 315.232 674.452C315.028 674.044 314.92 673.564 314.908 673.012H316.96Z" fill="black"/>
<circle cx="450" cy="458" r="9" fill="#FF0000"/>
<circle cx="297" cy="633" r="9" fill="#FF0000"/>
<circle cx="601" cy="458" r="9" fill="#FF0000"/>
<circle cx="597" cy="633" r="9" fill="#FF0000"/>
<circle cx="750" cy="458" r="9" fill="#FF0000"/>
<path d="M568.368 488.148H574.506C575.922 488.148 576.984 488.454 577.692 489.066C578.4 489.678 578.754 490.53 578.754 491.622C578.754 492.234 578.664 492.744 578.484 493.152C578.304 493.548 578.094 493.872 577.854 494.124C577.614 494.364 577.374 494.538 577.134 494.646C576.906 494.754 576.738 494.826 576.63 494.862V494.898C576.822 494.922 577.026 494.982 577.242 495.078C577.47 495.174 577.68 495.33 577.872 495.546C578.064 495.75 578.22 496.02 578.34 496.356C578.472 496.692 578.538 497.112 578.538 497.616C578.538 498.372 578.592 499.062 578.7 499.686C578.82 500.298 579 500.736 579.24 501H576.828C576.66 500.724 576.558 500.418 576.522 500.082C576.498 499.746 576.486 499.422 576.486 499.11C576.486 498.522 576.45 498.018 576.378 497.598C576.306 497.166 576.174 496.812 575.982 496.536C575.79 496.248 575.526 496.038 575.19 495.906C574.866 495.774 574.446 495.708 573.93 495.708H570.618V501H568.368V488.148ZM570.618 493.998H574.308C575.028 493.998 575.574 493.83 575.946 493.494C576.318 493.146 576.504 492.63 576.504 491.946C576.504 491.538 576.444 491.208 576.324 490.956C576.204 490.692 576.036 490.488 575.82 490.344C575.616 490.2 575.376 490.104 575.1 490.056C574.836 490.008 574.56 489.984 574.272 489.984H570.618V493.998ZM587.144 495.528C587.12 495.204 587.048 494.892 586.928 494.592C586.82 494.292 586.664 494.034 586.46 493.818C586.268 493.59 586.028 493.41 585.74 493.278C585.464 493.134 585.152 493.062 584.804 493.062C584.444 493.062 584.114 493.128 583.814 493.26C583.526 493.38 583.274 493.554 583.058 493.782C582.854 493.998 582.686 494.256 582.554 494.556C582.434 494.856 582.368 495.18 582.356 495.528H587.144ZM582.356 496.878C582.356 497.238 582.404 497.586 582.5 497.922C582.608 498.258 582.764 498.552 582.968 498.804C583.172 499.056 583.43 499.26 583.742 499.416C584.054 499.56 584.426 499.632 584.858 499.632C585.458 499.632 585.938 499.506 586.298 499.254C586.67 498.99 586.946 498.6 587.126 498.084H589.07C588.962 498.588 588.776 499.038 588.512 499.434C588.248 499.83 587.93 500.166 587.558 500.442C587.186 500.706 586.766 500.904 586.298 501.036C585.842 501.18 585.362 501.252 584.858 501.252C584.126 501.252 583.478 501.132 582.914 500.892C582.35 500.652 581.87 500.316 581.474 499.884C581.09 499.452 580.796 498.936 580.592 498.336C580.4 497.736 580.304 497.076 580.304 496.356C580.304 495.696 580.406 495.072 580.61 494.484C580.826 493.884 581.126 493.362 581.51 492.918C581.906 492.462 582.38 492.102 582.932 491.838C583.484 491.574 584.108 491.442 584.804 491.442C585.536 491.442 586.19 491.598 586.766 491.91C587.354 492.21 587.84 492.612 588.224 493.116C588.608 493.62 588.884 494.202 589.052 494.862C589.232 495.51 589.28 496.182 589.196 496.878H582.356ZM597.038 494.808C596.954 494.232 596.72 493.8 596.336 493.512C595.964 493.212 595.49 493.062 594.914 493.062C594.65 493.062 594.368 493.11 594.068 493.206C593.768 493.29 593.492 493.458 593.24 493.71C592.988 493.95 592.778 494.292 592.61 494.736C592.442 495.168 592.358 495.738 592.358 496.446C592.358 496.83 592.4 497.214 592.484 497.598C592.58 497.982 592.724 498.324 592.916 498.624C593.12 498.924 593.378 499.17 593.69 499.362C594.002 499.542 594.38 499.632 594.824 499.632C595.424 499.632 595.916 499.446 596.3 499.074C596.696 498.702 596.942 498.18 597.038 497.508H599.09C598.898 498.72 598.436 499.65 597.704 500.298C596.984 500.934 596.024 501.252 594.824 501.252C594.092 501.252 593.444 501.132 592.88 500.892C592.328 500.64 591.86 500.304 591.476 499.884C591.092 499.452 590.798 498.942 590.594 498.354C590.402 497.766 590.306 497.13 590.306 496.446C590.306 495.75 590.402 495.096 590.594 494.484C590.786 493.872 591.074 493.344 591.458 492.9C591.842 492.444 592.316 492.09 592.88 491.838C593.456 491.574 594.128 491.442 594.896 491.442C595.436 491.442 595.946 491.514 596.426 491.658C596.918 491.79 597.35 491.994 597.722 492.27C598.106 492.546 598.418 492.894 598.658 493.314C598.898 493.734 599.042 494.232 599.09 494.808H597.038ZM600.812 488.148H602.864V490.092H600.812V488.148ZM600.812 491.694H602.864V501H600.812V491.694ZM605.154 491.694H607.098V492.954H607.134C607.422 492.414 607.824 492.03 608.34 491.802C608.856 491.562 609.414 491.442 610.014 491.442C610.746 491.442 611.382 491.574 611.922 491.838C612.474 492.09 612.93 492.444 613.29 492.9C613.65 493.344 613.92 493.866 614.1 494.466C614.28 495.066 614.37 495.708 614.37 496.392C614.37 497.016 614.286 497.622 614.118 498.21C613.962 498.798 613.716 499.32 613.38 499.776C613.056 500.22 612.642 500.58 612.138 500.856C611.634 501.12 611.04 501.252 610.356 501.252C610.056 501.252 609.756 501.222 609.456 501.162C609.156 501.114 608.868 501.03 608.592 500.91C608.316 500.79 608.058 500.64 607.818 500.46C607.59 500.268 607.398 500.046 607.242 499.794H607.206V504.438H605.154V491.694ZM612.318 496.356C612.318 495.936 612.264 495.528 612.156 495.132C612.048 494.736 611.886 494.388 611.67 494.088C611.454 493.776 611.184 493.53 610.86 493.35C610.536 493.158 610.164 493.062 609.744 493.062C608.88 493.062 608.226 493.362 607.782 493.962C607.35 494.562 607.134 495.36 607.134 496.356C607.134 496.824 607.188 497.262 607.296 497.67C607.416 498.066 607.59 498.408 607.818 498.696C608.046 498.984 608.316 499.212 608.628 499.38C608.952 499.548 609.324 499.632 609.744 499.632C610.212 499.632 610.608 499.536 610.932 499.344C611.256 499.152 611.52 498.906 611.724 498.606C611.94 498.294 612.09 497.946 612.174 497.562C612.27 497.166 612.318 496.764 612.318 496.356ZM622.493 495.528C622.469 495.204 622.397 494.892 622.277 494.592C622.169 494.292 622.013 494.034 621.809 493.818C621.617 493.59 621.377 493.41 621.089 493.278C620.813 493.134 620.501 493.062 620.153 493.062C619.793 493.062 619.463 493.128 619.163 493.26C618.875 493.38 618.623 493.554 618.407 493.782C618.203 493.998 618.035 494.256 617.903 494.556C617.783 494.856 617.717 495.18 617.705 495.528H622.493ZM617.705 496.878C617.705 497.238 617.753 497.586 617.849 497.922C617.957 498.258 618.113 498.552 618.317 498.804C618.521 499.056 618.779 499.26 619.091 499.416C619.403 499.56 619.775 499.632 620.207 499.632C620.807 499.632 621.287 499.506 621.647 499.254C622.019 498.99 622.295 498.6 622.475 498.084H624.419C624.311 498.588 624.125 499.038 623.861 499.434C623.597 499.83 623.279 500.166 622.907 500.442C622.535 500.706 622.115 500.904 621.647 501.036C621.191 501.18 620.711 501.252 620.207 501.252C619.475 501.252 618.827 501.132 618.263 500.892C617.699 500.652 617.219 500.316 616.823 499.884C616.439 499.452 616.145 498.936 615.941 498.336C615.749 497.736 615.653 497.076 615.653 496.356C615.653 495.696 615.755 495.072 615.959 494.484C616.175 493.884 616.475 493.362 616.859 492.918C617.255 492.462 617.729 492.102 618.281 491.838C618.833 491.574 619.457 491.442 620.153 491.442C620.885 491.442 621.539 491.598 622.115 491.91C622.703 492.21 623.189 492.612 623.573 493.116C623.957 493.62 624.233 494.202 624.401 494.862C624.581 495.51 624.629 496.182 624.545 496.878H617.705ZM627.653 498.012C627.713 498.612 627.941 499.032 628.337 499.272C628.733 499.512 629.207 499.632 629.759 499.632C629.951 499.632 630.167 499.62 630.407 499.596C630.659 499.56 630.893 499.5 631.109 499.416C631.325 499.332 631.499 499.212 631.631 499.056C631.775 498.888 631.841 498.672 631.829 498.408C631.817 498.144 631.721 497.928 631.541 497.76C631.361 497.592 631.127 497.46 630.839 497.364C630.563 497.256 630.245 497.166 629.885 497.094C629.525 497.022 629.159 496.944 628.787 496.86C628.403 496.776 628.031 496.674 627.671 496.554C627.323 496.434 627.005 496.272 626.717 496.068C626.441 495.864 626.219 495.606 626.051 495.294C625.883 494.97 625.799 494.574 625.799 494.106C625.799 493.602 625.919 493.182 626.159 492.846C626.411 492.498 626.723 492.222 627.095 492.018C627.479 491.802 627.899 491.652 628.355 491.568C628.823 491.484 629.267 491.442 629.687 491.442C630.167 491.442 630.623 491.496 631.055 491.604C631.499 491.7 631.895 491.862 632.243 492.09C632.603 492.318 632.897 492.618 633.125 492.99C633.365 493.35 633.515 493.788 633.575 494.304H631.433C631.337 493.812 631.109 493.482 630.749 493.314C630.401 493.146 629.999 493.062 629.543 493.062C629.399 493.062 629.225 493.074 629.021 493.098C628.829 493.122 628.643 493.17 628.463 493.242C628.295 493.302 628.151 493.398 628.031 493.53C627.911 493.65 627.851 493.812 627.851 494.016C627.851 494.268 627.935 494.472 628.103 494.628C628.283 494.784 628.511 494.916 628.787 495.024C629.075 495.12 629.399 495.204 629.759 495.276C630.119 495.348 630.491 495.426 630.875 495.51C631.247 495.594 631.613 495.696 631.973 495.816C632.333 495.936 632.651 496.098 632.927 496.302C633.215 496.506 633.443 496.764 633.611 497.076C633.791 497.388 633.881 497.772 633.881 498.228C633.881 498.78 633.755 499.248 633.503 499.632C633.251 500.016 632.921 500.328 632.513 500.568C632.117 500.808 631.673 500.982 631.181 501.09C630.689 501.198 630.203 501.252 629.723 501.252C629.135 501.252 628.589 501.186 628.085 501.054C627.593 500.922 627.161 500.724 626.789 500.46C626.429 500.184 626.141 499.848 625.925 499.452C625.721 499.044 625.613 498.564 625.601 498.012H627.653Z" fill="black"/>
<path d="M555.332 663.148H558.5L562.046 673.21H562.082L565.538 663.148H568.67V676H566.528V666.082H566.492L562.928 676H561.074L557.51 666.082H557.474V676H555.332V663.148ZM575.342 676.252C574.598 676.252 573.932 676.132 573.344 675.892C572.768 675.64 572.276 675.298 571.868 674.866C571.472 674.434 571.166 673.918 570.95 673.318C570.746 672.718 570.644 672.058 570.644 671.338C570.644 670.63 570.746 669.976 570.95 669.376C571.166 668.776 571.472 668.26 571.868 667.828C572.276 667.396 572.768 667.06 573.344 666.82C573.932 666.568 574.598 666.442 575.342 666.442C576.086 666.442 576.746 666.568 577.322 666.82C577.91 667.06 578.402 667.396 578.798 667.828C579.206 668.26 579.512 668.776 579.716 669.376C579.932 669.976 580.04 670.63 580.04 671.338C580.04 672.058 579.932 672.718 579.716 673.318C579.512 673.918 579.206 674.434 578.798 674.866C578.402 675.298 577.91 675.64 577.322 675.892C576.746 676.132 576.086 676.252 575.342 676.252ZM575.342 674.632C575.798 674.632 576.194 674.536 576.53 674.344C576.866 674.152 577.142 673.9 577.358 673.588C577.574 673.276 577.73 672.928 577.826 672.544C577.934 672.148 577.988 671.746 577.988 671.338C577.988 670.942 577.934 670.546 577.826 670.15C577.73 669.754 577.574 669.406 577.358 669.106C577.142 668.794 576.866 668.542 576.53 668.35C576.194 668.158 575.798 668.062 575.342 668.062C574.886 668.062 574.49 668.158 574.154 668.35C573.818 668.542 573.542 668.794 573.326 669.106C573.11 669.406 572.948 669.754 572.84 670.15C572.744 670.546 572.696 670.942 572.696 671.338C572.696 671.746 572.744 672.148 572.84 672.544C572.948 672.928 573.11 673.276 573.326 673.588C573.542 673.9 573.818 674.152 574.154 674.344C574.49 674.536 574.886 674.632 575.342 674.632ZM581.8 663.148H583.852V676H581.8V663.148ZM592.478 670.528C592.454 670.204 592.382 669.892 592.262 669.592C592.154 669.292 591.998 669.034 591.794 668.818C591.602 668.59 591.362 668.41 591.074 668.278C590.798 668.134 590.486 668.062 590.138 668.062C589.778 668.062 589.448 668.128 589.148 668.26C588.86 668.38 588.608 668.554 588.392 668.782C588.188 668.998 588.02 669.256 587.888 669.556C587.768 669.856 587.702 670.18 587.69 670.528H592.478ZM587.69 671.878C587.69 672.238 587.738 672.586 587.834 672.922C587.942 673.258 588.098 673.552 588.302 673.804C588.506 674.056 588.764 674.26 589.076 674.416C589.388 674.56 589.76 674.632 590.192 674.632C590.792 674.632 591.272 674.506 591.632 674.254C592.004 673.99 592.28 673.6 592.46 673.084H594.404C594.296 673.588 594.11 674.038 593.846 674.434C593.582 674.83 593.264 675.166 592.892 675.442C592.52 675.706 592.1 675.904 591.632 676.036C591.176 676.18 590.696 676.252 590.192 676.252C589.46 676.252 588.812 676.132 588.248 675.892C587.684 675.652 587.204 675.316 586.808 674.884C586.424 674.452 586.13 673.936 585.926 673.336C585.734 672.736 585.638 672.076 585.638 671.356C585.638 670.696 585.74 670.072 585.944 669.484C586.16 668.884 586.46 668.362 586.844 667.918C587.24 667.462 587.714 667.102 588.266 666.838C588.818 666.574 589.442 666.442 590.138 666.442C590.87 666.442 591.524 666.598 592.1 666.91C592.688 667.21 593.174 667.612 593.558 668.116C593.942 668.62 594.218 669.202 594.386 669.862C594.566 670.51 594.614 671.182 594.53 671.878H587.69ZM602.372 669.808C602.288 669.232 602.054 668.8 601.67 668.512C601.298 668.212 600.824 668.062 600.248 668.062C599.984 668.062 599.702 668.11 599.402 668.206C599.102 668.29 598.826 668.458 598.574 668.71C598.322 668.95 598.112 669.292 597.944 669.736C597.776 670.168 597.692 670.738 597.692 671.446C597.692 671.83 597.734 672.214 597.818 672.598C597.914 672.982 598.058 673.324 598.25 673.624C598.454 673.924 598.712 674.17 599.024 674.362C599.336 674.542 599.714 674.632 600.158 674.632C600.758 674.632 601.25 674.446 601.634 674.074C602.03 673.702 602.276 673.18 602.372 672.508H604.424C604.232 673.72 603.77 674.65 603.038 675.298C602.318 675.934 601.358 676.252 600.158 676.252C599.426 676.252 598.778 676.132 598.214 675.892C597.662 675.64 597.194 675.304 596.81 674.884C596.426 674.452 596.132 673.942 595.928 673.354C595.736 672.766 595.64 672.13 595.64 671.446C595.64 670.75 595.736 670.096 595.928 669.484C596.12 668.872 596.408 668.344 596.792 667.9C597.176 667.444 597.65 667.09 598.214 666.838C598.79 666.574 599.462 666.442 600.23 666.442C600.77 666.442 601.28 666.514 601.76 666.658C602.252 666.79 602.684 666.994 603.056 667.27C603.44 667.546 603.752 667.894 603.992 668.314C604.232 668.734 604.376 669.232 604.424 669.808H602.372ZM614.264 676H612.248V674.704H612.212C611.96 675.172 611.582 675.55 611.078 675.838C610.586 676.114 610.082 676.252 609.566 676.252C608.342 676.252 607.454 675.952 606.902 675.352C606.362 674.74 606.092 673.822 606.092 672.598V666.694H608.144V672.4C608.144 673.216 608.3 673.792 608.612 674.128C608.924 674.464 609.362 674.632 609.926 674.632C610.358 674.632 610.718 674.566 611.006 674.434C611.294 674.302 611.528 674.128 611.708 673.912C611.888 673.684 612.014 673.414 612.086 673.102C612.17 672.79 612.212 672.454 612.212 672.094V666.694H614.264V676ZM616.482 663.148H618.534V676H616.482V663.148ZM627.159 670.528C627.135 670.204 627.063 669.892 626.943 669.592C626.835 669.292 626.679 669.034 626.475 668.818C626.283 668.59 626.043 668.41 625.755 668.278C625.479 668.134 625.167 668.062 624.819 668.062C624.459 668.062 624.129 668.128 623.829 668.26C623.541 668.38 623.289 668.554 623.073 668.782C622.869 668.998 622.701 669.256 622.569 669.556C622.449 669.856 622.383 670.18 622.371 670.528H627.159ZM622.371 671.878C622.371 672.238 622.419 672.586 622.515 672.922C622.623 673.258 622.779 673.552 622.983 673.804C623.187 674.056 623.445 674.26 623.757 674.416C624.069 674.56 624.441 674.632 624.873 674.632C625.473 674.632 625.953 674.506 626.313 674.254C626.685 673.99 626.961 673.6 627.141 673.084H629.085C628.977 673.588 628.791 674.038 628.527 674.434C628.263 674.83 627.945 675.166 627.573 675.442C627.201 675.706 626.781 675.904 626.313 676.036C625.857 676.18 625.377 676.252 624.873 676.252C624.141 676.252 623.493 676.132 622.929 675.892C622.365 675.652 621.885 675.316 621.489 674.884C621.105 674.452 620.811 673.936 620.607 673.336C620.415 672.736 620.319 672.076 620.319 671.356C620.319 670.696 620.421 670.072 620.625 669.484C620.841 668.884 621.141 668.362 621.525 667.918C621.921 667.462 622.395 667.102 622.947 666.838C623.499 666.574 624.123 666.442 624.819 666.442C625.551 666.442 626.205 666.598 626.781 666.91C627.369 667.21 627.855 667.612 628.239 668.116C628.623 668.62 628.899 669.202 629.067 669.862C629.247 670.51 629.295 671.182 629.211 671.878H622.371ZM632.319 673.012C632.379 673.612 632.607 674.032 633.003 674.272C633.399 674.512 633.873 674.632 634.425 674.632C634.617 674.632 634.833 674.62 635.073 674.596C635.325 674.56 635.559 674.5 635.775 674.416C635.991 674.332 636.165 674.212 636.297 674.056C636.441 673.888 636.507 673.672 636.495 673.408C636.483 673.144 636.387 672.928 636.207 672.76C636.027 672.592 635.793 672.46 635.505 672.364C635.229 672.256 634.911 672.166 634.551 672.094C634.191 672.022 633.825 671.944 633.453 671.86C633.069 671.776 632.697 671.674 632.337 671.554C631.989 671.434 631.671 671.272 631.383 671.068C631.107 670.864 630.885 670.606 630.717 670.294C630.549 669.97 630.465 669.574 630.465 669.106C630.465 668.602 630.585 668.182 630.825 667.846C631.077 667.498 631.389 667.222 631.761 667.018C632.145 666.802 632.565 666.652 633.021 666.568C633.489 666.484 633.933 666.442 634.353 666.442C634.833 666.442 635.289 666.496 635.721 666.604C636.165 666.7 636.561 666.862 636.909 667.09C637.269 667.318 637.563 667.618 637.791 667.99C638.031 668.35 638.181 668.788 638.241 669.304H636.099C636.003 668.812 635.775 668.482 635.415 668.314C635.067 668.146 634.665 668.062 634.209 668.062C634.065 668.062 633.891 668.074 633.687 668.098C633.495 668.122 633.309 668.17 633.129 668.242C632.961 668.302 632.817 668.398 632.697 668.53C632.577 668.65 632.517 668.812 632.517 669.016C632.517 669.268 632.601 669.472 632.769 669.628C632.949 669.784 633.177 669.916 633.453 670.024C633.741 670.12 634.065 670.204 634.425 670.276C634.785 670.348 635.157 670.426 635.541 670.51C635.913 670.594 636.279 670.696 636.639 670.816C636.999 670.936 637.317 671.098 637.593 671.302C637.881 671.506 638.109 671.764 638.277 672.076C638.457 672.388 638.547 672.772 638.547 673.228C638.547 673.78 638.421 674.248 638.169 674.632C637.917 675.016 637.587 675.328 637.179 675.568C636.783 675.808 636.339 675.982 635.847 676.09C635.355 676.198 634.869 676.252 634.389 676.252C633.801 676.252 633.255 676.186 632.751 676.054C632.259 675.922 631.827 675.724 631.455 675.46C631.095 675.184 630.807 674.848 630.591 674.452C630.387 674.044 630.279 673.564 630.267 673.012H632.319Z" fill="black"/>
<path d="M707.806 488.148H710.2L715.15 501H712.738L711.532 497.598H706.402L705.196 501H702.874L707.806 488.148ZM707.014 495.888H710.938L709.012 490.362H708.958L707.014 495.888ZM716.086 491.694H718.03V493.062L718.066 493.098C718.378 492.582 718.786 492.18 719.29 491.892C719.794 491.592 720.352 491.442 720.964 491.442C721.984 491.442 722.788 491.706 723.376 492.234C723.964 492.762 724.258 493.554 724.258 494.61V501H722.206V495.15C722.182 494.418 722.026 493.89 721.738 493.566C721.45 493.23 721 493.062 720.388 493.062C720.04 493.062 719.728 493.128 719.452 493.26C719.176 493.38 718.942 493.554 718.75 493.782C718.558 493.998 718.408 494.256 718.3 494.556C718.192 494.856 718.138 495.174 718.138 495.51V501H716.086V491.694ZM726.476 488.148H728.528V490.092H726.476V488.148ZM726.476 491.694H728.528V501H726.476V491.694ZM730.764 491.694H732.708V492.99H732.762C732.918 492.762 733.086 492.552 733.266 492.36C733.446 492.168 733.644 492.006 733.86 491.874C734.088 491.742 734.346 491.64 734.634 491.568C734.922 491.484 735.252 491.442 735.624 491.442C736.188 491.442 736.71 491.568 737.19 491.82C737.682 492.072 738.03 492.462 738.234 492.99C738.582 492.51 738.984 492.132 739.44 491.856C739.896 491.58 740.466 491.442 741.15 491.442C742.134 491.442 742.896 491.682 743.436 492.162C743.988 492.642 744.264 493.446 744.264 494.574V501H742.212V495.564C742.212 495.192 742.2 494.856 742.176 494.556C742.152 494.244 742.08 493.98 741.96 493.764C741.852 493.536 741.684 493.362 741.456 493.242C741.228 493.122 740.916 493.062 740.52 493.062C739.824 493.062 739.32 493.278 739.008 493.71C738.696 494.142 738.54 494.754 738.54 495.546V501H736.488V495.024C736.488 494.376 736.368 493.89 736.128 493.566C735.9 493.23 735.474 493.062 734.85 493.062C734.586 493.062 734.328 493.116 734.076 493.224C733.836 493.332 733.62 493.488 733.428 493.692C733.248 493.896 733.098 494.148 732.978 494.448C732.87 494.748 732.816 495.09 732.816 495.474V501H730.764V491.694ZM754.22 498.93C754.22 499.182 754.25 499.362 754.31 499.47C754.382 499.578 754.514 499.632 754.706 499.632C754.766 499.632 754.838 499.632 754.922 499.632C755.006 499.632 755.102 499.62 755.21 499.596V501.018C755.138 501.042 755.042 501.066 754.922 501.09C754.814 501.126 754.7 501.156 754.58 501.18C754.46 501.204 754.34 501.222 754.22 501.234C754.1 501.246 753.998 501.252 753.914 501.252C753.494 501.252 753.146 501.168 752.87 501C752.594 500.832 752.414 500.538 752.33 500.118C751.922 500.514 751.418 500.802 750.818 500.982C750.23 501.162 749.66 501.252 749.108 501.252C748.688 501.252 748.286 501.192 747.902 501.072C747.518 500.964 747.176 500.802 746.876 500.586C746.588 500.358 746.354 500.076 746.174 499.74C746.006 499.392 745.922 498.99 745.922 498.534C745.922 497.958 746.024 497.49 746.228 497.13C746.444 496.77 746.72 496.488 747.056 496.284C747.404 496.08 747.788 495.936 748.208 495.852C748.64 495.756 749.072 495.684 749.504 495.636C749.876 495.564 750.23 495.516 750.566 495.492C750.902 495.456 751.196 495.402 751.448 495.33C751.712 495.258 751.916 495.15 752.06 495.006C752.216 494.85 752.294 494.622 752.294 494.322C752.294 494.058 752.228 493.842 752.096 493.674C751.976 493.506 751.82 493.38 751.628 493.296C751.448 493.2 751.244 493.14 751.016 493.116C750.788 493.08 750.572 493.062 750.368 493.062C749.792 493.062 749.318 493.182 748.946 493.422C748.574 493.662 748.364 494.034 748.316 494.538H746.264C746.3 493.938 746.444 493.44 746.696 493.044C746.948 492.648 747.266 492.33 747.65 492.09C748.046 491.85 748.49 491.682 748.982 491.586C749.474 491.49 749.978 491.442 750.494 491.442C750.95 491.442 751.4 491.49 751.844 491.586C752.288 491.682 752.684 491.838 753.032 492.054C753.392 492.27 753.68 492.552 753.896 492.9C754.112 493.236 754.22 493.65 754.22 494.142V498.93ZM752.168 496.338C751.856 496.542 751.472 496.668 751.016 496.716C750.56 496.752 750.104 496.812 749.648 496.896C749.432 496.932 749.222 496.986 749.018 497.058C748.814 497.118 748.634 497.208 748.478 497.328C748.322 497.436 748.196 497.586 748.1 497.778C748.016 497.958 747.974 498.18 747.974 498.444C747.974 498.672 748.04 498.864 748.172 499.02C748.304 499.176 748.46 499.302 748.64 499.398C748.832 499.482 749.036 499.542 749.252 499.578C749.48 499.614 749.684 499.632 749.864 499.632C750.092 499.632 750.338 499.602 750.602 499.542C750.866 499.482 751.112 499.38 751.34 499.236C751.58 499.092 751.778 498.912 751.934 498.696C752.09 498.468 752.168 498.192 752.168 497.868V496.338ZM755.492 491.694H757.04V488.904H759.092V491.694H760.946V493.224H759.092V498.192C759.092 498.408 759.098 498.594 759.11 498.75C759.134 498.906 759.176 499.038 759.236 499.146C759.308 499.254 759.41 499.338 759.542 499.398C759.674 499.446 759.854 499.47 760.082 499.47C760.226 499.47 760.37 499.47 760.514 499.47C760.658 499.458 760.802 499.434 760.946 499.398V500.982C760.718 501.006 760.496 501.03 760.28 501.054C760.064 501.078 759.842 501.09 759.614 501.09C759.074 501.09 758.636 501.042 758.3 500.946C757.976 500.838 757.718 500.688 757.526 500.496C757.346 500.292 757.22 500.04 757.148 499.74C757.088 499.44 757.052 499.098 757.04 498.714V493.224H755.492V491.694ZM762.476 488.148H764.528V490.092H762.476V488.148ZM762.476 491.694H764.528V501H762.476V491.694ZM771.03 501.252C770.286 501.252 769.62 501.132 769.032 500.892C768.456 500.64 767.964 500.298 767.556 499.866C767.16 499.434 766.854 498.918 766.638 498.318C766.434 497.718 766.332 497.058 766.332 496.338C766.332 495.63 766.434 494.976 766.638 494.376C766.854 493.776 767.16 493.26 767.556 492.828C767.964 492.396 768.456 492.06 769.032 491.82C769.62 491.568 770.286 491.442 771.03 491.442C771.774 491.442 772.434 491.568 773.01 491.82C773.598 492.06 774.09 492.396 774.486 492.828C774.894 493.26 775.2 493.776 775.404 494.376C775.62 494.976 775.728 495.63 775.728 496.338C775.728 497.058 775.62 497.718 775.404 498.318C775.2 498.918 774.894 499.434 774.486 499.866C774.09 500.298 773.598 500.64 773.01 500.892C772.434 501.132 771.774 501.252 771.03 501.252ZM771.03 499.632C771.486 499.632 771.882 499.536 772.218 499.344C772.554 499.152 772.83 498.9 773.046 498.588C773.262 498.276 773.418 497.928 773.514 497.544C773.622 497.148 773.676 496.746 773.676 496.338C773.676 495.942 773.622 495.546 773.514 495.15C773.418 494.754 773.262 494.406 773.046 494.106C772.83 493.794 772.554 493.542 772.218 493.35C771.882 493.158 771.486 493.062 771.03 493.062C770.574 493.062 770.178 493.158 769.842 493.35C769.506 493.542 769.23 493.794 769.014 494.106C768.798 494.406 768.636 494.754 768.528 495.15C768.432 495.546 768.384 495.942 768.384 496.338C768.384 496.746 768.432 497.148 768.528 497.544C768.636 497.928 768.798 498.276 769.014 498.588C769.23 498.9 769.506 499.152 769.842 499.344C770.178 499.536 770.574 499.632 771.03 499.632ZM777.434 491.694H779.378V493.062L779.414 493.098C779.726 492.582 780.134 492.18 780.638 491.892C781.142 491.592 781.7 491.442 782.312 491.442C783.332 491.442 784.136 491.706 784.724 492.234C785.312 492.762 785.606 493.554 785.606 494.61V501H783.554V495.15C783.53 494.418 783.374 493.89 783.086 493.566C782.798 493.23 782.348 493.062 781.736 493.062C781.388 493.062 781.076 493.128 780.8 493.26C780.524 493.38 780.29 493.554 780.098 493.782C779.906 493.998 779.756 494.256 779.648 494.556C779.54 494.856 779.486 495.174 779.486 495.51V501H777.434V491.694ZM789.317 498.012C789.377 498.612 789.605 499.032 790.001 499.272C790.397 499.512 790.871 499.632 791.423 499.632C791.615 499.632 791.831 499.62 792.071 499.596C792.323 499.56 792.557 499.5 792.773 499.416C792.989 499.332 793.163 499.212 793.295 499.056C793.439 498.888 793.505 498.672 793.493 498.408C793.481 498.144 793.385 497.928 793.205 497.76C793.025 497.592 792.791 497.46 792.503 497.364C792.227 497.256 791.909 497.166 791.549 497.094C791.189 497.022 790.823 496.944 790.451 496.86C790.067 496.776 789.695 496.674 789.335 496.554C788.987 496.434 788.669 496.272 788.381 496.068C788.105 495.864 787.883 495.606 787.715 495.294C787.547 494.97 787.463 494.574 787.463 494.106C787.463 493.602 787.583 493.182 787.823 492.846C788.075 492.498 788.387 492.222 788.759 492.018C789.143 491.802 789.563 491.652 790.019 491.568C790.487 491.484 790.931 491.442 791.351 491.442C791.831 491.442 792.287 491.496 792.719 491.604C793.163 491.7 793.559 491.862 793.907 492.09C794.267 492.318 794.561 492.618 794.789 492.99C795.029 493.35 795.179 493.788 795.239 494.304H793.097C793.001 493.812 792.773 493.482 792.413 493.314C792.065 493.146 791.663 493.062 791.207 493.062C791.063 493.062 790.889 493.074 790.685 493.098C790.493 493.122 790.307 493.17 790.127 493.242C789.959 493.302 789.815 493.398 789.695 493.53C789.575 493.65 789.515 493.812 789.515 494.016C789.515 494.268 789.599 494.472 789.767 494.628C789.947 494.784 790.175 494.916 790.451 495.024C790.739 495.12 791.063 495.204 791.423 495.276C791.783 495.348 792.155 495.426 792.539 495.51C792.911 495.594 793.277 495.696 793.637 495.816C793.997 495.936 794.315 496.098 794.591 496.302C794.879 496.506 795.107 496.764 795.275 497.076C795.455 497.388 795.545 497.772 795.545 498.228C795.545 498.78 795.419 499.248 795.167 499.632C794.915 500.016 794.585 500.328 794.177 500.568C793.781 500.808 793.337 500.982 792.845 501.09C792.353 501.198 791.867 501.252 791.387 501.252C790.799 501.252 790.253 501.186 789.749 501.054C789.257 500.922 788.825 500.724 788.453 500.46C788.093 500.184 787.805 499.848 787.589 499.452C787.385 499.044 787.277 498.564 787.265 498.012H789.317Z" fill="black"/>
</svg>
